%TF.GenerationSoftware,KiCad,Pcbnew,8.0.5+dfsg-1*%
%TF.CreationDate,2024-10-30T23:40:19+01:00*%
%TF.ProjectId,raddr,72616464-722e-46b6-9963-61645f706362,rev?*%
%TF.SameCoordinates,Original*%
%TF.FileFunction,Drillmap*%
%TF.FilePolarity,Positive*%
%FSLAX45Y45*%
G04 Gerber Fmt 4.5, Leading zero omitted, Abs format (unit mm)*
G04 Created by KiCad (PCBNEW 8.0.5+dfsg-1) date 2024-10-30 23:40:19*
%MOMM*%
%LPD*%
G01*
G04 APERTURE LIST*
%ADD10C,0.050000*%
%ADD11C,0.100000*%
%ADD12C,0.200000*%
%ADD13C,0.525000*%
G04 APERTURE END LIST*
D10*
X-381000Y508000D02*
X2159000Y508000D01*
X2159000Y-2032000D01*
X-381000Y-2032000D01*
X-381000Y508000D01*
D11*
X719000Y77904D02*
X719000Y-62664D01*
X809555Y-142380D02*
X968445Y-142380D01*
X968445Y157620D02*
X809555Y157620D01*
X1059000Y-62664D02*
X1059000Y77904D01*
X714052Y99592D02*
G75*
G02*
X719000Y77904I-44982J-21672D01*
G01*
X714052Y99592D02*
G75*
G02*
X784329Y164450I45051J21688D01*
G01*
X719000Y-62664D02*
G75*
G02*
X714052Y-84352I-50020J4D01*
G01*
X784329Y-149210D02*
G75*
G02*
X714052Y-84352I-25226J43170D01*
G01*
X784329Y-149210D02*
G75*
G02*
X809555Y-142380I25226J-43171D01*
G01*
X809555Y157620D02*
G75*
G02*
X784329Y164450I0J50001D01*
G01*
X968445Y-142380D02*
G75*
G02*
X993671Y-149210I0J-50001D01*
G01*
X993671Y164450D02*
G75*
G02*
X968445Y157620I-25226J43171D01*
G01*
X993671Y164450D02*
G75*
G02*
X1063948Y99592I25226J-43170D01*
G01*
X1059000Y77904D02*
G75*
G02*
X1063948Y99592I49999J0D01*
G01*
X1063948Y-84352D02*
G75*
G02*
X993671Y-149210I-45052J-21688D01*
G01*
X1063948Y-84352D02*
G75*
G02*
X1059000Y-62664I45051J21688D01*
G01*
D12*
D13*
X626500Y-245500D02*
X1151500Y-770500D01*
X1151500Y-245500D02*
X626500Y-770500D01*
D12*
X-122723Y-2345984D02*
X-122723Y-2145984D01*
X-122723Y-2145984D02*
X-75104Y-2145984D01*
X-75104Y-2145984D02*
X-46533Y-2155508D01*
X-46533Y-2155508D02*
X-27485Y-2174555D01*
X-27485Y-2174555D02*
X-17961Y-2193603D01*
X-17961Y-2193603D02*
X-8437Y-2231698D01*
X-8437Y-2231698D02*
X-8437Y-2260270D01*
X-8437Y-2260270D02*
X-17961Y-2298365D01*
X-17961Y-2298365D02*
X-27485Y-2317412D01*
X-27485Y-2317412D02*
X-46533Y-2336460D01*
X-46533Y-2336460D02*
X-75104Y-2345984D01*
X-75104Y-2345984D02*
X-122723Y-2345984D01*
X77277Y-2345984D02*
X77277Y-2212650D01*
X77277Y-2250746D02*
X86801Y-2231698D01*
X86801Y-2231698D02*
X96324Y-2222174D01*
X96324Y-2222174D02*
X115372Y-2212650D01*
X115372Y-2212650D02*
X134420Y-2212650D01*
X201086Y-2345984D02*
X201086Y-2212650D01*
X201086Y-2145984D02*
X191562Y-2155508D01*
X191562Y-2155508D02*
X201086Y-2165031D01*
X201086Y-2165031D02*
X210610Y-2155508D01*
X210610Y-2155508D02*
X201086Y-2145984D01*
X201086Y-2145984D02*
X201086Y-2165031D01*
X324896Y-2345984D02*
X305848Y-2336460D01*
X305848Y-2336460D02*
X296324Y-2317412D01*
X296324Y-2317412D02*
X296324Y-2145984D01*
X429658Y-2345984D02*
X410610Y-2336460D01*
X410610Y-2336460D02*
X401086Y-2317412D01*
X401086Y-2317412D02*
X401086Y-2145984D01*
X658229Y-2345984D02*
X658229Y-2145984D01*
X658229Y-2145984D02*
X724896Y-2288841D01*
X724896Y-2288841D02*
X791562Y-2145984D01*
X791562Y-2145984D02*
X791562Y-2345984D01*
X972515Y-2345984D02*
X972515Y-2241222D01*
X972515Y-2241222D02*
X962991Y-2222174D01*
X962991Y-2222174D02*
X943943Y-2212650D01*
X943943Y-2212650D02*
X905848Y-2212650D01*
X905848Y-2212650D02*
X886801Y-2222174D01*
X972515Y-2336460D02*
X953467Y-2345984D01*
X953467Y-2345984D02*
X905848Y-2345984D01*
X905848Y-2345984D02*
X886801Y-2336460D01*
X886801Y-2336460D02*
X877277Y-2317412D01*
X877277Y-2317412D02*
X877277Y-2298365D01*
X877277Y-2298365D02*
X886801Y-2279317D01*
X886801Y-2279317D02*
X905848Y-2269793D01*
X905848Y-2269793D02*
X953467Y-2269793D01*
X953467Y-2269793D02*
X972515Y-2260270D01*
X1067753Y-2212650D02*
X1067753Y-2412650D01*
X1067753Y-2222174D02*
X1086801Y-2212650D01*
X1086801Y-2212650D02*
X1124896Y-2212650D01*
X1124896Y-2212650D02*
X1143944Y-2222174D01*
X1143944Y-2222174D02*
X1153467Y-2231698D01*
X1153467Y-2231698D02*
X1162991Y-2250746D01*
X1162991Y-2250746D02*
X1162991Y-2307889D01*
X1162991Y-2307889D02*
X1153467Y-2326936D01*
X1153467Y-2326936D02*
X1143944Y-2336460D01*
X1143944Y-2336460D02*
X1124896Y-2345984D01*
X1124896Y-2345984D02*
X1086801Y-2345984D01*
X1086801Y-2345984D02*
X1067753Y-2336460D01*
X1248705Y-2326936D02*
X1258229Y-2336460D01*
X1258229Y-2336460D02*
X1248705Y-2345984D01*
X1248705Y-2345984D02*
X1239182Y-2336460D01*
X1239182Y-2336460D02*
X1248705Y-2326936D01*
X1248705Y-2326936D02*
X1248705Y-2345984D01*
X1248705Y-2222174D02*
X1258229Y-2231698D01*
X1258229Y-2231698D02*
X1248705Y-2241222D01*
X1248705Y-2241222D02*
X1239182Y-2231698D01*
X1239182Y-2231698D02*
X1248705Y-2222174D01*
X1248705Y-2222174D02*
X1248705Y-2241222D01*
X-583500Y-2574500D02*
X-383500Y-2774500D01*
X-383500Y-2574500D02*
X-583500Y-2774500D01*
X-27485Y-2565984D02*
X-122723Y-2565984D01*
X-122723Y-2565984D02*
X-132247Y-2661222D01*
X-132247Y-2661222D02*
X-122723Y-2651698D01*
X-122723Y-2651698D02*
X-103675Y-2642174D01*
X-103675Y-2642174D02*
X-56056Y-2642174D01*
X-56056Y-2642174D02*
X-37009Y-2651698D01*
X-37009Y-2651698D02*
X-27485Y-2661222D01*
X-27485Y-2661222D02*
X-17961Y-2680270D01*
X-17961Y-2680270D02*
X-17961Y-2727889D01*
X-17961Y-2727889D02*
X-27485Y-2746936D01*
X-27485Y-2746936D02*
X-37009Y-2756460D01*
X-37009Y-2756460D02*
X-56056Y-2765984D01*
X-56056Y-2765984D02*
X-103675Y-2765984D01*
X-103675Y-2765984D02*
X-122723Y-2756460D01*
X-122723Y-2756460D02*
X-132247Y-2746936D01*
X67753Y-2746936D02*
X77277Y-2756460D01*
X77277Y-2756460D02*
X67753Y-2765984D01*
X67753Y-2765984D02*
X58229Y-2756460D01*
X58229Y-2756460D02*
X67753Y-2746936D01*
X67753Y-2746936D02*
X67753Y-2765984D01*
X153467Y-2585031D02*
X162991Y-2575508D01*
X162991Y-2575508D02*
X182039Y-2565984D01*
X182039Y-2565984D02*
X229658Y-2565984D01*
X229658Y-2565984D02*
X248705Y-2575508D01*
X248705Y-2575508D02*
X258229Y-2585031D01*
X258229Y-2585031D02*
X267753Y-2604079D01*
X267753Y-2604079D02*
X267753Y-2623127D01*
X267753Y-2623127D02*
X258229Y-2651698D01*
X258229Y-2651698D02*
X143944Y-2765984D01*
X143944Y-2765984D02*
X267753Y-2765984D01*
X448705Y-2565984D02*
X353467Y-2565984D01*
X353467Y-2565984D02*
X343944Y-2661222D01*
X343944Y-2661222D02*
X353467Y-2651698D01*
X353467Y-2651698D02*
X372515Y-2642174D01*
X372515Y-2642174D02*
X420134Y-2642174D01*
X420134Y-2642174D02*
X439182Y-2651698D01*
X439182Y-2651698D02*
X448705Y-2661222D01*
X448705Y-2661222D02*
X458229Y-2680270D01*
X458229Y-2680270D02*
X458229Y-2727889D01*
X458229Y-2727889D02*
X448705Y-2746936D01*
X448705Y-2746936D02*
X439182Y-2756460D01*
X439182Y-2756460D02*
X420134Y-2765984D01*
X420134Y-2765984D02*
X372515Y-2765984D01*
X372515Y-2765984D02*
X353467Y-2756460D01*
X353467Y-2756460D02*
X343944Y-2746936D01*
X582039Y-2565984D02*
X601086Y-2565984D01*
X601086Y-2565984D02*
X620134Y-2575508D01*
X620134Y-2575508D02*
X629658Y-2585031D01*
X629658Y-2585031D02*
X639182Y-2604079D01*
X639182Y-2604079D02*
X648705Y-2642174D01*
X648705Y-2642174D02*
X648705Y-2689793D01*
X648705Y-2689793D02*
X639182Y-2727889D01*
X639182Y-2727889D02*
X629658Y-2746936D01*
X629658Y-2746936D02*
X620134Y-2756460D01*
X620134Y-2756460D02*
X601086Y-2765984D01*
X601086Y-2765984D02*
X582039Y-2765984D01*
X582039Y-2765984D02*
X562991Y-2756460D01*
X562991Y-2756460D02*
X553467Y-2746936D01*
X553467Y-2746936D02*
X543944Y-2727889D01*
X543944Y-2727889D02*
X534420Y-2689793D01*
X534420Y-2689793D02*
X534420Y-2642174D01*
X534420Y-2642174D02*
X543944Y-2604079D01*
X543944Y-2604079D02*
X553467Y-2585031D01*
X553467Y-2585031D02*
X562991Y-2575508D01*
X562991Y-2575508D02*
X582039Y-2565984D01*
X734420Y-2765984D02*
X734420Y-2632650D01*
X734420Y-2651698D02*
X743943Y-2642174D01*
X743943Y-2642174D02*
X762991Y-2632650D01*
X762991Y-2632650D02*
X791563Y-2632650D01*
X791563Y-2632650D02*
X810610Y-2642174D01*
X810610Y-2642174D02*
X820134Y-2661222D01*
X820134Y-2661222D02*
X820134Y-2765984D01*
X820134Y-2661222D02*
X829658Y-2642174D01*
X829658Y-2642174D02*
X848705Y-2632650D01*
X848705Y-2632650D02*
X877277Y-2632650D01*
X877277Y-2632650D02*
X896324Y-2642174D01*
X896324Y-2642174D02*
X905848Y-2661222D01*
X905848Y-2661222D02*
X905848Y-2765984D01*
X1001086Y-2765984D02*
X1001086Y-2632650D01*
X1001086Y-2651698D02*
X1010610Y-2642174D01*
X1010610Y-2642174D02*
X1029658Y-2632650D01*
X1029658Y-2632650D02*
X1058229Y-2632650D01*
X1058229Y-2632650D02*
X1077277Y-2642174D01*
X1077277Y-2642174D02*
X1086801Y-2661222D01*
X1086801Y-2661222D02*
X1086801Y-2765984D01*
X1086801Y-2661222D02*
X1096325Y-2642174D01*
X1096325Y-2642174D02*
X1115372Y-2632650D01*
X1115372Y-2632650D02*
X1143944Y-2632650D01*
X1143944Y-2632650D02*
X1162991Y-2642174D01*
X1162991Y-2642174D02*
X1172515Y-2661222D01*
X1172515Y-2661222D02*
X1172515Y-2765984D01*
X1562991Y-2556460D02*
X1391563Y-2813603D01*
X1820134Y-2565984D02*
X1839182Y-2565984D01*
X1839182Y-2565984D02*
X1858229Y-2575508D01*
X1858229Y-2575508D02*
X1867753Y-2585031D01*
X1867753Y-2585031D02*
X1877277Y-2604079D01*
X1877277Y-2604079D02*
X1886801Y-2642174D01*
X1886801Y-2642174D02*
X1886801Y-2689793D01*
X1886801Y-2689793D02*
X1877277Y-2727889D01*
X1877277Y-2727889D02*
X1867753Y-2746936D01*
X1867753Y-2746936D02*
X1858229Y-2756460D01*
X1858229Y-2756460D02*
X1839182Y-2765984D01*
X1839182Y-2765984D02*
X1820134Y-2765984D01*
X1820134Y-2765984D02*
X1801086Y-2756460D01*
X1801086Y-2756460D02*
X1791563Y-2746936D01*
X1791563Y-2746936D02*
X1782039Y-2727889D01*
X1782039Y-2727889D02*
X1772515Y-2689793D01*
X1772515Y-2689793D02*
X1772515Y-2642174D01*
X1772515Y-2642174D02*
X1782039Y-2604079D01*
X1782039Y-2604079D02*
X1791563Y-2585031D01*
X1791563Y-2585031D02*
X1801086Y-2575508D01*
X1801086Y-2575508D02*
X1820134Y-2565984D01*
X1972515Y-2746936D02*
X1982039Y-2756460D01*
X1982039Y-2756460D02*
X1972515Y-2765984D01*
X1972515Y-2765984D02*
X1962991Y-2756460D01*
X1962991Y-2756460D02*
X1972515Y-2746936D01*
X1972515Y-2746936D02*
X1972515Y-2765984D01*
X2058229Y-2585031D02*
X2067753Y-2575508D01*
X2067753Y-2575508D02*
X2086801Y-2565984D01*
X2086801Y-2565984D02*
X2134420Y-2565984D01*
X2134420Y-2565984D02*
X2153468Y-2575508D01*
X2153468Y-2575508D02*
X2162991Y-2585031D01*
X2162991Y-2585031D02*
X2172515Y-2604079D01*
X2172515Y-2604079D02*
X2172515Y-2623127D01*
X2172515Y-2623127D02*
X2162991Y-2651698D01*
X2162991Y-2651698D02*
X2048706Y-2765984D01*
X2048706Y-2765984D02*
X2172515Y-2765984D01*
X2296325Y-2565984D02*
X2315372Y-2565984D01*
X2315372Y-2565984D02*
X2334420Y-2575508D01*
X2334420Y-2575508D02*
X2343944Y-2585031D01*
X2343944Y-2585031D02*
X2353468Y-2604079D01*
X2353468Y-2604079D02*
X2362991Y-2642174D01*
X2362991Y-2642174D02*
X2362991Y-2689793D01*
X2362991Y-2689793D02*
X2353468Y-2727889D01*
X2353468Y-2727889D02*
X2343944Y-2746936D01*
X2343944Y-2746936D02*
X2334420Y-2756460D01*
X2334420Y-2756460D02*
X2315372Y-2765984D01*
X2315372Y-2765984D02*
X2296325Y-2765984D01*
X2296325Y-2765984D02*
X2277277Y-2756460D01*
X2277277Y-2756460D02*
X2267753Y-2746936D01*
X2267753Y-2746936D02*
X2258229Y-2727889D01*
X2258229Y-2727889D02*
X2248706Y-2689793D01*
X2248706Y-2689793D02*
X2248706Y-2642174D01*
X2248706Y-2642174D02*
X2258229Y-2604079D01*
X2258229Y-2604079D02*
X2267753Y-2585031D01*
X2267753Y-2585031D02*
X2277277Y-2575508D01*
X2277277Y-2575508D02*
X2296325Y-2565984D01*
X2534420Y-2565984D02*
X2496325Y-2565984D01*
X2496325Y-2565984D02*
X2477277Y-2575508D01*
X2477277Y-2575508D02*
X2467753Y-2585031D01*
X2467753Y-2585031D02*
X2448706Y-2613603D01*
X2448706Y-2613603D02*
X2439182Y-2651698D01*
X2439182Y-2651698D02*
X2439182Y-2727889D01*
X2439182Y-2727889D02*
X2448706Y-2746936D01*
X2448706Y-2746936D02*
X2458229Y-2756460D01*
X2458229Y-2756460D02*
X2477277Y-2765984D01*
X2477277Y-2765984D02*
X2515372Y-2765984D01*
X2515372Y-2765984D02*
X2534420Y-2756460D01*
X2534420Y-2756460D02*
X2543944Y-2746936D01*
X2543944Y-2746936D02*
X2553468Y-2727889D01*
X2553468Y-2727889D02*
X2553468Y-2680270D01*
X2553468Y-2680270D02*
X2543944Y-2661222D01*
X2543944Y-2661222D02*
X2534420Y-2651698D01*
X2534420Y-2651698D02*
X2515372Y-2642174D01*
X2515372Y-2642174D02*
X2477277Y-2642174D01*
X2477277Y-2642174D02*
X2458229Y-2651698D01*
X2458229Y-2651698D02*
X2448706Y-2661222D01*
X2448706Y-2661222D02*
X2439182Y-2680270D01*
X2620134Y-2565984D02*
X2753468Y-2565984D01*
X2753468Y-2565984D02*
X2667753Y-2765984D01*
X2820134Y-2565984D02*
X2820134Y-2604079D01*
X2896325Y-2565984D02*
X2896325Y-2604079D01*
X3191563Y-2842174D02*
X3182039Y-2832650D01*
X3182039Y-2832650D02*
X3162991Y-2804079D01*
X3162991Y-2804079D02*
X3153468Y-2785031D01*
X3153468Y-2785031D02*
X3143944Y-2756460D01*
X3143944Y-2756460D02*
X3134420Y-2708841D01*
X3134420Y-2708841D02*
X3134420Y-2670746D01*
X3134420Y-2670746D02*
X3143944Y-2623127D01*
X3143944Y-2623127D02*
X3153468Y-2594555D01*
X3153468Y-2594555D02*
X3162991Y-2575508D01*
X3162991Y-2575508D02*
X3182039Y-2546936D01*
X3182039Y-2546936D02*
X3191563Y-2537412D01*
X3372515Y-2765984D02*
X3258229Y-2765984D01*
X3315372Y-2765984D02*
X3315372Y-2565984D01*
X3315372Y-2565984D02*
X3296325Y-2594555D01*
X3296325Y-2594555D02*
X3277277Y-2613603D01*
X3277277Y-2613603D02*
X3258229Y-2623127D01*
X3610610Y-2765984D02*
X3610610Y-2565984D01*
X3696325Y-2765984D02*
X3696325Y-2661222D01*
X3696325Y-2661222D02*
X3686801Y-2642174D01*
X3686801Y-2642174D02*
X3667753Y-2632650D01*
X3667753Y-2632650D02*
X3639182Y-2632650D01*
X3639182Y-2632650D02*
X3620134Y-2642174D01*
X3620134Y-2642174D02*
X3610610Y-2651698D01*
X3820134Y-2765984D02*
X3801087Y-2756460D01*
X3801087Y-2756460D02*
X3791563Y-2746936D01*
X3791563Y-2746936D02*
X3782039Y-2727889D01*
X3782039Y-2727889D02*
X3782039Y-2670746D01*
X3782039Y-2670746D02*
X3791563Y-2651698D01*
X3791563Y-2651698D02*
X3801087Y-2642174D01*
X3801087Y-2642174D02*
X3820134Y-2632650D01*
X3820134Y-2632650D02*
X3848706Y-2632650D01*
X3848706Y-2632650D02*
X3867753Y-2642174D01*
X3867753Y-2642174D02*
X3877277Y-2651698D01*
X3877277Y-2651698D02*
X3886801Y-2670746D01*
X3886801Y-2670746D02*
X3886801Y-2727889D01*
X3886801Y-2727889D02*
X3877277Y-2746936D01*
X3877277Y-2746936D02*
X3867753Y-2756460D01*
X3867753Y-2756460D02*
X3848706Y-2765984D01*
X3848706Y-2765984D02*
X3820134Y-2765984D01*
X4001087Y-2765984D02*
X3982039Y-2756460D01*
X3982039Y-2756460D02*
X3972515Y-2737412D01*
X3972515Y-2737412D02*
X3972515Y-2565984D01*
X4153468Y-2756460D02*
X4134420Y-2765984D01*
X4134420Y-2765984D02*
X4096325Y-2765984D01*
X4096325Y-2765984D02*
X4077277Y-2756460D01*
X4077277Y-2756460D02*
X4067753Y-2737412D01*
X4067753Y-2737412D02*
X4067753Y-2661222D01*
X4067753Y-2661222D02*
X4077277Y-2642174D01*
X4077277Y-2642174D02*
X4096325Y-2632650D01*
X4096325Y-2632650D02*
X4134420Y-2632650D01*
X4134420Y-2632650D02*
X4153468Y-2642174D01*
X4153468Y-2642174D02*
X4162991Y-2661222D01*
X4162991Y-2661222D02*
X4162991Y-2680270D01*
X4162991Y-2680270D02*
X4067753Y-2699317D01*
X4229658Y-2842174D02*
X4239182Y-2832650D01*
X4239182Y-2832650D02*
X4258230Y-2804079D01*
X4258230Y-2804079D02*
X4267753Y-2785031D01*
X4267753Y-2785031D02*
X4277277Y-2756460D01*
X4277277Y-2756460D02*
X4286801Y-2708841D01*
X4286801Y-2708841D02*
X4286801Y-2670746D01*
X4286801Y-2670746D02*
X4277277Y-2623127D01*
X4277277Y-2623127D02*
X4267753Y-2594555D01*
X4267753Y-2594555D02*
X4258230Y-2575508D01*
X4258230Y-2575508D02*
X4239182Y-2546936D01*
X4239182Y-2546936D02*
X4229658Y-2537412D01*
X4591563Y-2842174D02*
X4582039Y-2832650D01*
X4582039Y-2832650D02*
X4562992Y-2804079D01*
X4562992Y-2804079D02*
X4553468Y-2785031D01*
X4553468Y-2785031D02*
X4543944Y-2756460D01*
X4543944Y-2756460D02*
X4534420Y-2708841D01*
X4534420Y-2708841D02*
X4534420Y-2670746D01*
X4534420Y-2670746D02*
X4543944Y-2623127D01*
X4543944Y-2623127D02*
X4553468Y-2594555D01*
X4553468Y-2594555D02*
X4562992Y-2575508D01*
X4562992Y-2575508D02*
X4582039Y-2546936D01*
X4582039Y-2546936D02*
X4591563Y-2537412D01*
X4667753Y-2632650D02*
X4667753Y-2765984D01*
X4667753Y-2651698D02*
X4677277Y-2642174D01*
X4677277Y-2642174D02*
X4696325Y-2632650D01*
X4696325Y-2632650D02*
X4724896Y-2632650D01*
X4724896Y-2632650D02*
X4743944Y-2642174D01*
X4743944Y-2642174D02*
X4753468Y-2661222D01*
X4753468Y-2661222D02*
X4753468Y-2765984D01*
X4877277Y-2765984D02*
X4858230Y-2756460D01*
X4858230Y-2756460D02*
X4848706Y-2746936D01*
X4848706Y-2746936D02*
X4839182Y-2727889D01*
X4839182Y-2727889D02*
X4839182Y-2670746D01*
X4839182Y-2670746D02*
X4848706Y-2651698D01*
X4848706Y-2651698D02*
X4858230Y-2642174D01*
X4858230Y-2642174D02*
X4877277Y-2632650D01*
X4877277Y-2632650D02*
X4905849Y-2632650D01*
X4905849Y-2632650D02*
X4924896Y-2642174D01*
X4924896Y-2642174D02*
X4934420Y-2651698D01*
X4934420Y-2651698D02*
X4943944Y-2670746D01*
X4943944Y-2670746D02*
X4943944Y-2727889D01*
X4943944Y-2727889D02*
X4934420Y-2746936D01*
X4934420Y-2746936D02*
X4924896Y-2756460D01*
X4924896Y-2756460D02*
X4905849Y-2765984D01*
X4905849Y-2765984D02*
X4877277Y-2765984D01*
X5001087Y-2632650D02*
X5077277Y-2632650D01*
X5029658Y-2565984D02*
X5029658Y-2737412D01*
X5029658Y-2737412D02*
X5039182Y-2756460D01*
X5039182Y-2756460D02*
X5058230Y-2765984D01*
X5058230Y-2765984D02*
X5077277Y-2765984D01*
X5296325Y-2632650D02*
X5296325Y-2832650D01*
X5296325Y-2642174D02*
X5315373Y-2632650D01*
X5315373Y-2632650D02*
X5353468Y-2632650D01*
X5353468Y-2632650D02*
X5372515Y-2642174D01*
X5372515Y-2642174D02*
X5382039Y-2651698D01*
X5382039Y-2651698D02*
X5391563Y-2670746D01*
X5391563Y-2670746D02*
X5391563Y-2727889D01*
X5391563Y-2727889D02*
X5382039Y-2746936D01*
X5382039Y-2746936D02*
X5372515Y-2756460D01*
X5372515Y-2756460D02*
X5353468Y-2765984D01*
X5353468Y-2765984D02*
X5315373Y-2765984D01*
X5315373Y-2765984D02*
X5296325Y-2756460D01*
X5505849Y-2765984D02*
X5486801Y-2756460D01*
X5486801Y-2756460D02*
X5477277Y-2737412D01*
X5477277Y-2737412D02*
X5477277Y-2565984D01*
X5667753Y-2765984D02*
X5667753Y-2661222D01*
X5667753Y-2661222D02*
X5658230Y-2642174D01*
X5658230Y-2642174D02*
X5639182Y-2632650D01*
X5639182Y-2632650D02*
X5601087Y-2632650D01*
X5601087Y-2632650D02*
X5582039Y-2642174D01*
X5667753Y-2756460D02*
X5648706Y-2765984D01*
X5648706Y-2765984D02*
X5601087Y-2765984D01*
X5601087Y-2765984D02*
X5582039Y-2756460D01*
X5582039Y-2756460D02*
X5572515Y-2737412D01*
X5572515Y-2737412D02*
X5572515Y-2718365D01*
X5572515Y-2718365D02*
X5582039Y-2699317D01*
X5582039Y-2699317D02*
X5601087Y-2689793D01*
X5601087Y-2689793D02*
X5648706Y-2689793D01*
X5648706Y-2689793D02*
X5667753Y-2680270D01*
X5734420Y-2632650D02*
X5810611Y-2632650D01*
X5762992Y-2565984D02*
X5762992Y-2737412D01*
X5762992Y-2737412D02*
X5772515Y-2756460D01*
X5772515Y-2756460D02*
X5791563Y-2765984D01*
X5791563Y-2765984D02*
X5810611Y-2765984D01*
X5953468Y-2756460D02*
X5934420Y-2765984D01*
X5934420Y-2765984D02*
X5896325Y-2765984D01*
X5896325Y-2765984D02*
X5877277Y-2756460D01*
X5877277Y-2756460D02*
X5867753Y-2737412D01*
X5867753Y-2737412D02*
X5867753Y-2661222D01*
X5867753Y-2661222D02*
X5877277Y-2642174D01*
X5877277Y-2642174D02*
X5896325Y-2632650D01*
X5896325Y-2632650D02*
X5934420Y-2632650D01*
X5934420Y-2632650D02*
X5953468Y-2642174D01*
X5953468Y-2642174D02*
X5962992Y-2661222D01*
X5962992Y-2661222D02*
X5962992Y-2680270D01*
X5962992Y-2680270D02*
X5867753Y-2699317D01*
X6134420Y-2765984D02*
X6134420Y-2565984D01*
X6134420Y-2756460D02*
X6115373Y-2765984D01*
X6115373Y-2765984D02*
X6077277Y-2765984D01*
X6077277Y-2765984D02*
X6058230Y-2756460D01*
X6058230Y-2756460D02*
X6048706Y-2746936D01*
X6048706Y-2746936D02*
X6039182Y-2727889D01*
X6039182Y-2727889D02*
X6039182Y-2670746D01*
X6039182Y-2670746D02*
X6048706Y-2651698D01*
X6048706Y-2651698D02*
X6058230Y-2642174D01*
X6058230Y-2642174D02*
X6077277Y-2632650D01*
X6077277Y-2632650D02*
X6115373Y-2632650D01*
X6115373Y-2632650D02*
X6134420Y-2642174D01*
X6210611Y-2842174D02*
X6220134Y-2832650D01*
X6220134Y-2832650D02*
X6239182Y-2804079D01*
X6239182Y-2804079D02*
X6248706Y-2785031D01*
X6248706Y-2785031D02*
X6258230Y-2756460D01*
X6258230Y-2756460D02*
X6267753Y-2708841D01*
X6267753Y-2708841D02*
X6267753Y-2670746D01*
X6267753Y-2670746D02*
X6258230Y-2623127D01*
X6258230Y-2623127D02*
X6248706Y-2594555D01*
X6248706Y-2594555D02*
X6239182Y-2575508D01*
X6239182Y-2575508D02*
X6220134Y-2546936D01*
X6220134Y-2546936D02*
X6210611Y-2537412D01*
M02*
