G04 #@! TF.GenerationSoftware,KiCad,Pcbnew,8.0.5+dfsg-1*
G04 #@! TF.CreationDate,2024-10-30T23:38:12+01:00*
G04 #@! TF.ProjectId,raddr,72616464-722e-46b6-9963-61645f706362,rev?*
G04 #@! TF.SameCoordinates,Original*
G04 #@! TF.FileFunction,Copper,L1,Top*
G04 #@! TF.FilePolarity,Positive*
%FSLAX46Y46*%
G04 Gerber Fmt 4.6, Leading zero omitted, Abs format (unit mm)*
G04 Created by KiCad (PCBNEW 8.0.5+dfsg-1) date 2024-10-30 23:38:12*
%MOMM*%
%LPD*%
G01*
G04 APERTURE LIST*
G04 Aperture macros list*
%AMRoundRect*
0 Rectangle with rounded corners*
0 $1 Rounding radius*
0 $2 $3 $4 $5 $6 $7 $8 $9 X,Y pos of 4 corners*
0 Add a 4 corners polygon primitive as box body*
4,1,4,$2,$3,$4,$5,$6,$7,$8,$9,$2,$3,0*
0 Add four circle primitives for the rounded corners*
1,1,$1+$1,$2,$3*
1,1,$1+$1,$4,$5*
1,1,$1+$1,$6,$7*
1,1,$1+$1,$8,$9*
0 Add four rect primitives between the rounded corners*
20,1,$1+$1,$2,$3,$4,$5,0*
20,1,$1+$1,$4,$5,$6,$7,0*
20,1,$1+$1,$6,$7,$8,$9,0*
20,1,$1+$1,$8,$9,$2,$3,0*%
%AMFreePoly0*
4,1,18,-0.410000,0.265000,0.000000,0.675000,0.328000,0.675000,0.359380,0.668758,0.385983,0.650983,0.403758,0.624380,0.410000,0.593000,0.410000,-0.593000,0.403758,-0.624380,0.385983,-0.650983,0.359380,-0.668758,0.328000,-0.675000,-0.328000,-0.675000,-0.359380,-0.668758,-0.385983,-0.650983,-0.403758,-0.624380,-0.410000,-0.593000,-0.410000,0.265000,-0.410000,0.265000,$1*%
G04 Aperture macros list end*
G04 #@! TA.AperFunction,SMDPad,CuDef*
%ADD10RoundRect,0.082000X0.593000X-0.328000X0.593000X0.328000X-0.593000X0.328000X-0.593000X-0.328000X0*%
G04 #@! TD*
G04 #@! TA.AperFunction,SMDPad,CuDef*
%ADD11FreePoly0,90.000000*%
G04 #@! TD*
G04 #@! TA.AperFunction,SMDPad,CuDef*
%ADD12RoundRect,0.150000X-0.675000X-0.150000X0.675000X-0.150000X0.675000X0.150000X-0.675000X0.150000X0*%
G04 #@! TD*
G04 #@! TA.AperFunction,ComponentPad*
%ADD13R,1.700000X1.700000*%
G04 #@! TD*
G04 #@! TA.AperFunction,ComponentPad*
%ADD14O,1.700000X1.700000*%
G04 #@! TD*
G04 #@! TA.AperFunction,ComponentPad*
%ADD15C,3.300000*%
G04 #@! TD*
G04 #@! TA.AperFunction,SMDPad,CuDef*
%ADD16R,1.200000X2.550000*%
G04 #@! TD*
G04 #@! TA.AperFunction,SMDPad,CuDef*
%ADD17RoundRect,0.255000X-1.070000X-1.020000X1.070000X-1.020000X1.070000X1.020000X-1.070000X1.020000X0*%
G04 #@! TD*
G04 #@! TA.AperFunction,SMDPad,CuDef*
%ADD18RoundRect,0.237500X-0.300000X-0.237500X0.300000X-0.237500X0.300000X0.237500X-0.300000X0.237500X0*%
G04 #@! TD*
G04 #@! TA.AperFunction,ViaPad*
%ADD19C,0.600000*%
G04 #@! TD*
G04 #@! TA.AperFunction,Conductor*
%ADD20C,0.508000*%
G04 #@! TD*
G04 #@! TA.AperFunction,Conductor*
%ADD21C,0.200000*%
G04 #@! TD*
G04 APERTURE END LIST*
D10*
X11615000Y826200D03*
X11615000Y-673800D03*
X6165000Y826200D03*
D11*
X6165000Y-673800D03*
D12*
X13596800Y-14774800D03*
X13596800Y-16044800D03*
X13596800Y-17314800D03*
X13596800Y-18584800D03*
X18846800Y-18584800D03*
X18846800Y-17314800D03*
X18846800Y-16044800D03*
X18846800Y-14774800D03*
D13*
X20320000Y0D03*
D14*
X20320000Y-2540000D03*
X20320000Y-5080000D03*
X20320000Y-7620000D03*
D15*
X13290000Y-9780000D03*
D16*
X14840000Y-9780000D03*
D17*
X16535000Y-9780000D03*
X3045000Y-10830000D03*
D16*
X4740000Y-10830000D03*
D15*
X6290000Y-10830000D03*
D13*
X-2540000Y0D03*
D14*
X-2540000Y-2540000D03*
X-2540000Y-5080000D03*
X-2540000Y-7620000D03*
D18*
X15391100Y-13021000D03*
X17116100Y-13021000D03*
D13*
X-2540000Y-19050000D03*
D14*
X0Y-19050000D03*
X2540000Y-19050000D03*
X5080000Y-19050000D03*
D19*
X14362531Y-13938000D03*
X13208000Y762000D03*
X15113000Y0D03*
X18288000Y-13716000D03*
X2794000Y0D03*
X127000Y-13715996D03*
D20*
X11615000Y826200D02*
X13143800Y826200D01*
X13637300Y-14774800D02*
X14523550Y-13888550D01*
X13143800Y826200D02*
X13208000Y762000D01*
X14523550Y-13888550D02*
X14411981Y-13888550D01*
X14411981Y-13888550D02*
X14362531Y-13938000D01*
X14523550Y-13888550D02*
X15391100Y-13021000D01*
D21*
X19646200Y-673800D02*
X20320000Y0D01*
X14439200Y-673800D02*
X15113000Y0D01*
X11615000Y-673800D02*
X14439200Y-673800D01*
X13596800Y-16044800D02*
X15959200Y-16044800D01*
X13596800Y-16044800D02*
X13792352Y-16044800D01*
X15959200Y-16044800D02*
X18288000Y-13716000D01*
X3620200Y826200D02*
X6165000Y826200D01*
X2794000Y0D02*
X3620200Y826200D01*
X9694800Y-17314800D02*
X6985000Y-14605000D01*
X13716000Y-17272000D02*
X13358448Y-17272000D01*
X13673200Y-17314800D02*
X13716000Y-17272000D01*
X6985000Y-14605000D02*
X1016004Y-14605000D01*
X13596800Y-17314800D02*
X9694800Y-17314800D01*
X13596800Y-17314800D02*
X13673200Y-17314800D01*
X1016004Y-14605000D02*
X127000Y-13715996D01*
X16535000Y-9780000D02*
X17859999Y-9780000D01*
X19671799Y-16044800D02*
X18846800Y-16044800D01*
X17859999Y-9780000D02*
X20828000Y-12748001D01*
X20828000Y-14888599D02*
X19671799Y-16044800D01*
X20828000Y-12748001D02*
X20828000Y-14888599D01*
X9440800Y-18584800D02*
X13596800Y-18584800D01*
X-2540000Y-19050000D02*
X508000Y-16002000D01*
X508000Y-16002000D02*
X6858000Y-16002000D01*
X6858000Y-16002000D02*
X9440800Y-18584800D01*
X18846800Y-18584800D02*
X18127600Y-19304000D01*
X18127600Y-19304000D02*
X9652000Y-19304000D01*
X2667000Y-16383000D02*
X0Y-19050000D01*
X6731000Y-16383000D02*
X2667000Y-16383000D01*
X9652000Y-19304000D02*
X6731000Y-16383000D01*
G04 #@! TA.AperFunction,Conductor*
G36*
X21332539Y4859815D02*
G01*
X21378294Y4807011D01*
X21389500Y4755500D01*
X21389500Y1161861D01*
X21369815Y1094822D01*
X21317011Y1049067D01*
X21247853Y1039123D01*
X21241308Y1040244D01*
X21189750Y1050500D01*
X21189748Y1050500D01*
X19450252Y1050500D01*
X19450249Y1050500D01*
X19450247Y1050499D01*
X19391770Y1038868D01*
X19391769Y1038867D01*
X19325447Y994552D01*
X19281132Y928230D01*
X19281131Y928229D01*
X19269500Y869752D01*
X19269500Y-869752D01*
X19281131Y-928229D01*
X19281132Y-928230D01*
X19325447Y-994552D01*
X19391769Y-1038867D01*
X19391770Y-1038868D01*
X19450247Y-1050499D01*
X19450250Y-1050500D01*
X19450252Y-1050500D01*
X21189749Y-1050500D01*
X21241308Y-1040244D01*
X21310899Y-1046471D01*
X21366077Y-1089333D01*
X21389322Y-1155223D01*
X21389500Y-1161861D01*
X21389500Y-1840719D01*
X21369815Y-1907758D01*
X21317011Y-1953513D01*
X21247853Y-1963457D01*
X21184297Y-1934432D01*
X21169647Y-1919384D01*
X21066410Y-1793590D01*
X21066409Y-1793589D01*
X20906450Y-1662315D01*
X20723954Y-1564768D01*
X20525934Y-1504700D01*
X20525932Y-1504699D01*
X20525934Y-1504699D01*
X20320000Y-1484417D01*
X20114067Y-1504699D01*
X19916043Y-1564769D01*
X19805898Y-1623643D01*
X19733550Y-1662315D01*
X19733548Y-1662316D01*
X19733547Y-1662317D01*
X19573589Y-1793589D01*
X19442317Y-1953547D01*
X19344769Y-2136043D01*
X19284699Y-2334067D01*
X19264417Y-2540000D01*
X19284699Y-2745932D01*
X19284700Y-2745934D01*
X19344768Y-2943954D01*
X19442315Y-3126450D01*
X19442317Y-3126452D01*
X19573589Y-3286410D01*
X19670209Y-3365702D01*
X19733550Y-3417685D01*
X19916046Y-3515232D01*
X20114066Y-3575300D01*
X20114065Y-3575300D01*
X20132529Y-3577118D01*
X20320000Y-3595583D01*
X20525934Y-3575300D01*
X20723954Y-3515232D01*
X20906450Y-3417685D01*
X21066410Y-3286410D01*
X21169646Y-3160616D01*
X21227392Y-3121281D01*
X21297237Y-3119410D01*
X21357005Y-3155597D01*
X21387721Y-3218353D01*
X21389500Y-3239280D01*
X21389500Y-4380719D01*
X21369815Y-4447758D01*
X21317011Y-4493513D01*
X21247853Y-4503457D01*
X21184297Y-4474432D01*
X21169647Y-4459384D01*
X21066410Y-4333590D01*
X20906452Y-4202317D01*
X20906453Y-4202317D01*
X20906450Y-4202315D01*
X20723954Y-4104768D01*
X20525934Y-4044700D01*
X20525932Y-4044699D01*
X20525934Y-4044699D01*
X20320000Y-4024417D01*
X20114067Y-4044699D01*
X19916043Y-4104769D01*
X19805898Y-4163643D01*
X19733550Y-4202315D01*
X19733548Y-4202316D01*
X19733547Y-4202317D01*
X19573589Y-4333589D01*
X19442317Y-4493547D01*
X19344769Y-4676043D01*
X19284699Y-4874067D01*
X19264417Y-5080000D01*
X19284699Y-5285932D01*
X19284700Y-5285934D01*
X19344768Y-5483954D01*
X19442315Y-5666450D01*
X19442317Y-5666452D01*
X19573589Y-5826410D01*
X19635594Y-5877295D01*
X19733550Y-5957685D01*
X19916046Y-6055232D01*
X19982551Y-6075405D01*
X20040989Y-6113702D01*
X20069446Y-6177514D01*
X20058887Y-6246581D01*
X20012663Y-6298975D01*
X19978650Y-6313841D01*
X19856514Y-6346567D01*
X19856507Y-6346570D01*
X19642422Y-6446399D01*
X19642420Y-6446400D01*
X19448926Y-6581886D01*
X19448920Y-6581891D01*
X19281891Y-6748920D01*
X19281886Y-6748926D01*
X19146400Y-6942420D01*
X19146399Y-6942422D01*
X19046570Y-7156507D01*
X19046567Y-7156513D01*
X18989364Y-7369999D01*
X18989364Y-7370000D01*
X19886988Y-7370000D01*
X19854075Y-7427007D01*
X19820000Y-7554174D01*
X19820000Y-7685826D01*
X19854075Y-7812993D01*
X19886988Y-7870000D01*
X18989364Y-7870000D01*
X19046567Y-8083486D01*
X19046570Y-8083492D01*
X19146399Y-8297578D01*
X19281894Y-8491082D01*
X19448917Y-8658105D01*
X19642421Y-8793600D01*
X19856507Y-8893429D01*
X19856516Y-8893433D01*
X20070000Y-8950634D01*
X20070000Y-8053012D01*
X20127007Y-8085925D01*
X20254174Y-8120000D01*
X20385826Y-8120000D01*
X20512993Y-8085925D01*
X20570000Y-8053012D01*
X20570000Y-8950633D01*
X20783483Y-8893433D01*
X20783492Y-8893429D01*
X20997579Y-8793599D01*
X20997585Y-8793595D01*
X21194376Y-8655800D01*
X21260582Y-8633472D01*
X21328349Y-8650482D01*
X21376163Y-8701429D01*
X21389500Y-8757374D01*
X21389500Y-19995500D01*
X21369815Y-20062539D01*
X21317011Y-20108294D01*
X21265500Y-20119500D01*
X6217374Y-20119500D01*
X6150335Y-20099815D01*
X6104580Y-20047011D01*
X6094636Y-19977853D01*
X6115800Y-19924376D01*
X6253595Y-19727585D01*
X6253599Y-19727579D01*
X6353429Y-19513492D01*
X6353432Y-19513486D01*
X6410636Y-19300000D01*
X5513012Y-19300000D01*
X5545925Y-19242993D01*
X5580000Y-19115826D01*
X5580000Y-18984174D01*
X5545925Y-18857007D01*
X5513012Y-18800000D01*
X6410636Y-18800000D01*
X6410635Y-18799999D01*
X6353432Y-18586513D01*
X6353429Y-18586507D01*
X6253600Y-18372422D01*
X6253599Y-18372420D01*
X6118113Y-18178926D01*
X6118108Y-18178920D01*
X5951082Y-18011894D01*
X5757578Y-17876399D01*
X5543492Y-17776570D01*
X5543486Y-17776567D01*
X5330000Y-17719364D01*
X5330000Y-18616988D01*
X5272993Y-18584075D01*
X5145826Y-18550000D01*
X5014174Y-18550000D01*
X4887007Y-18584075D01*
X4830000Y-18616988D01*
X4830000Y-17719364D01*
X4829999Y-17719364D01*
X4616513Y-17776567D01*
X4616507Y-17776570D01*
X4402422Y-17876399D01*
X4402420Y-17876400D01*
X4208926Y-18011886D01*
X4208920Y-18011891D01*
X4041891Y-18178920D01*
X4041886Y-18178926D01*
X3906400Y-18372420D01*
X3906399Y-18372422D01*
X3806570Y-18586507D01*
X3806567Y-18586514D01*
X3773841Y-18708650D01*
X3737476Y-18768310D01*
X3674629Y-18798839D01*
X3605253Y-18790544D01*
X3551375Y-18746059D01*
X3535406Y-18712553D01*
X3515232Y-18646046D01*
X3417685Y-18463550D01*
X3310881Y-18333408D01*
X3286410Y-18303589D01*
X3136121Y-18180252D01*
X3126450Y-18172315D01*
X2943954Y-18074768D01*
X2745934Y-18014700D01*
X2745932Y-18014699D01*
X2745934Y-18014699D01*
X2540000Y-17994417D01*
X2334067Y-18014699D01*
X2136043Y-18074769D01*
X2025898Y-18133643D01*
X1953550Y-18172315D01*
X1953548Y-18172316D01*
X1953547Y-18172317D01*
X1793589Y-18303589D01*
X1662317Y-18463547D01*
X1564769Y-18646043D01*
X1504699Y-18844067D01*
X1484417Y-19050000D01*
X1504699Y-19255932D01*
X1504700Y-19255934D01*
X1564768Y-19453954D01*
X1662315Y-19636450D01*
X1662317Y-19636452D01*
X1793589Y-19796410D01*
X1919384Y-19899646D01*
X1958719Y-19957392D01*
X1960590Y-20027237D01*
X1924403Y-20087005D01*
X1861647Y-20117721D01*
X1840720Y-20119500D01*
X699280Y-20119500D01*
X632241Y-20099815D01*
X586486Y-20047011D01*
X576542Y-19977853D01*
X605567Y-19914297D01*
X620616Y-19899646D01*
X746410Y-19796410D01*
X877685Y-19636450D01*
X975232Y-19453954D01*
X1035300Y-19255934D01*
X1055583Y-19050000D01*
X1035300Y-18844066D01*
X975232Y-18646046D01*
X972264Y-18640493D01*
X967620Y-18631804D01*
X953379Y-18563401D01*
X978380Y-18498157D01*
X989290Y-18485679D01*
X2755152Y-16719819D01*
X2816475Y-16686334D01*
X2842833Y-16683500D01*
X6555167Y-16683500D01*
X6622206Y-16703185D01*
X6642848Y-16719819D01*
X9411540Y-19488511D01*
X9467489Y-19544460D01*
X9467491Y-19544461D01*
X9467495Y-19544464D01*
X9536004Y-19584017D01*
X9536011Y-19584021D01*
X9612438Y-19604500D01*
X9612440Y-19604500D01*
X18167160Y-19604500D01*
X18167162Y-19604500D01*
X18243589Y-19584021D01*
X18312111Y-19544460D01*
X18368060Y-19488511D01*
X18734952Y-19121619D01*
X18796275Y-19088134D01*
X18822633Y-19085300D01*
X19555061Y-19085300D01*
X19577771Y-19081991D01*
X19623193Y-19075373D01*
X19728283Y-19023998D01*
X19810998Y-18941283D01*
X19862373Y-18836193D01*
X19872300Y-18768060D01*
X19872300Y-18401540D01*
X19868057Y-18372422D01*
X19862373Y-18333408D01*
X19847796Y-18303590D01*
X19810998Y-18228317D01*
X19810996Y-18228315D01*
X19810996Y-18228314D01*
X19728285Y-18145603D01*
X19623191Y-18094226D01*
X19555061Y-18084300D01*
X19555060Y-18084300D01*
X18138540Y-18084300D01*
X18138539Y-18084300D01*
X18070408Y-18094226D01*
X17965314Y-18145603D01*
X17882603Y-18228314D01*
X17831226Y-18333408D01*
X17821300Y-18401539D01*
X17821300Y-18768060D01*
X17831226Y-18836192D01*
X17833297Y-18842893D01*
X17834281Y-18912755D01*
X17797339Y-18972060D01*
X17734198Y-19001977D01*
X17714824Y-19003500D01*
X14728776Y-19003500D01*
X14661737Y-18983815D01*
X14615982Y-18931011D01*
X14606038Y-18861853D01*
X14610303Y-18842893D01*
X14612373Y-18836192D01*
X14622300Y-18768060D01*
X14622300Y-18401539D01*
X14612373Y-18333408D01*
X14597796Y-18303590D01*
X14560998Y-18228317D01*
X14560996Y-18228315D01*
X14560996Y-18228314D01*
X14478285Y-18145603D01*
X14373191Y-18094226D01*
X14305061Y-18084300D01*
X14305060Y-18084300D01*
X12888540Y-18084300D01*
X12888539Y-18084300D01*
X12820408Y-18094226D01*
X12715314Y-18145603D01*
X12632605Y-18228312D01*
X12629723Y-18232350D01*
X12574749Y-18275474D01*
X12528803Y-18284300D01*
X9616633Y-18284300D01*
X9549594Y-18264615D01*
X9528952Y-18247981D01*
X7042512Y-15761541D01*
X7042507Y-15761537D01*
X7012649Y-15744299D01*
X7012649Y-15744298D01*
X7012647Y-15744298D01*
X6973994Y-15721981D01*
X6973991Y-15721979D01*
X6935775Y-15711739D01*
X6897562Y-15701500D01*
X468438Y-15701500D01*
X437867Y-15709691D01*
X392008Y-15721979D01*
X392007Y-15721980D01*
X353351Y-15744299D01*
X323492Y-15761537D01*
X323487Y-15761541D01*
X-1878152Y-17963181D01*
X-1939475Y-17996666D01*
X-1965833Y-17999500D01*
X-3409748Y-17999500D01*
X-3461310Y-18009756D01*
X-3530901Y-18003527D01*
X-3586078Y-17960664D01*
X-3609322Y-17894774D01*
X-3609500Y-17888138D01*
X-3609500Y-13715996D01*
X-378647Y-13715996D01*
X-358165Y-13858453D01*
X-298377Y-13989369D01*
X-204128Y-14098139D01*
X-83053Y-14175949D01*
X-83050Y-14175950D01*
X-27897Y-14192144D01*
X52280Y-14215686D01*
X55036Y-14216495D01*
X55038Y-14216496D01*
X151167Y-14216496D01*
X218206Y-14236181D01*
X238848Y-14252815D01*
X831493Y-14845460D01*
X900016Y-14885022D01*
X976442Y-14905500D01*
X1055566Y-14905500D01*
X6809167Y-14905500D01*
X6876206Y-14925185D01*
X6896848Y-14941819D01*
X9454340Y-17499311D01*
X9510289Y-17555260D01*
X9510291Y-17555261D01*
X9510295Y-17555264D01*
X9578804Y-17594817D01*
X9578811Y-17594821D01*
X9655238Y-17615300D01*
X12528803Y-17615300D01*
X12595842Y-17634985D01*
X12629723Y-17667250D01*
X12632605Y-17671287D01*
X12715314Y-17753996D01*
X12715315Y-17753996D01*
X12715317Y-17753998D01*
X12820407Y-17805373D01*
X12854473Y-17810336D01*
X12888539Y-17815300D01*
X12888540Y-17815300D01*
X14305061Y-17815300D01*
X14327771Y-17811991D01*
X14373193Y-17805373D01*
X14478283Y-17753998D01*
X14560998Y-17671283D01*
X14612373Y-17566193D01*
X14622300Y-17498060D01*
X14622300Y-17131540D01*
X14622300Y-17131539D01*
X17821300Y-17131539D01*
X17821300Y-17498060D01*
X17831226Y-17566191D01*
X17882603Y-17671285D01*
X17965314Y-17753996D01*
X17965315Y-17753996D01*
X17965317Y-17753998D01*
X18070407Y-17805373D01*
X18104473Y-17810336D01*
X18138539Y-17815300D01*
X18138540Y-17815300D01*
X19555061Y-17815300D01*
X19577771Y-17811991D01*
X19623193Y-17805373D01*
X19728283Y-17753998D01*
X19810998Y-17671283D01*
X19862373Y-17566193D01*
X19872300Y-17498060D01*
X19872300Y-17131540D01*
X19862373Y-17063407D01*
X19810998Y-16958317D01*
X19810996Y-16958315D01*
X19810996Y-16958314D01*
X19728285Y-16875603D01*
X19623191Y-16824226D01*
X19555061Y-16814300D01*
X19555060Y-16814300D01*
X18138540Y-16814300D01*
X18138539Y-16814300D01*
X18070408Y-16824226D01*
X17965314Y-16875603D01*
X17882603Y-16958314D01*
X17831226Y-17063408D01*
X17821300Y-17131539D01*
X14622300Y-17131539D01*
X14612373Y-17063407D01*
X14560998Y-16958317D01*
X14560996Y-16958315D01*
X14560996Y-16958314D01*
X14478285Y-16875603D01*
X14373191Y-16824226D01*
X14305061Y-16814300D01*
X14305060Y-16814300D01*
X12888540Y-16814300D01*
X12888539Y-16814300D01*
X12820408Y-16824226D01*
X12715314Y-16875603D01*
X12632605Y-16958312D01*
X12629723Y-16962350D01*
X12574749Y-17005474D01*
X12528803Y-17014300D01*
X9870633Y-17014300D01*
X9803594Y-16994615D01*
X9782952Y-16977981D01*
X7396511Y-14591539D01*
X12571300Y-14591539D01*
X12571300Y-14958060D01*
X12581226Y-15026191D01*
X12632603Y-15131285D01*
X12715314Y-15213996D01*
X12715315Y-15213996D01*
X12715317Y-15213998D01*
X12820407Y-15265373D01*
X12854473Y-15270336D01*
X12888539Y-15275300D01*
X12888540Y-15275300D01*
X14305061Y-15275300D01*
X14327771Y-15271991D01*
X14373193Y-15265373D01*
X14478283Y-15213998D01*
X14560998Y-15131283D01*
X14612373Y-15026193D01*
X14622300Y-14958060D01*
X14622300Y-14591540D01*
X14612373Y-14523407D01*
X14612372Y-14523406D01*
X14611052Y-14514343D01*
X14620865Y-14445165D01*
X14646072Y-14408786D01*
X14792410Y-14262449D01*
X14792415Y-14262445D01*
X14802618Y-14252241D01*
X14802620Y-14252241D01*
X14887241Y-14167620D01*
X14887241Y-14167618D01*
X14897445Y-14157415D01*
X14897448Y-14157410D01*
X15322041Y-13732819D01*
X15383364Y-13699334D01*
X15409722Y-13696500D01*
X15743860Y-13696500D01*
X15773449Y-13693725D01*
X15898075Y-13650116D01*
X15991040Y-13581505D01*
X16056667Y-13557535D01*
X16124838Y-13572850D01*
X16170210Y-13616179D01*
X16233652Y-13719034D01*
X16233655Y-13719038D01*
X16355561Y-13840944D01*
X16355565Y-13840947D01*
X16502288Y-13931448D01*
X16502299Y-13931453D01*
X16665947Y-13985680D01*
X16766951Y-13995999D01*
X16866100Y-13995998D01*
X16866100Y-12771000D01*
X17366100Y-12771000D01*
X18153599Y-12771000D01*
X18153599Y-12734360D01*
X18153598Y-12734345D01*
X18143280Y-12633347D01*
X18089053Y-12469699D01*
X18089048Y-12469688D01*
X17998547Y-12322965D01*
X17998544Y-12322961D01*
X17876638Y-12201055D01*
X17876634Y-12201052D01*
X17729911Y-12110551D01*
X17729900Y-12110546D01*
X17566252Y-12056319D01*
X17465254Y-12046000D01*
X17366100Y-12046000D01*
X17366100Y-12771000D01*
X16866100Y-12771000D01*
X16866100Y-12045999D01*
X16766960Y-12046000D01*
X16766944Y-12046001D01*
X16665947Y-12056319D01*
X16502299Y-12110546D01*
X16502288Y-12110551D01*
X16355565Y-12201052D01*
X16355561Y-12201055D01*
X16233654Y-12322962D01*
X16170210Y-12425821D01*
X16118262Y-12472545D01*
X16049299Y-12483766D01*
X15991039Y-12460494D01*
X15898074Y-12391883D01*
X15773448Y-12348274D01*
X15773449Y-12348274D01*
X15743860Y-12345500D01*
X15743856Y-12345500D01*
X15038344Y-12345500D01*
X15038340Y-12345500D01*
X15008750Y-12348274D01*
X14884123Y-12391884D01*
X14777889Y-12470288D01*
X14777888Y-12470289D01*
X14699484Y-12576523D01*
X14655874Y-12701150D01*
X14653100Y-12730739D01*
X14653100Y-13064878D01*
X14633415Y-13131917D01*
X14616781Y-13152559D01*
X14367953Y-13401386D01*
X14306630Y-13434871D01*
X14297921Y-13436443D01*
X14290565Y-13437500D01*
X14152480Y-13478045D01*
X14031404Y-13555856D01*
X13937154Y-13664626D01*
X13937153Y-13664628D01*
X13877366Y-13795541D01*
X13877365Y-13795546D01*
X13867046Y-13867316D01*
X13838020Y-13930871D01*
X13831990Y-13937349D01*
X13531357Y-14237982D01*
X13470036Y-14271466D01*
X13443678Y-14274300D01*
X12888539Y-14274300D01*
X12820408Y-14284226D01*
X12715314Y-14335603D01*
X12632603Y-14418314D01*
X12581226Y-14523408D01*
X12571300Y-14591539D01*
X7396511Y-14591539D01*
X7169514Y-14364542D01*
X7164290Y-14361526D01*
X7164289Y-14361525D01*
X7100992Y-14324980D01*
X7100993Y-14324980D01*
X7091960Y-14322559D01*
X7024562Y-14304500D01*
X7024560Y-14304500D01*
X1191837Y-14304500D01*
X1124798Y-14284815D01*
X1104156Y-14268181D01*
X666395Y-13830420D01*
X632910Y-13769097D01*
X631339Y-13725090D01*
X632647Y-13715996D01*
X612165Y-13573539D01*
X552377Y-13442623D01*
X458128Y-13333853D01*
X337053Y-13256043D01*
X337051Y-13256042D01*
X337049Y-13256041D01*
X337050Y-13256041D01*
X198963Y-13215496D01*
X198961Y-13215496D01*
X55039Y-13215496D01*
X55036Y-13215496D01*
X-83050Y-13256041D01*
X-83053Y-13256043D01*
X-204128Y-13333853D01*
X-298377Y-13442623D01*
X-358165Y-13573539D01*
X-378647Y-13715996D01*
X-3609500Y-13715996D01*
X-3609500Y-11900318D01*
X1220001Y-11900318D01*
X1230564Y-12003715D01*
X1286078Y-12171246D01*
X1286080Y-12171251D01*
X1378735Y-12321467D01*
X1503532Y-12446264D01*
X1653748Y-12538919D01*
X1653753Y-12538921D01*
X1821284Y-12594435D01*
X1924687Y-12604999D01*
X2794999Y-12604999D01*
X3295000Y-12604999D01*
X4088723Y-12604999D01*
X4088759Y-12605000D01*
X4490000Y-12605000D01*
X4490000Y-11080000D01*
X3295000Y-11080000D01*
X3295000Y-12604999D01*
X2794999Y-12604999D01*
X2795000Y-12604998D01*
X2795000Y-11080000D01*
X1220001Y-11080000D01*
X1220001Y-11900318D01*
X-3609500Y-11900318D01*
X-3609500Y-10711947D01*
X4790000Y-10711947D01*
X4790000Y-10948053D01*
X4826935Y-11181251D01*
X4899896Y-11405800D01*
X4990000Y-11582639D01*
X4990000Y-12605000D01*
X5036193Y-12605000D01*
X5100621Y-12623052D01*
X5298550Y-12743415D01*
X5568322Y-12860593D01*
X5851541Y-12939948D01*
X5851547Y-12939949D01*
X6142935Y-12980000D01*
X6437065Y-12980000D01*
X6728452Y-12939949D01*
X6728458Y-12939948D01*
X7011677Y-12860593D01*
X7281449Y-12743415D01*
X7532753Y-12590594D01*
X7532767Y-12590584D01*
X7623340Y-12516895D01*
X7623341Y-12516895D01*
X7159105Y-12052659D01*
X7267184Y-11974136D01*
X7434136Y-11807184D01*
X7512659Y-11699105D01*
X7979007Y-12165453D01*
X7979008Y-12165453D01*
X8131293Y-11949716D01*
X8266613Y-11688560D01*
X8365108Y-11411424D01*
X8365109Y-11411421D01*
X8424952Y-11123436D01*
X8445023Y-10830000D01*
X8424952Y-10536563D01*
X8365109Y-10248578D01*
X8365108Y-10248575D01*
X8266613Y-9971439D01*
X8266614Y-9971439D01*
X8167417Y-9779998D01*
X11434773Y-9779998D01*
X11434773Y-9780001D01*
X11453657Y-10044027D01*
X11453658Y-10044034D01*
X11509921Y-10302673D01*
X11602426Y-10550690D01*
X11602428Y-10550694D01*
X11729280Y-10783005D01*
X11729285Y-10783013D01*
X11887906Y-10994907D01*
X11887922Y-10994925D01*
X12075074Y-11182077D01*
X12075092Y-11182093D01*
X12286986Y-11340714D01*
X12286994Y-11340719D01*
X12519305Y-11467571D01*
X12519309Y-11467573D01*
X12519311Y-11467574D01*
X12767322Y-11560077D01*
X12767325Y-11560077D01*
X12767326Y-11560078D01*
X12962552Y-11602546D01*
X13025974Y-11616343D01*
X13269660Y-11633772D01*
X13289999Y-11635227D01*
X13290000Y-11635227D01*
X13290001Y-11635227D01*
X13308885Y-11633876D01*
X13554026Y-11616343D01*
X13812678Y-11560077D01*
X14060689Y-11467574D01*
X14293011Y-11340716D01*
X14373807Y-11280232D01*
X14439271Y-11255816D01*
X14448117Y-11255500D01*
X17659868Y-11255500D01*
X17690639Y-11252614D01*
X17690641Y-11252614D01*
X17755442Y-11229938D01*
X17820245Y-11207263D01*
X17930725Y-11125725D01*
X18012263Y-11015245D01*
X18046402Y-10917681D01*
X18057614Y-10885641D01*
X18057614Y-10885639D01*
X18060500Y-10854867D01*
X18060500Y-10704834D01*
X18080185Y-10637795D01*
X18132989Y-10592040D01*
X18202147Y-10582096D01*
X18265703Y-10611121D01*
X18272181Y-10617153D01*
X20491181Y-12836153D01*
X20524666Y-12897476D01*
X20527500Y-12923834D01*
X20527500Y-14712765D01*
X20507815Y-14779804D01*
X20491181Y-14800446D01*
X20303146Y-14988481D01*
X20241823Y-15021966D01*
X20215465Y-15024800D01*
X18720800Y-15024800D01*
X18653761Y-15005115D01*
X18608006Y-14952311D01*
X18596800Y-14900800D01*
X18596800Y-14524800D01*
X19096800Y-14524800D01*
X20169095Y-14524800D01*
X20169095Y-14524798D01*
X20168900Y-14522313D01*
X20123081Y-14364601D01*
X20039485Y-14223247D01*
X20039478Y-14223238D01*
X19923361Y-14107121D01*
X19923352Y-14107114D01*
X19781996Y-14023517D01*
X19781993Y-14023516D01*
X19624295Y-13977700D01*
X19624289Y-13977699D01*
X19587449Y-13974800D01*
X19096800Y-13974800D01*
X19096800Y-14524800D01*
X18596800Y-14524800D01*
X18596800Y-14170159D01*
X18616485Y-14103120D01*
X18627077Y-14088968D01*
X18713377Y-13989373D01*
X18773165Y-13858457D01*
X18793647Y-13716000D01*
X18773165Y-13573543D01*
X18713377Y-13442627D01*
X18619128Y-13333857D01*
X18498053Y-13256047D01*
X18498051Y-13256046D01*
X18498049Y-13256045D01*
X18498050Y-13256045D01*
X18359963Y-13215500D01*
X18359961Y-13215500D01*
X18216039Y-13215500D01*
X18216036Y-13215500D01*
X18077949Y-13256045D01*
X18069882Y-13259730D01*
X18068316Y-13256302D01*
X18018287Y-13271000D01*
X17366100Y-13271000D01*
X17366100Y-13995999D01*
X17386883Y-14016782D01*
X17420368Y-14078105D01*
X17415384Y-14147797D01*
X17386883Y-14192144D01*
X15871048Y-15707981D01*
X15809725Y-15741466D01*
X15783367Y-15744300D01*
X14664797Y-15744300D01*
X14597758Y-15724615D01*
X14563877Y-15692350D01*
X14560994Y-15688312D01*
X14478285Y-15605603D01*
X14373191Y-15554226D01*
X14305061Y-15544300D01*
X14305060Y-15544300D01*
X12888540Y-15544300D01*
X12888539Y-15544300D01*
X12820408Y-15554226D01*
X12715314Y-15605603D01*
X12632603Y-15688314D01*
X12581226Y-15793408D01*
X12571300Y-15861539D01*
X12571300Y-16228060D01*
X12581226Y-16296191D01*
X12632603Y-16401285D01*
X12715314Y-16483996D01*
X12715315Y-16483996D01*
X12715317Y-16483998D01*
X12820407Y-16535373D01*
X12854473Y-16540336D01*
X12888539Y-16545300D01*
X12888540Y-16545300D01*
X14305061Y-16545300D01*
X14327771Y-16541991D01*
X14373193Y-16535373D01*
X14478283Y-16483998D01*
X14560998Y-16401283D01*
X14561000Y-16401277D01*
X14563877Y-16397250D01*
X14618851Y-16354126D01*
X14664797Y-16345300D01*
X15998760Y-16345300D01*
X15998762Y-16345300D01*
X16075189Y-16324821D01*
X16143711Y-16285260D01*
X16199660Y-16229311D01*
X17348747Y-15080223D01*
X17410067Y-15046740D01*
X17479758Y-15051724D01*
X17535692Y-15093595D01*
X17555501Y-15133311D01*
X17570516Y-15184993D01*
X17570517Y-15184996D01*
X17654114Y-15326352D01*
X17654121Y-15326361D01*
X17770238Y-15442478D01*
X17770246Y-15442484D01*
X17857725Y-15494219D01*
X17905408Y-15545288D01*
X17917912Y-15614030D01*
X17891267Y-15678619D01*
X17882727Y-15688140D01*
X17882604Y-15688313D01*
X17831226Y-15793408D01*
X17821300Y-15861539D01*
X17821300Y-16228060D01*
X17831226Y-16296191D01*
X17882603Y-16401285D01*
X17965314Y-16483996D01*
X17965315Y-16483996D01*
X17965317Y-16483998D01*
X18070407Y-16535373D01*
X18104473Y-16540336D01*
X18138539Y-16545300D01*
X18138540Y-16545300D01*
X19555061Y-16545300D01*
X19577771Y-16541991D01*
X19623193Y-16535373D01*
X19728283Y-16483998D01*
X19810998Y-16401283D01*
X19810999Y-16401282D01*
X19866604Y-16287541D01*
X19868448Y-16288442D01*
X19891697Y-16249871D01*
X19912259Y-16229311D01*
X21068460Y-15073110D01*
X21095547Y-15026193D01*
X21108021Y-15004588D01*
X21128500Y-14928161D01*
X21128500Y-12708439D01*
X21108021Y-12632012D01*
X21086326Y-12594435D01*
X21068464Y-12563496D01*
X21068458Y-12563488D01*
X18096819Y-9591849D01*
X18063334Y-9530526D01*
X18060500Y-9504168D01*
X18060500Y-8705132D01*
X18057614Y-8674360D01*
X18057614Y-8674358D01*
X18012263Y-8544756D01*
X18012263Y-8544755D01*
X17930725Y-8434275D01*
X17820245Y-8352737D01*
X17820243Y-8352736D01*
X17690640Y-8307385D01*
X17659868Y-8304500D01*
X17659864Y-8304500D01*
X15459748Y-8304500D01*
X14448117Y-8304500D01*
X14381078Y-8284815D01*
X14373814Y-8279773D01*
X14293011Y-8219284D01*
X14293006Y-8219281D01*
X14293005Y-8219280D01*
X14060694Y-8092428D01*
X14060690Y-8092426D01*
X13812673Y-7999921D01*
X13554034Y-7943658D01*
X13554027Y-7943657D01*
X13290001Y-7924773D01*
X13289999Y-7924773D01*
X13025972Y-7943657D01*
X13025965Y-7943658D01*
X12767326Y-7999921D01*
X12519309Y-8092426D01*
X12519305Y-8092428D01*
X12286994Y-8219280D01*
X12286986Y-8219285D01*
X12075092Y-8377906D01*
X12075074Y-8377922D01*
X11887922Y-8565074D01*
X11887906Y-8565092D01*
X11729285Y-8776986D01*
X11729280Y-8776994D01*
X11602428Y-9009305D01*
X11602426Y-9009309D01*
X11509921Y-9257326D01*
X11453658Y-9515965D01*
X11453657Y-9515972D01*
X11434773Y-9779998D01*
X8167417Y-9779998D01*
X8131293Y-9710283D01*
X7979007Y-9494545D01*
X7512658Y-9960893D01*
X7434136Y-9852816D01*
X7267184Y-9685864D01*
X7159105Y-9607340D01*
X7623341Y-9143104D01*
X7532756Y-9069407D01*
X7281449Y-8916584D01*
X7011677Y-8799406D01*
X6728458Y-8720051D01*
X6728452Y-8720050D01*
X6437065Y-8680000D01*
X6142935Y-8680000D01*
X5851547Y-8720050D01*
X5851541Y-8720051D01*
X5568322Y-8799406D01*
X5298550Y-8916584D01*
X5100621Y-9036948D01*
X5036193Y-9055000D01*
X4990000Y-9055000D01*
X4990000Y-10077360D01*
X4899896Y-10254200D01*
X4826935Y-10478749D01*
X4790000Y-10711947D01*
X-3609500Y-10711947D01*
X-3609500Y-9759681D01*
X1220000Y-9759681D01*
X1220000Y-10580000D01*
X2795000Y-10580000D01*
X3295000Y-10580000D01*
X4490000Y-10580000D01*
X4490000Y-9055000D01*
X3295000Y-9055000D01*
X3295000Y-10580000D01*
X2795000Y-10580000D01*
X2795000Y-9055000D01*
X1924696Y-9055000D01*
X1924680Y-9055001D01*
X1821284Y-9065564D01*
X1653753Y-9121078D01*
X1653748Y-9121080D01*
X1503532Y-9213735D01*
X1378735Y-9338532D01*
X1286080Y-9488748D01*
X1286078Y-9488753D01*
X1230564Y-9656284D01*
X1220000Y-9759681D01*
X-3609500Y-9759681D01*
X-3609500Y-8757374D01*
X-3589815Y-8690335D01*
X-3537011Y-8644580D01*
X-3467853Y-8634636D01*
X-3414376Y-8655800D01*
X-3217585Y-8793595D01*
X-3217579Y-8793599D01*
X-3003492Y-8893429D01*
X-3003483Y-8893433D01*
X-2790000Y-8950633D01*
X-2790000Y-8053012D01*
X-2732993Y-8085925D01*
X-2605826Y-8120000D01*
X-2474174Y-8120000D01*
X-2347007Y-8085925D01*
X-2290000Y-8053012D01*
X-2290000Y-8950634D01*
X-2076516Y-8893433D01*
X-2076507Y-8893429D01*
X-1862421Y-8793600D01*
X-1668917Y-8658105D01*
X-1501894Y-8491082D01*
X-1366399Y-8297578D01*
X-1266570Y-8083492D01*
X-1266567Y-8083486D01*
X-1209364Y-7870000D01*
X-2106988Y-7870000D01*
X-2074075Y-7812993D01*
X-2040000Y-7685826D01*
X-2040000Y-7554174D01*
X-2074075Y-7427007D01*
X-2106988Y-7370000D01*
X-1209364Y-7370000D01*
X-1209364Y-7369999D01*
X-1266567Y-7156513D01*
X-1266570Y-7156507D01*
X-1366399Y-6942422D01*
X-1366400Y-6942420D01*
X-1501886Y-6748926D01*
X-1501891Y-6748920D01*
X-1668917Y-6581894D01*
X-1862421Y-6446399D01*
X-2076507Y-6346570D01*
X-2076514Y-6346567D01*
X-2198650Y-6313841D01*
X-2258310Y-6277476D01*
X-2288839Y-6214629D01*
X-2280544Y-6145253D01*
X-2236059Y-6091375D01*
X-2202553Y-6075406D01*
X-2136046Y-6055232D01*
X-1953550Y-5957685D01*
X-1855594Y-5877295D01*
X-1793589Y-5826410D01*
X-1662317Y-5666452D01*
X-1662315Y-5666450D01*
X-1564768Y-5483954D01*
X-1504700Y-5285934D01*
X-1504699Y-5285932D01*
X-1484417Y-5080000D01*
X-1500322Y-4918510D01*
X6014500Y-4918510D01*
X6014500Y-5241489D01*
X6050659Y-5562410D01*
X6050661Y-5562426D01*
X6122527Y-5877294D01*
X6122531Y-5877306D01*
X6229195Y-6182133D01*
X6229201Y-6182147D01*
X6369327Y-6473122D01*
X6369329Y-6473125D01*
X6541159Y-6746591D01*
X6742527Y-6999099D01*
X6970901Y-7227473D01*
X7223409Y-7428841D01*
X7496875Y-7600671D01*
X7787860Y-7740802D01*
X7787866Y-7740804D01*
X8092693Y-7847468D01*
X8092705Y-7847472D01*
X8407577Y-7919339D01*
X8728511Y-7955499D01*
X8728512Y-7955500D01*
X8728515Y-7955500D01*
X9051488Y-7955500D01*
X9051488Y-7955499D01*
X9372423Y-7919339D01*
X9687295Y-7847472D01*
X9992140Y-7740802D01*
X10283125Y-7600671D01*
X10556591Y-7428841D01*
X10809099Y-7227473D01*
X11037473Y-6999099D01*
X11238841Y-6746591D01*
X11410671Y-6473125D01*
X11550802Y-6182140D01*
X11657472Y-5877295D01*
X11729339Y-5562423D01*
X11765500Y-5241485D01*
X11765500Y-4918515D01*
X11729339Y-4597577D01*
X11657472Y-4282705D01*
X11550802Y-3977860D01*
X11410671Y-3686875D01*
X11238841Y-3413409D01*
X11037473Y-3160901D01*
X10809099Y-2932527D01*
X10556591Y-2731159D01*
X10283125Y-2559329D01*
X10283122Y-2559327D01*
X9992147Y-2419201D01*
X9992133Y-2419195D01*
X9687306Y-2312531D01*
X9687294Y-2312527D01*
X9372426Y-2240661D01*
X9372410Y-2240659D01*
X9051489Y-2204500D01*
X9051485Y-2204500D01*
X8728515Y-2204500D01*
X8728510Y-2204500D01*
X8407589Y-2240659D01*
X8407573Y-2240661D01*
X8092705Y-2312527D01*
X8092693Y-2312531D01*
X7787866Y-2419195D01*
X7787852Y-2419201D01*
X7496877Y-2559327D01*
X7223410Y-2731158D01*
X6970901Y-2932526D01*
X6742526Y-3160901D01*
X6541158Y-3413410D01*
X6369327Y-3686877D01*
X6229201Y-3977852D01*
X6229195Y-3977866D01*
X6122531Y-4282693D01*
X6122527Y-4282705D01*
X6050661Y-4597573D01*
X6050659Y-4597589D01*
X6014500Y-4918510D01*
X-1500322Y-4918510D01*
X-1504699Y-4874067D01*
X-1564769Y-4676043D01*
X-1662317Y-4493547D01*
X-1793589Y-4333589D01*
X-1953547Y-4202317D01*
X-1953548Y-4202316D01*
X-1953550Y-4202315D01*
X-2025898Y-4163643D01*
X-2136043Y-4104769D01*
X-2334069Y-4044699D01*
X-2334065Y-4044699D01*
X-2540000Y-4024417D01*
X-2745932Y-4044699D01*
X-2844944Y-4074734D01*
X-2943954Y-4104768D01*
X-3126450Y-4202315D01*
X-3126452Y-4202317D01*
X-3286410Y-4333590D01*
X-3389647Y-4459384D01*
X-3447392Y-4498718D01*
X-3517237Y-4500589D01*
X-3577005Y-4464402D01*
X-3607721Y-4401646D01*
X-3609500Y-4380719D01*
X-3609500Y-3239280D01*
X-3589815Y-3172241D01*
X-3537011Y-3126486D01*
X-3467853Y-3116542D01*
X-3404297Y-3145567D01*
X-3389645Y-3160616D01*
X-3286410Y-3286410D01*
X-3126450Y-3417685D01*
X-2943954Y-3515232D01*
X-2745934Y-3575300D01*
X-2540000Y-3595583D01*
X-2334066Y-3575300D01*
X-2136046Y-3515232D01*
X-1953550Y-3417685D01*
X-1890209Y-3365702D01*
X-1793589Y-3286410D01*
X-1662317Y-3126452D01*
X-1662315Y-3126450D01*
X-1564768Y-2943954D01*
X-1504700Y-2745934D01*
X-1504699Y-2745932D01*
X-1484417Y-2540000D01*
X-1504699Y-2334067D01*
X-1564769Y-2136043D01*
X-1662317Y-1953547D01*
X-1793589Y-1793589D01*
X-1953547Y-1662317D01*
X-1953548Y-1662316D01*
X-1953550Y-1662315D01*
X-2025898Y-1623643D01*
X-2136043Y-1564769D01*
X-2334069Y-1504699D01*
X-2334065Y-1504699D01*
X-2540000Y-1484417D01*
X-2745932Y-1504699D01*
X-2844944Y-1534734D01*
X-2943954Y-1564768D01*
X-3126450Y-1662315D01*
X-3286409Y-1793589D01*
X-3286410Y-1793590D01*
X-3389647Y-1919384D01*
X-3447392Y-1958718D01*
X-3517237Y-1960589D01*
X-3577005Y-1924402D01*
X-3607721Y-1861646D01*
X-3609500Y-1840719D01*
X-3609500Y-1161861D01*
X-3589815Y-1094822D01*
X-3537011Y-1049067D01*
X-3467853Y-1039123D01*
X-3461308Y-1040244D01*
X-3409749Y-1050500D01*
X-3409748Y-1050500D01*
X-1670250Y-1050500D01*
X-1670247Y-1050499D01*
X-1611770Y-1038868D01*
X-1611769Y-1038867D01*
X-1545447Y-994552D01*
X-1501132Y-928230D01*
X-1501131Y-928229D01*
X-1500250Y-923800D01*
X5052358Y-923800D01*
X5055572Y-931560D01*
X5055572Y-931561D01*
X5107492Y-998396D01*
X5107503Y-998409D01*
X5575390Y-1466296D01*
X5575403Y-1466307D01*
X5642241Y-1518229D01*
X5775075Y-1573250D01*
X5859058Y-1583799D01*
X5859065Y-1583800D01*
X5915000Y-1583800D01*
X5915000Y-923800D01*
X5052358Y-923800D01*
X-1500250Y-923800D01*
X-1489500Y-869752D01*
X-1489500Y0D01*
X2288353Y0D01*
X2308834Y-142456D01*
X2332312Y-193864D01*
X2368623Y-273373D01*
X2462872Y-382143D01*
X2583947Y-459953D01*
X2583950Y-459954D01*
X2583949Y-459954D01*
X2691107Y-491417D01*
X2719280Y-499690D01*
X2722036Y-500499D01*
X2722038Y-500500D01*
X2722039Y-500500D01*
X2865962Y-500500D01*
X2865962Y-500499D01*
X3004053Y-459953D01*
X3125128Y-382143D01*
X3219377Y-273373D01*
X3279165Y-142457D01*
X3299647Y0D01*
X3298339Y9092D01*
X3308278Y78247D01*
X3333395Y114424D01*
X3708352Y489381D01*
X3769675Y522866D01*
X3796033Y525700D01*
X5172086Y525700D01*
X5239125Y506015D01*
X5284880Y453211D01*
X5291737Y434253D01*
X5292241Y432397D01*
X5339543Y325273D01*
X5335632Y323546D01*
X5350131Y277607D01*
X5331797Y210186D01*
X5284848Y167823D01*
X5285531Y166642D01*
X5279999Y163448D01*
X5279923Y163379D01*
X5279731Y163293D01*
X5278492Y162578D01*
X5156913Y69286D01*
X5063621Y-52292D01*
X5063621Y-52293D01*
X5004981Y-193864D01*
X5004979Y-193869D01*
X4990000Y-307653D01*
X4990000Y-423800D01*
X6291000Y-423800D01*
X6358039Y-443485D01*
X6403794Y-496289D01*
X6415000Y-547800D01*
X6415000Y-1583800D01*
X6796147Y-1583800D01*
X6909930Y-1568820D01*
X6909931Y-1568819D01*
X6974177Y-1542208D01*
X7043646Y-1534739D01*
X7105725Y-1565642D01*
X7170849Y-1625742D01*
X7299445Y-1701597D01*
X7441137Y-1748644D01*
X7441138Y-1748644D01*
X7441140Y-1748645D01*
X7589569Y-1764770D01*
X7738062Y-1749248D01*
X7879948Y-1702777D01*
X7899111Y-1691613D01*
X7899744Y-1691325D01*
X7909992Y-1685337D01*
X7909994Y-1685337D01*
X7939723Y-1667967D01*
X7949358Y-1662894D01*
X7982214Y-1647402D01*
X8002687Y-1639872D01*
X8032436Y-1631820D01*
X8053919Y-1627995D01*
X8090372Y-1624778D01*
X8101257Y-1624299D01*
X8135411Y-1624303D01*
X8135413Y-1624301D01*
X8147206Y-1624303D01*
X8147259Y-1624299D01*
X9678953Y-1624299D01*
X9689877Y-1624781D01*
X9700347Y-1625707D01*
X9726041Y-1627980D01*
X9747519Y-1631807D01*
X9777268Y-1639865D01*
X9797746Y-1647402D01*
X9830858Y-1663022D01*
X9840508Y-1668105D01*
X9869972Y-1685325D01*
X9869973Y-1685325D01*
X9879890Y-1691121D01*
X9880967Y-1691614D01*
X9900068Y-1702740D01*
X10041945Y-1749208D01*
X10041944Y-1749208D01*
X10064557Y-1751571D01*
X10190429Y-1764730D01*
X10338850Y-1748606D01*
X10480537Y-1701562D01*
X10609127Y-1625710D01*
X10718840Y-1524460D01*
X10804748Y-1402360D01*
X10824403Y-1355970D01*
X10868680Y-1301924D01*
X10935149Y-1280393D01*
X10952870Y-1281172D01*
X10956199Y-1281558D01*
X10956201Y-1281559D01*
X10979826Y-1284300D01*
X10979827Y-1284300D01*
X12250173Y-1284300D01*
X12250174Y-1284300D01*
X12273799Y-1281559D01*
X12370416Y-1238898D01*
X12445098Y-1164216D01*
X12461745Y-1126513D01*
X12487758Y-1067602D01*
X12488263Y-1065747D01*
X12489378Y-1063932D01*
X12491527Y-1059067D01*
X12492190Y-1059359D01*
X12524857Y-1006227D01*
X12587820Y-975939D01*
X12607914Y-974300D01*
X14478760Y-974300D01*
X14478762Y-974300D01*
X14555189Y-953821D01*
X14623711Y-914260D01*
X14679660Y-858311D01*
X15001151Y-536818D01*
X15062474Y-503334D01*
X15088832Y-500500D01*
X15184962Y-500500D01*
X15184962Y-500499D01*
X15323053Y-459953D01*
X15444128Y-382143D01*
X15538377Y-273373D01*
X15598165Y-142457D01*
X15618647Y0D01*
X15598165Y142457D01*
X15538377Y273373D01*
X15444128Y382143D01*
X15323053Y459953D01*
X15184962Y500499D01*
X15184962Y500500D01*
X15184961Y500500D01*
X15041039Y500500D01*
X15041038Y500500D01*
X15041036Y500499D01*
X15010107Y491417D01*
X14902949Y459954D01*
X14902947Y459953D01*
X14781872Y382143D01*
X14731098Y323546D01*
X14687623Y273373D01*
X14687622Y273371D01*
X14627834Y142456D01*
X14607353Y0D01*
X14607353Y-1D01*
X14608661Y-9103D01*
X14598713Y-78261D01*
X14573603Y-114424D01*
X14351046Y-336982D01*
X14289726Y-370466D01*
X14263367Y-373300D01*
X12607914Y-373300D01*
X12540875Y-353615D01*
X12495120Y-300811D01*
X12488263Y-281853D01*
X12487758Y-279997D01*
X12445100Y-183388D01*
X12445099Y-183387D01*
X12445098Y-183384D01*
X12370416Y-108702D01*
X12370413Y-108701D01*
X12370411Y-108699D01*
X12273801Y-66041D01*
X12273802Y-66041D01*
X12250175Y-63300D01*
X12250174Y-63300D01*
X10979826Y-63300D01*
X10979824Y-63300D01*
X10956197Y-66041D01*
X10947198Y-68490D01*
X10946177Y-64740D01*
X10895372Y-71420D01*
X10832171Y-41630D01*
X10795109Y17600D01*
X10790499Y51096D01*
X10790499Y101303D01*
X10810184Y168342D01*
X10862988Y214097D01*
X10932146Y224041D01*
X10946914Y219846D01*
X10947198Y220890D01*
X10956197Y218441D01*
X10979824Y215700D01*
X10979826Y215700D01*
X12250175Y215700D01*
X12273801Y218441D01*
X12370411Y261099D01*
X12370413Y261100D01*
X12370416Y261102D01*
X12444696Y335382D01*
X12506020Y368866D01*
X12532377Y371700D01*
X12853155Y371700D01*
X12920194Y352015D01*
X12997944Y302047D01*
X12997949Y302045D01*
X13136036Y261500D01*
X13136039Y261500D01*
X13279963Y261500D01*
X13418050Y302045D01*
X13495805Y352015D01*
X13539128Y379857D01*
X13633377Y488627D01*
X13693165Y619543D01*
X13713647Y762000D01*
X13693165Y904457D01*
X13633377Y1035373D01*
X13539128Y1144143D01*
X13418053Y1221953D01*
X13279961Y1262500D01*
X13279956Y1262500D01*
X13271184Y1263762D01*
X13271316Y1264681D01*
X13255795Y1266725D01*
X13247692Y1268896D01*
X13203636Y1280701D01*
X13083964Y1280701D01*
X13076368Y1280701D01*
X13076352Y1280700D01*
X12532377Y1280700D01*
X12465338Y1300385D01*
X12444696Y1317018D01*
X12370416Y1391298D01*
X12273801Y1433958D01*
X12273799Y1433959D01*
X12250174Y1436700D01*
X10979826Y1436700D01*
X10956201Y1433959D01*
X10956199Y1433958D01*
X10952913Y1433577D01*
X10884051Y1445404D01*
X10832515Y1492582D01*
X10824445Y1508377D01*
X10804787Y1554774D01*
X10804786Y1554774D01*
X10804784Y1554781D01*
X10718871Y1676888D01*
X10609152Y1778144D01*
X10480556Y1853999D01*
X10338863Y1901046D01*
X10338862Y1901046D01*
X10338860Y1901047D01*
X10190431Y1917172D01*
X10041938Y1901650D01*
X9935057Y1866644D01*
X9900052Y1855179D01*
X9880721Y1843920D01*
X9880088Y1843629D01*
X9870006Y1837739D01*
X9870005Y1837739D01*
X9840295Y1820381D01*
X9830629Y1815292D01*
X9797794Y1799809D01*
X9777307Y1792272D01*
X9747563Y1784222D01*
X9726080Y1780397D01*
X9689630Y1777180D01*
X9678741Y1776701D01*
X9644590Y1776705D01*
X9644587Y1776703D01*
X9632351Y1776705D01*
X9632291Y1776700D01*
X8147258Y1776700D01*
X8147205Y1776704D01*
X8135412Y1776702D01*
X8135410Y1776704D01*
X8100986Y1776700D01*
X8090096Y1777179D01*
X8053913Y1780373D01*
X8032431Y1784198D01*
X8002678Y1792251D01*
X7982203Y1799782D01*
X7949837Y1815043D01*
X7939738Y1820386D01*
X7901770Y1842772D01*
X7900967Y1843138D01*
X7900030Y1843560D01*
X7899976Y1843591D01*
X7898951Y1844059D01*
X7879930Y1855139D01*
X7738053Y1901608D01*
X7589569Y1917129D01*
X7441150Y1901005D01*
X7441147Y1901004D01*
X7441146Y1901004D01*
X7299465Y1853961D01*
X7299463Y1853960D01*
X7271962Y1837738D01*
X7170872Y1778109D01*
X7061191Y1676888D01*
X7061161Y1676860D01*
X6975254Y1554761D01*
X6975254Y1554760D01*
X6975251Y1554755D01*
X6955597Y1508369D01*
X6911318Y1454322D01*
X6844848Y1432793D01*
X6827130Y1433572D01*
X6823800Y1433958D01*
X6823799Y1433959D01*
X6800174Y1436700D01*
X5529826Y1436700D01*
X5506201Y1433959D01*
X5506198Y1433958D01*
X5409588Y1391300D01*
X5409587Y1391299D01*
X5409584Y1391298D01*
X5334902Y1316616D01*
X5334901Y1316613D01*
X5334899Y1316611D01*
X5292241Y1220002D01*
X5291737Y1218147D01*
X5290621Y1216332D01*
X5288473Y1211467D01*
X5287809Y1211759D01*
X5255143Y1158627D01*
X5192180Y1128339D01*
X5172086Y1126700D01*
X3580638Y1126700D01*
X3504211Y1106221D01*
X3463776Y1082876D01*
X3435689Y1066660D01*
X2905848Y536819D01*
X2844525Y503334D01*
X2818167Y500500D01*
X2722038Y500500D01*
X2722036Y500499D01*
X2691107Y491417D01*
X2583949Y459954D01*
X2583947Y459953D01*
X2462872Y382143D01*
X2412098Y323546D01*
X2368623Y273373D01*
X2368622Y273371D01*
X2308834Y142456D01*
X2288353Y0D01*
X-1489500Y0D01*
X-1489500Y869752D01*
X-1501131Y928229D01*
X-1501132Y928230D01*
X-1545447Y994552D01*
X-1611769Y1038867D01*
X-1611770Y1038868D01*
X-1670247Y1050499D01*
X-1670249Y1050500D01*
X-1670252Y1050500D01*
X-3409748Y1050500D01*
X-3409750Y1050500D01*
X-3461308Y1040244D01*
X-3530899Y1046471D01*
X-3586077Y1089333D01*
X-3609322Y1155223D01*
X-3609500Y1161861D01*
X-3609500Y4755500D01*
X-3589815Y4822539D01*
X-3537011Y4868294D01*
X-3485500Y4879500D01*
X21265500Y4879500D01*
X21332539Y4859815D01*
G37*
G04 #@! TD.AperFunction*
M02*
