G04 #@! TF.GenerationSoftware,KiCad,Pcbnew,8.0.5+dfsg-1*
G04 #@! TF.CreationDate,2024-10-30T23:38:13+01:00*
G04 #@! TF.ProjectId,raddr,72616464-722e-46b6-9963-61645f706362,rev?*
G04 #@! TF.SameCoordinates,Original*
G04 #@! TF.FileFunction,Legend,Top*
G04 #@! TF.FilePolarity,Positive*
%FSLAX46Y46*%
G04 Gerber Fmt 4.6, Leading zero omitted, Abs format (unit mm)*
G04 Created by KiCad (PCBNEW 8.0.5+dfsg-1) date 2024-10-30 23:38:13*
%MOMM*%
%LPD*%
G01*
G04 APERTURE LIST*
G04 Aperture macros list*
%AMRoundRect*
0 Rectangle with rounded corners*
0 $1 Rounding radius*
0 $2 $3 $4 $5 $6 $7 $8 $9 X,Y pos of 4 corners*
0 Add a 4 corners polygon primitive as box body*
4,1,4,$2,$3,$4,$5,$6,$7,$8,$9,$2,$3,0*
0 Add four circle primitives for the rounded corners*
1,1,$1+$1,$2,$3*
1,1,$1+$1,$4,$5*
1,1,$1+$1,$6,$7*
1,1,$1+$1,$8,$9*
0 Add four rect primitives between the rounded corners*
20,1,$1+$1,$2,$3,$4,$5,0*
20,1,$1+$1,$4,$5,$6,$7,0*
20,1,$1+$1,$6,$7,$8,$9,0*
20,1,$1+$1,$8,$9,$2,$3,0*%
%AMFreePoly0*
4,1,18,-0.410000,0.265000,0.000000,0.675000,0.328000,0.675000,0.359380,0.668758,0.385983,0.650983,0.403758,0.624380,0.410000,0.593000,0.410000,-0.593000,0.403758,-0.624380,0.385983,-0.650983,0.359380,-0.668758,0.328000,-0.675000,-0.328000,-0.675000,-0.359380,-0.668758,-0.385983,-0.650983,-0.403758,-0.624380,-0.410000,-0.593000,-0.410000,0.265000,-0.410000,0.265000,$1*%
G04 Aperture macros list end*
%ADD10C,0.200000*%
%ADD11C,0.150000*%
%ADD12C,0.120000*%
%ADD13RoundRect,0.082000X0.593000X-0.328000X0.593000X0.328000X-0.593000X0.328000X-0.593000X-0.328000X0*%
%ADD14FreePoly0,90.000000*%
%ADD15RoundRect,0.150000X-0.675000X-0.150000X0.675000X-0.150000X0.675000X0.150000X-0.675000X0.150000X0*%
%ADD16R,1.700000X1.700000*%
%ADD17O,1.700000X1.700000*%
%ADD18C,5.250000*%
%ADD19C,3.300000*%
%ADD20RoundRect,0.255000X-1.070000X-1.020000X1.070000X-1.020000X1.070000X1.020000X-1.070000X1.020000X0*%
%ADD21RoundRect,0.237500X-0.300000X-0.237500X0.300000X-0.237500X0.300000X0.237500X-0.300000X0.237500X0*%
G04 APERTURE END LIST*
D10*
G36*
X102218Y-14758630D02*
G01*
X173127Y-14794084D01*
X240197Y-14861154D01*
X275219Y-14966219D01*
X275219Y-15088088D01*
X-524780Y-15088088D01*
X-524780Y-14966220D01*
X-489758Y-14861155D01*
X-422686Y-14794083D01*
X-351780Y-14758630D01*
X-183900Y-14716660D01*
X-65662Y-14716660D01*
X102218Y-14758630D01*
G37*
G36*
X586330Y-17542056D02*
G01*
X-835891Y-17542056D01*
X-835891Y-16902374D01*
X-724780Y-16902374D01*
X-724780Y-17140469D01*
X-722859Y-17159978D01*
X-721483Y-17163298D01*
X-721229Y-17166882D01*
X-714223Y-17185190D01*
X-666604Y-17280428D01*
X-661318Y-17288824D01*
X-660308Y-17291264D01*
X-658054Y-17294010D01*
X-656161Y-17297018D01*
X-654166Y-17298747D01*
X-647872Y-17306418D01*
X-600253Y-17354036D01*
X-592586Y-17360328D01*
X-590854Y-17362326D01*
X-587845Y-17364219D01*
X-585100Y-17366473D01*
X-582659Y-17367483D01*
X-574263Y-17372769D01*
X-479026Y-17420388D01*
X-460717Y-17427394D01*
X-457133Y-17427648D01*
X-453813Y-17429024D01*
X-434304Y-17430945D01*
X-339066Y-17430945D01*
X-319557Y-17429024D01*
X-316236Y-17427648D01*
X-312653Y-17427394D01*
X-294345Y-17420388D01*
X-199107Y-17372769D01*
X-190710Y-17367483D01*
X-188271Y-17366473D01*
X-185524Y-17364219D01*
X-182517Y-17362326D01*
X-180787Y-17360331D01*
X-173117Y-17354037D01*
X-125499Y-17306418D01*
X-119206Y-17298751D01*
X-117209Y-17297019D01*
X-115315Y-17294010D01*
X-113062Y-17291265D01*
X-112051Y-17288824D01*
X-106766Y-17280428D01*
X-59147Y-17185191D01*
X-58600Y-17183762D01*
X-58171Y-17183183D01*
X-55249Y-17175006D01*
X-52141Y-17166882D01*
X-52089Y-17166161D01*
X-51576Y-17164723D01*
X-6619Y-16984897D01*
X28834Y-16913990D01*
X53501Y-16889322D01*
X113111Y-16859517D01*
X161135Y-16859517D01*
X220746Y-16889323D01*
X245414Y-16913990D01*
X275219Y-16973600D01*
X275219Y-17171861D01*
X232732Y-17299322D01*
X228385Y-17318438D01*
X231151Y-17357358D01*
X248601Y-17392257D01*
X278077Y-17417822D01*
X315093Y-17430160D01*
X354013Y-17427394D01*
X388912Y-17409944D01*
X414477Y-17380468D01*
X422468Y-17362568D01*
X470087Y-17219711D01*
X472286Y-17210038D01*
X473298Y-17207597D01*
X473646Y-17204059D01*
X474434Y-17200596D01*
X474246Y-17197961D01*
X475219Y-17188088D01*
X475219Y-16949993D01*
X473298Y-16930484D01*
X471922Y-16927163D01*
X471668Y-16923580D01*
X464662Y-16905271D01*
X417043Y-16810034D01*
X411757Y-16801637D01*
X410747Y-16799197D01*
X408493Y-16796451D01*
X406600Y-16793443D01*
X404603Y-16791711D01*
X398310Y-16784043D01*
X350690Y-16736425D01*
X343020Y-16730130D01*
X341291Y-16728136D01*
X338286Y-16726244D01*
X335537Y-16723988D01*
X333093Y-16722976D01*
X324701Y-16717693D01*
X229463Y-16670074D01*
X211155Y-16663068D01*
X207571Y-16662813D01*
X204251Y-16661438D01*
X184742Y-16659517D01*
X89504Y-16659517D01*
X69995Y-16661438D01*
X66675Y-16662813D01*
X63090Y-16663068D01*
X44782Y-16670075D01*
X-50455Y-16717693D01*
X-58852Y-16722978D01*
X-61291Y-16723989D01*
X-64035Y-16726241D01*
X-67045Y-16728136D01*
X-68777Y-16730133D01*
X-76444Y-16736426D01*
X-124063Y-16784044D01*
X-130357Y-16791714D01*
X-132352Y-16793444D01*
X-134245Y-16796451D01*
X-136499Y-16799198D01*
X-137509Y-16801637D01*
X-142795Y-16810034D01*
X-190414Y-16905272D01*
X-190959Y-16906698D01*
X-191390Y-16907279D01*
X-194311Y-16915455D01*
X-197420Y-16923580D01*
X-197471Y-16924302D01*
X-197985Y-16925740D01*
X-242941Y-17105564D01*
X-278394Y-17176471D01*
X-303063Y-17201139D01*
X-362673Y-17230945D01*
X-410697Y-17230945D01*
X-470306Y-17201140D01*
X-494974Y-17176471D01*
X-524780Y-17116861D01*
X-524780Y-16918601D01*
X-482293Y-16791140D01*
X-477946Y-16772025D01*
X-480712Y-16733105D01*
X-498162Y-16698206D01*
X-527638Y-16672641D01*
X-564654Y-16660302D01*
X-603574Y-16663069D01*
X-638473Y-16680518D01*
X-664038Y-16709994D01*
X-672029Y-16727895D01*
X-719648Y-16870751D01*
X-721847Y-16880422D01*
X-722859Y-16882865D01*
X-723207Y-16886403D01*
X-723995Y-16889867D01*
X-723807Y-16892500D01*
X-724780Y-16902374D01*
X-835891Y-16902374D01*
X-835891Y-15565302D01*
X-724711Y-15565302D01*
X-718534Y-15603829D01*
X-698085Y-15637059D01*
X-666476Y-15659934D01*
X-647942Y-15666322D01*
X-33469Y-15812625D01*
X-364832Y-15900989D01*
X-369399Y-15902701D01*
X-371323Y-15902957D01*
X-373604Y-15904278D01*
X-383188Y-15907871D01*
X-393671Y-15915895D01*
X-405091Y-15922507D01*
X-409027Y-15927650D01*
X-414171Y-15931587D01*
X-420782Y-15943006D01*
X-428807Y-15953490D01*
X-430476Y-15959750D01*
X-433721Y-15965355D01*
X-435459Y-15978437D01*
X-438860Y-15991191D01*
X-438006Y-15997612D01*
X-438860Y-16004033D01*
X-435459Y-16016786D01*
X-433721Y-16029869D01*
X-430476Y-16035473D01*
X-428807Y-16041734D01*
X-420782Y-16052217D01*
X-414171Y-16063637D01*
X-409027Y-16067573D01*
X-405091Y-16072717D01*
X-393671Y-16079328D01*
X-383188Y-16087353D01*
X-373604Y-16090945D01*
X-371323Y-16092267D01*
X-369399Y-16092522D01*
X-364832Y-16094235D01*
X-33469Y-16182598D01*
X-647942Y-16328902D01*
X-666476Y-16335290D01*
X-698085Y-16358165D01*
X-718534Y-16391395D01*
X-724711Y-16429922D01*
X-715673Y-16467879D01*
X-692798Y-16499488D01*
X-659568Y-16519937D01*
X-621041Y-16526114D01*
X-601618Y-16523464D01*
X398381Y-16285369D01*
X405073Y-16283062D01*
X407477Y-16282743D01*
X409649Y-16281485D01*
X416915Y-16278981D01*
X428677Y-16270468D01*
X441244Y-16263193D01*
X444364Y-16259115D01*
X448524Y-16256106D01*
X456131Y-16243743D01*
X464960Y-16232210D01*
X466283Y-16227246D01*
X468973Y-16222876D01*
X471271Y-16208541D01*
X475013Y-16194509D01*
X474336Y-16189420D01*
X475150Y-16184349D01*
X471785Y-16170220D01*
X469874Y-16155831D01*
X467301Y-16151387D01*
X466112Y-16146392D01*
X457596Y-16134625D01*
X450324Y-16122064D01*
X446248Y-16118944D01*
X443237Y-16114783D01*
X430872Y-16107174D01*
X419341Y-16098347D01*
X412141Y-16095647D01*
X410007Y-16094334D01*
X407615Y-16093950D01*
X400986Y-16091465D01*
X49036Y-15997612D01*
X400986Y-15903759D01*
X407615Y-15901273D01*
X410007Y-15900890D01*
X412141Y-15899576D01*
X419341Y-15896877D01*
X430872Y-15888049D01*
X443237Y-15880441D01*
X446248Y-15876279D01*
X450324Y-15873160D01*
X457596Y-15860598D01*
X466112Y-15848832D01*
X467301Y-15843836D01*
X469874Y-15839393D01*
X471785Y-15825003D01*
X475150Y-15810875D01*
X474336Y-15805803D01*
X475013Y-15800715D01*
X471271Y-15786682D01*
X468973Y-15772348D01*
X466283Y-15767977D01*
X464960Y-15763014D01*
X456131Y-15751480D01*
X448524Y-15739118D01*
X444364Y-15736108D01*
X441244Y-15732031D01*
X428677Y-15724755D01*
X416915Y-15716243D01*
X409649Y-15713738D01*
X407477Y-15712481D01*
X405073Y-15712161D01*
X398381Y-15709855D01*
X-601618Y-15471760D01*
X-621041Y-15469110D01*
X-659568Y-15475287D01*
X-692798Y-15495736D01*
X-715673Y-15527345D01*
X-724711Y-15565302D01*
X-835891Y-15565302D01*
X-835891Y-14949993D01*
X-724780Y-14949993D01*
X-724780Y-15188088D01*
X-722859Y-15207597D01*
X-707927Y-15243645D01*
X-680337Y-15271235D01*
X-644289Y-15286167D01*
X-624780Y-15288088D01*
X375219Y-15288088D01*
X394728Y-15286167D01*
X430776Y-15271235D01*
X458366Y-15243645D01*
X473298Y-15207597D01*
X475219Y-15188088D01*
X475219Y-14949993D01*
X474246Y-14940119D01*
X474434Y-14937485D01*
X473646Y-14934021D01*
X473298Y-14930484D01*
X472286Y-14928042D01*
X470087Y-14918370D01*
X422468Y-14775513D01*
X414477Y-14757613D01*
X412122Y-14754897D01*
X410747Y-14751578D01*
X398311Y-14736425D01*
X303071Y-14641187D01*
X295401Y-14634892D01*
X293672Y-14632898D01*
X290667Y-14631006D01*
X287918Y-14628750D01*
X285474Y-14627737D01*
X277082Y-14622455D01*
X181844Y-14574836D01*
X180417Y-14574290D01*
X179837Y-14573860D01*
X171660Y-14570938D01*
X163536Y-14567830D01*
X162813Y-14567778D01*
X161376Y-14567265D01*
X-29098Y-14519646D01*
X-32479Y-14519145D01*
X-33843Y-14518581D01*
X-41193Y-14517857D01*
X-48491Y-14516778D01*
X-49949Y-14516995D01*
X-53352Y-14516660D01*
X-196209Y-14516660D01*
X-199611Y-14516995D01*
X-201070Y-14516778D01*
X-208367Y-14517857D01*
X-215718Y-14518581D01*
X-217081Y-14519145D01*
X-220463Y-14519646D01*
X-410939Y-14567265D01*
X-412377Y-14567778D01*
X-413098Y-14567830D01*
X-421222Y-14570938D01*
X-429399Y-14573860D01*
X-429978Y-14574289D01*
X-431407Y-14574836D01*
X-526644Y-14622455D01*
X-535042Y-14627741D01*
X-537480Y-14628751D01*
X-540223Y-14631002D01*
X-543235Y-14632898D01*
X-544967Y-14634895D01*
X-552634Y-14641187D01*
X-647872Y-14736425D01*
X-660308Y-14751579D01*
X-661682Y-14754897D01*
X-664038Y-14757613D01*
X-672029Y-14775514D01*
X-719648Y-14918370D01*
X-721847Y-14928041D01*
X-722859Y-14930484D01*
X-723207Y-14934022D01*
X-723995Y-14937486D01*
X-723807Y-14940119D01*
X-724780Y-14949993D01*
X-835891Y-14949993D01*
X-835891Y-14405549D01*
X586330Y-14405549D01*
X586330Y-17542056D01*
G37*
G36*
X19078330Y-3126330D02*
G01*
X16227562Y-3126330D01*
X16227562Y-1915219D01*
X16338673Y-1915219D01*
X16338673Y-2915219D01*
X16340594Y-2934728D01*
X16355526Y-2970776D01*
X16383116Y-2998366D01*
X16419164Y-3013298D01*
X16458182Y-3013298D01*
X16494230Y-2998366D01*
X16521820Y-2970776D01*
X16536752Y-2934728D01*
X16538673Y-2915219D01*
X16538673Y-2528069D01*
X16570710Y-2496031D01*
X16930101Y-2975219D01*
X16943343Y-2989674D01*
X16976918Y-3009553D01*
X17015544Y-3015071D01*
X17053341Y-3005388D01*
X17084556Y-2981977D01*
X17104435Y-2948403D01*
X17109953Y-2909777D01*
X17100270Y-2871979D01*
X17090101Y-2855219D01*
X16713567Y-2353174D01*
X17080812Y-1985930D01*
X17093248Y-1970777D01*
X17108179Y-1934728D01*
X17108179Y-1915219D01*
X17338673Y-1915219D01*
X17338673Y-2915219D01*
X17340594Y-2934728D01*
X17355526Y-2970776D01*
X17383116Y-2998366D01*
X17419164Y-3013298D01*
X17438673Y-3015219D01*
X17914863Y-3015219D01*
X17934372Y-3013298D01*
X17970420Y-2998366D01*
X17998010Y-2970776D01*
X18012942Y-2934728D01*
X18012942Y-2895710D01*
X17998010Y-2859662D01*
X17970420Y-2832072D01*
X17934372Y-2817140D01*
X17914863Y-2815219D01*
X17538673Y-2815219D01*
X17538673Y-2491409D01*
X17772006Y-2491409D01*
X17791515Y-2489488D01*
X17827563Y-2474556D01*
X17855153Y-2446966D01*
X17870085Y-2410918D01*
X17870085Y-2371900D01*
X17855153Y-2335852D01*
X17827563Y-2308262D01*
X17791515Y-2293330D01*
X17772006Y-2291409D01*
X17538673Y-2291409D01*
X17538673Y-2015219D01*
X17914863Y-2015219D01*
X17934372Y-2013298D01*
X17970420Y-1998366D01*
X17998010Y-1970776D01*
X18012942Y-1934728D01*
X18012942Y-1912987D01*
X18100603Y-1912987D01*
X18107359Y-1951416D01*
X18116212Y-1968907D01*
X18433911Y-2468148D01*
X18433911Y-2915219D01*
X18435832Y-2934728D01*
X18450764Y-2970776D01*
X18478354Y-2998366D01*
X18514402Y-3013298D01*
X18553420Y-3013298D01*
X18589468Y-2998366D01*
X18617058Y-2970776D01*
X18631990Y-2934728D01*
X18633911Y-2915219D01*
X18633911Y-2468148D01*
X18951610Y-1968906D01*
X18960463Y-1951416D01*
X18967219Y-1912987D01*
X18958755Y-1874898D01*
X18936359Y-1842947D01*
X18903441Y-1821999D01*
X18865012Y-1815244D01*
X18826923Y-1823708D01*
X18794973Y-1846104D01*
X18782878Y-1861531D01*
X18533910Y-2252765D01*
X18284944Y-1861531D01*
X18272850Y-1846104D01*
X18240899Y-1823708D01*
X18202810Y-1815244D01*
X18164381Y-1822000D01*
X18131463Y-1842947D01*
X18109067Y-1874898D01*
X18100603Y-1912987D01*
X18012942Y-1912987D01*
X18012942Y-1895710D01*
X17998010Y-1859662D01*
X17970420Y-1832072D01*
X17934372Y-1817140D01*
X17914863Y-1815219D01*
X17438673Y-1815219D01*
X17419164Y-1817140D01*
X17383116Y-1832072D01*
X17355526Y-1859662D01*
X17340594Y-1895710D01*
X17338673Y-1915219D01*
X17108179Y-1915219D01*
X17108179Y-1895710D01*
X17093248Y-1859662D01*
X17065658Y-1832072D01*
X17029610Y-1817141D01*
X16990592Y-1817141D01*
X16954543Y-1832072D01*
X16939390Y-1844508D01*
X16538673Y-2245225D01*
X16538673Y-1915219D01*
X16536752Y-1895710D01*
X16521820Y-1859662D01*
X16494230Y-1832072D01*
X16458182Y-1817140D01*
X16419164Y-1817140D01*
X16383116Y-1832072D01*
X16355526Y-1859662D01*
X16340594Y-1895710D01*
X16338673Y-1915219D01*
X16227562Y-1915219D01*
X16227562Y-1704108D01*
X19078330Y-1704108D01*
X19078330Y-3126330D01*
G37*
G36*
X1924434Y-5823330D02*
G01*
X-1066509Y-5823330D01*
X-1066509Y-4624726D01*
X-955398Y-4624726D01*
X-951051Y-4643842D01*
X-617718Y-5643841D01*
X-609727Y-5661742D01*
X-605043Y-5667141D01*
X-601849Y-5673531D01*
X-592377Y-5681746D01*
X-584162Y-5691218D01*
X-577773Y-5694412D01*
X-572373Y-5699096D01*
X-560471Y-5703063D01*
X-549263Y-5708667D01*
X-542138Y-5709173D01*
X-535357Y-5711434D01*
X-522847Y-5710544D01*
X-510343Y-5711434D01*
X-503564Y-5709174D01*
X-496437Y-5708668D01*
X-485220Y-5703059D01*
X-473327Y-5699095D01*
X-467929Y-5694414D01*
X-461538Y-5691218D01*
X-453319Y-5681742D01*
X-443851Y-5673530D01*
X-440657Y-5667143D01*
X-435973Y-5661742D01*
X-427982Y-5643842D01*
X-226965Y-5040790D01*
X-3803Y-5040790D01*
X-3803Y-5183647D01*
X-3467Y-5187049D01*
X-3685Y-5188508D01*
X-2605Y-5195805D01*
X-1882Y-5203156D01*
X-1317Y-5204519D01*
X-817Y-5207901D01*
X46802Y-5398376D01*
X47315Y-5399813D01*
X47367Y-5400536D01*
X50475Y-5408660D01*
X53397Y-5416837D01*
X53827Y-5417417D01*
X54373Y-5418844D01*
X101992Y-5514082D01*
X107274Y-5522474D01*
X108287Y-5524918D01*
X110543Y-5527667D01*
X112435Y-5530672D01*
X114429Y-5532401D01*
X120724Y-5540071D01*
X215962Y-5635311D01*
X231115Y-5647747D01*
X234434Y-5649122D01*
X237150Y-5651477D01*
X255050Y-5659468D01*
X397907Y-5707087D01*
X407579Y-5709286D01*
X410021Y-5710298D01*
X413558Y-5710646D01*
X417022Y-5711434D01*
X419656Y-5711246D01*
X429530Y-5712219D01*
X524768Y-5712219D01*
X534641Y-5711246D01*
X537275Y-5711434D01*
X540738Y-5710646D01*
X544277Y-5710298D01*
X546719Y-5709286D01*
X556391Y-5707087D01*
X699247Y-5659468D01*
X717148Y-5651477D01*
X719863Y-5649122D01*
X723183Y-5647747D01*
X738336Y-5635310D01*
X785955Y-5587690D01*
X798392Y-5572537D01*
X813323Y-5536488D01*
X813322Y-5497470D01*
X798391Y-5461422D01*
X770800Y-5433832D01*
X734752Y-5418901D01*
X695734Y-5418902D01*
X659686Y-5433833D01*
X644532Y-5446270D01*
X613605Y-5477197D01*
X508541Y-5512219D01*
X445756Y-5512219D01*
X340691Y-5477197D01*
X273621Y-5410127D01*
X238167Y-5339218D01*
X196197Y-5171337D01*
X196197Y-5053100D01*
X199274Y-5040790D01*
X996197Y-5040790D01*
X996197Y-5183647D01*
X996532Y-5187049D01*
X996315Y-5188508D01*
X997394Y-5195805D01*
X998118Y-5203156D01*
X998682Y-5204519D01*
X999183Y-5207901D01*
X1046802Y-5398376D01*
X1047315Y-5399813D01*
X1047367Y-5400536D01*
X1050475Y-5408660D01*
X1053397Y-5416837D01*
X1053827Y-5417417D01*
X1054373Y-5418844D01*
X1101992Y-5514082D01*
X1107274Y-5522474D01*
X1108287Y-5524918D01*
X1110543Y-5527667D01*
X1112435Y-5530672D01*
X1114429Y-5532401D01*
X1120724Y-5540071D01*
X1215962Y-5635311D01*
X1231115Y-5647747D01*
X1234434Y-5649122D01*
X1237150Y-5651477D01*
X1255050Y-5659468D01*
X1397907Y-5707087D01*
X1407579Y-5709286D01*
X1410021Y-5710298D01*
X1413558Y-5710646D01*
X1417022Y-5711434D01*
X1419656Y-5711246D01*
X1429530Y-5712219D01*
X1524768Y-5712219D01*
X1534641Y-5711246D01*
X1537275Y-5711434D01*
X1540738Y-5710646D01*
X1544277Y-5710298D01*
X1546719Y-5709286D01*
X1556391Y-5707087D01*
X1699247Y-5659468D01*
X1717148Y-5651477D01*
X1719863Y-5649122D01*
X1723183Y-5647747D01*
X1738336Y-5635310D01*
X1785955Y-5587690D01*
X1798392Y-5572537D01*
X1813323Y-5536488D01*
X1813322Y-5497470D01*
X1798391Y-5461422D01*
X1770800Y-5433832D01*
X1734752Y-5418901D01*
X1695734Y-5418902D01*
X1659686Y-5433833D01*
X1644532Y-5446270D01*
X1613605Y-5477197D01*
X1508541Y-5512219D01*
X1445756Y-5512219D01*
X1340691Y-5477197D01*
X1273621Y-5410127D01*
X1238167Y-5339218D01*
X1196197Y-5171337D01*
X1196197Y-5053100D01*
X1238167Y-4885218D01*
X1273620Y-4814312D01*
X1340692Y-4747240D01*
X1445756Y-4712219D01*
X1508541Y-4712219D01*
X1613606Y-4747240D01*
X1644533Y-4778167D01*
X1659686Y-4790604D01*
X1695735Y-4805535D01*
X1734753Y-4805535D01*
X1770801Y-4790604D01*
X1798391Y-4763014D01*
X1813322Y-4726966D01*
X1813322Y-4687948D01*
X1798391Y-4651899D01*
X1785954Y-4636746D01*
X1738336Y-4589127D01*
X1723182Y-4576691D01*
X1719863Y-4575316D01*
X1717148Y-4572961D01*
X1699247Y-4564970D01*
X1556391Y-4517351D01*
X1546719Y-4515151D01*
X1544277Y-4514140D01*
X1540738Y-4513791D01*
X1537275Y-4513004D01*
X1534641Y-4513191D01*
X1524768Y-4512219D01*
X1429530Y-4512219D01*
X1419656Y-4513191D01*
X1417022Y-4513004D01*
X1413558Y-4513791D01*
X1410021Y-4514140D01*
X1407579Y-4515151D01*
X1397907Y-4517351D01*
X1255050Y-4564970D01*
X1237150Y-4572961D01*
X1234434Y-4575316D01*
X1231116Y-4576691D01*
X1215962Y-4589127D01*
X1120724Y-4684365D01*
X1114429Y-4692035D01*
X1112435Y-4693765D01*
X1110541Y-4696772D01*
X1108288Y-4699519D01*
X1107277Y-4701958D01*
X1101992Y-4710355D01*
X1054373Y-4805593D01*
X1053827Y-4807019D01*
X1053397Y-4807600D01*
X1050475Y-4815776D01*
X1047367Y-4823901D01*
X1047315Y-4824623D01*
X1046802Y-4826061D01*
X999183Y-5016536D01*
X998682Y-5019917D01*
X998118Y-5021281D01*
X997394Y-5028631D01*
X996315Y-5035929D01*
X996532Y-5037387D01*
X996197Y-5040790D01*
X199274Y-5040790D01*
X238167Y-4885218D01*
X273620Y-4814312D01*
X340692Y-4747240D01*
X445756Y-4712219D01*
X508541Y-4712219D01*
X613606Y-4747240D01*
X644533Y-4778167D01*
X659686Y-4790604D01*
X695735Y-4805535D01*
X734753Y-4805535D01*
X770801Y-4790604D01*
X798391Y-4763014D01*
X813322Y-4726966D01*
X813322Y-4687948D01*
X798391Y-4651899D01*
X785954Y-4636746D01*
X738336Y-4589127D01*
X723182Y-4576691D01*
X719863Y-4575316D01*
X717148Y-4572961D01*
X699247Y-4564970D01*
X556391Y-4517351D01*
X546719Y-4515151D01*
X544277Y-4514140D01*
X540738Y-4513791D01*
X537275Y-4513004D01*
X534641Y-4513191D01*
X524768Y-4512219D01*
X429530Y-4512219D01*
X419656Y-4513191D01*
X417022Y-4513004D01*
X413558Y-4513791D01*
X410021Y-4514140D01*
X407579Y-4515151D01*
X397907Y-4517351D01*
X255050Y-4564970D01*
X237150Y-4572961D01*
X234434Y-4575316D01*
X231116Y-4576691D01*
X215962Y-4589127D01*
X120724Y-4684365D01*
X114429Y-4692035D01*
X112435Y-4693765D01*
X110541Y-4696772D01*
X108288Y-4699519D01*
X107277Y-4701958D01*
X101992Y-4710355D01*
X54373Y-4805593D01*
X53827Y-4807019D01*
X53397Y-4807600D01*
X50475Y-4815776D01*
X47367Y-4823901D01*
X47315Y-4824623D01*
X46802Y-4826061D01*
X-817Y-5016536D01*
X-1317Y-5019917D01*
X-1882Y-5021281D01*
X-2605Y-5028631D01*
X-3685Y-5035929D01*
X-3467Y-5037387D01*
X-3803Y-5040790D01*
X-226965Y-5040790D01*
X-94649Y-4643842D01*
X-90302Y-4624727D01*
X-93068Y-4585807D01*
X-110518Y-4550908D01*
X-139994Y-4525343D01*
X-177010Y-4513004D01*
X-215930Y-4515771D01*
X-250829Y-4533220D01*
X-276394Y-4562696D01*
X-284385Y-4580597D01*
X-522849Y-5295991D01*
X-761315Y-4580596D01*
X-769306Y-4562696D01*
X-794871Y-4533220D01*
X-829770Y-4515770D01*
X-868690Y-4513004D01*
X-905706Y-4525342D01*
X-935182Y-4550907D01*
X-952632Y-4585806D01*
X-955398Y-4624726D01*
X-1066509Y-4624726D01*
X-1066509Y-4401108D01*
X1924434Y-4401108D01*
X1924434Y-5823330D01*
G37*
G36*
X1866330Y-3126330D02*
G01*
X-984437Y-3126330D01*
X-984437Y-1915219D01*
X-873326Y-1915219D01*
X-873326Y-2915219D01*
X-871405Y-2934728D01*
X-856473Y-2970776D01*
X-828883Y-2998366D01*
X-792835Y-3013298D01*
X-753817Y-3013298D01*
X-717769Y-2998366D01*
X-690179Y-2970776D01*
X-675247Y-2934728D01*
X-673326Y-2915219D01*
X-673326Y-2528069D01*
X-641288Y-2496031D01*
X-281898Y-2975219D01*
X-268656Y-2989674D01*
X-235081Y-3009553D01*
X-196455Y-3015071D01*
X-158658Y-3005388D01*
X-127443Y-2981977D01*
X-107564Y-2948403D01*
X-102046Y-2909777D01*
X-111729Y-2871979D01*
X-121898Y-2855219D01*
X-498431Y-2353174D01*
X-131187Y-1985930D01*
X-118751Y-1970777D01*
X-103820Y-1934728D01*
X-103820Y-1915219D01*
X126673Y-1915219D01*
X126673Y-2915219D01*
X128594Y-2934728D01*
X143526Y-2970776D01*
X171116Y-2998366D01*
X207164Y-3013298D01*
X226673Y-3015219D01*
X702863Y-3015219D01*
X722372Y-3013298D01*
X758420Y-2998366D01*
X786010Y-2970776D01*
X800942Y-2934728D01*
X800942Y-2895710D01*
X786010Y-2859662D01*
X758420Y-2832072D01*
X722372Y-2817140D01*
X702863Y-2815219D01*
X326673Y-2815219D01*
X326673Y-2491409D01*
X560006Y-2491409D01*
X579515Y-2489488D01*
X615563Y-2474556D01*
X643153Y-2446966D01*
X658085Y-2410918D01*
X658085Y-2371900D01*
X643153Y-2335852D01*
X615563Y-2308262D01*
X579515Y-2293330D01*
X560006Y-2291409D01*
X326673Y-2291409D01*
X326673Y-2015219D01*
X702863Y-2015219D01*
X722372Y-2013298D01*
X758420Y-1998366D01*
X786010Y-1970776D01*
X800942Y-1934728D01*
X800942Y-1912987D01*
X888603Y-1912987D01*
X895359Y-1951416D01*
X904212Y-1968907D01*
X1221911Y-2468148D01*
X1221911Y-2915219D01*
X1223832Y-2934728D01*
X1238764Y-2970776D01*
X1266354Y-2998366D01*
X1302402Y-3013298D01*
X1341420Y-3013298D01*
X1377468Y-2998366D01*
X1405058Y-2970776D01*
X1419990Y-2934728D01*
X1421911Y-2915219D01*
X1421911Y-2468148D01*
X1739610Y-1968906D01*
X1748463Y-1951416D01*
X1755219Y-1912987D01*
X1746755Y-1874898D01*
X1724359Y-1842947D01*
X1691441Y-1821999D01*
X1653012Y-1815244D01*
X1614923Y-1823708D01*
X1582973Y-1846104D01*
X1570878Y-1861531D01*
X1321910Y-2252765D01*
X1072944Y-1861531D01*
X1060850Y-1846104D01*
X1028899Y-1823708D01*
X990810Y-1815244D01*
X952381Y-1822000D01*
X919463Y-1842947D01*
X897067Y-1874898D01*
X888603Y-1912987D01*
X800942Y-1912987D01*
X800942Y-1895710D01*
X786010Y-1859662D01*
X758420Y-1832072D01*
X722372Y-1817140D01*
X702863Y-1815219D01*
X226673Y-1815219D01*
X207164Y-1817140D01*
X171116Y-1832072D01*
X143526Y-1859662D01*
X128594Y-1895710D01*
X126673Y-1915219D01*
X-103820Y-1915219D01*
X-103820Y-1895710D01*
X-118751Y-1859662D01*
X-146341Y-1832072D01*
X-182389Y-1817141D01*
X-221407Y-1817141D01*
X-257456Y-1832072D01*
X-272609Y-1844508D01*
X-673326Y-2245225D01*
X-673326Y-1915219D01*
X-675247Y-1895710D01*
X-690179Y-1859662D01*
X-717769Y-1832072D01*
X-753817Y-1817140D01*
X-792835Y-1817140D01*
X-828883Y-1832072D01*
X-856473Y-1859662D01*
X-871405Y-1895710D01*
X-873326Y-1915219D01*
X-984437Y-1915219D01*
X-984437Y-1704108D01*
X1866330Y-1704108D01*
X1866330Y-3126330D01*
G37*
G36*
X-1953669Y-17482056D02*
G01*
X-3375891Y-17482056D01*
X-3375891Y-16842374D01*
X-3264780Y-16842374D01*
X-3264780Y-17080469D01*
X-3262859Y-17099978D01*
X-3261483Y-17103298D01*
X-3261229Y-17106882D01*
X-3254223Y-17125190D01*
X-3206604Y-17220428D01*
X-3201318Y-17228824D01*
X-3200308Y-17231264D01*
X-3198054Y-17234010D01*
X-3196161Y-17237018D01*
X-3194166Y-17238747D01*
X-3187872Y-17246418D01*
X-3140253Y-17294036D01*
X-3132586Y-17300328D01*
X-3130854Y-17302326D01*
X-3127845Y-17304219D01*
X-3125100Y-17306473D01*
X-3122659Y-17307483D01*
X-3114263Y-17312769D01*
X-3019026Y-17360388D01*
X-3000717Y-17367394D01*
X-2997133Y-17367648D01*
X-2993813Y-17369024D01*
X-2974304Y-17370945D01*
X-2879066Y-17370945D01*
X-2859557Y-17369024D01*
X-2856236Y-17367648D01*
X-2852653Y-17367394D01*
X-2834345Y-17360388D01*
X-2739107Y-17312769D01*
X-2730710Y-17307483D01*
X-2728271Y-17306473D01*
X-2725524Y-17304219D01*
X-2722517Y-17302326D01*
X-2720787Y-17300331D01*
X-2713117Y-17294037D01*
X-2665499Y-17246418D01*
X-2659206Y-17238751D01*
X-2657209Y-17237019D01*
X-2655315Y-17234010D01*
X-2653062Y-17231265D01*
X-2652051Y-17228824D01*
X-2646766Y-17220428D01*
X-2599147Y-17125191D01*
X-2598600Y-17123762D01*
X-2598171Y-17123183D01*
X-2595249Y-17115006D01*
X-2592141Y-17106882D01*
X-2592089Y-17106161D01*
X-2591576Y-17104723D01*
X-2546619Y-16924897D01*
X-2511165Y-16853990D01*
X-2486497Y-16829321D01*
X-2426888Y-16799517D01*
X-2378864Y-16799517D01*
X-2319254Y-16829322D01*
X-2294584Y-16853991D01*
X-2264780Y-16913599D01*
X-2264780Y-17111859D01*
X-2307268Y-17239322D01*
X-2311615Y-17258437D01*
X-2308849Y-17297357D01*
X-2291400Y-17332256D01*
X-2261924Y-17357821D01*
X-2224908Y-17370160D01*
X-2185988Y-17367394D01*
X-2151089Y-17349945D01*
X-2125524Y-17320469D01*
X-2117532Y-17302568D01*
X-2069912Y-17159711D01*
X-2067712Y-17150038D01*
X-2066701Y-17147597D01*
X-2066352Y-17144059D01*
X-2065565Y-17140596D01*
X-2065752Y-17137961D01*
X-2064780Y-17128088D01*
X-2064780Y-16889993D01*
X-2066701Y-16870484D01*
X-2068076Y-16867163D01*
X-2068331Y-16863580D01*
X-2075338Y-16845271D01*
X-2122958Y-16750033D01*
X-2128241Y-16741640D01*
X-2129253Y-16739197D01*
X-2131509Y-16736447D01*
X-2133401Y-16733443D01*
X-2135395Y-16731713D01*
X-2141690Y-16724044D01*
X-2189308Y-16676425D01*
X-2196978Y-16670130D01*
X-2198708Y-16668136D01*
X-2201715Y-16666242D01*
X-2204462Y-16663989D01*
X-2206901Y-16662978D01*
X-2215298Y-16657693D01*
X-2310536Y-16610074D01*
X-2328844Y-16603068D01*
X-2332427Y-16602813D01*
X-2335748Y-16601438D01*
X-2355257Y-16599517D01*
X-2450495Y-16599517D01*
X-2470004Y-16601438D01*
X-2473324Y-16602813D01*
X-2476908Y-16603068D01*
X-2495217Y-16610074D01*
X-2590454Y-16657693D01*
X-2598850Y-16662978D01*
X-2601291Y-16663989D01*
X-2604036Y-16666242D01*
X-2607045Y-16668136D01*
X-2608777Y-16670133D01*
X-2616444Y-16676426D01*
X-2664063Y-16724044D01*
X-2670357Y-16731714D01*
X-2672352Y-16733444D01*
X-2674245Y-16736451D01*
X-2676499Y-16739198D01*
X-2677509Y-16741637D01*
X-2682795Y-16750034D01*
X-2730414Y-16845272D01*
X-2730959Y-16846698D01*
X-2731390Y-16847279D01*
X-2734311Y-16855455D01*
X-2737420Y-16863580D01*
X-2737471Y-16864302D01*
X-2737985Y-16865740D01*
X-2782941Y-17045564D01*
X-2818394Y-17116471D01*
X-2843063Y-17141139D01*
X-2902673Y-17170945D01*
X-2950697Y-17170945D01*
X-3010306Y-17141140D01*
X-3034974Y-17116471D01*
X-3064780Y-17056861D01*
X-3064780Y-16858601D01*
X-3022293Y-16731140D01*
X-3017946Y-16712025D01*
X-3020712Y-16673105D01*
X-3038162Y-16638206D01*
X-3067638Y-16612641D01*
X-3104654Y-16600302D01*
X-3143574Y-16603069D01*
X-3178473Y-16620518D01*
X-3204038Y-16649994D01*
X-3212029Y-16667895D01*
X-3259648Y-16810751D01*
X-3261847Y-16820422D01*
X-3262859Y-16822865D01*
X-3263207Y-16826403D01*
X-3263995Y-16829867D01*
X-3263807Y-16832500D01*
X-3264780Y-16842374D01*
X-3375891Y-16842374D01*
X-3375891Y-15505302D01*
X-3264711Y-15505302D01*
X-3258534Y-15543829D01*
X-3238085Y-15577059D01*
X-3206476Y-15599934D01*
X-3187942Y-15606322D01*
X-2573469Y-15752624D01*
X-2904832Y-15840988D01*
X-2909406Y-15842703D01*
X-2911323Y-15842958D01*
X-2913597Y-15844274D01*
X-2923188Y-15847871D01*
X-2933673Y-15855897D01*
X-2945091Y-15862507D01*
X-2949027Y-15867650D01*
X-2954171Y-15871587D01*
X-2960780Y-15883004D01*
X-2968807Y-15893490D01*
X-2970477Y-15899753D01*
X-2973720Y-15905355D01*
X-2975457Y-15918432D01*
X-2978860Y-15931191D01*
X-2978006Y-15937612D01*
X-2978860Y-15944033D01*
X-2975457Y-15956791D01*
X-2973720Y-15969869D01*
X-2970477Y-15975470D01*
X-2968807Y-15981734D01*
X-2960780Y-15992219D01*
X-2954171Y-16003637D01*
X-2949027Y-16007573D01*
X-2945091Y-16012717D01*
X-2933673Y-16019326D01*
X-2923188Y-16027353D01*
X-2913597Y-16030949D01*
X-2911323Y-16032266D01*
X-2909406Y-16032520D01*
X-2904832Y-16034236D01*
X-2573469Y-16122599D01*
X-3187942Y-16268902D01*
X-3206476Y-16275290D01*
X-3238085Y-16298165D01*
X-3258534Y-16331395D01*
X-3264711Y-16369922D01*
X-3255673Y-16407879D01*
X-3232798Y-16439488D01*
X-3199568Y-16459937D01*
X-3161041Y-16466114D01*
X-3141618Y-16463464D01*
X-2141618Y-16225369D01*
X-2134925Y-16223062D01*
X-2132522Y-16222743D01*
X-2130349Y-16221485D01*
X-2123084Y-16218981D01*
X-2111321Y-16210468D01*
X-2098755Y-16203193D01*
X-2095634Y-16199115D01*
X-2091475Y-16196106D01*
X-2083867Y-16183743D01*
X-2075039Y-16172210D01*
X-2073715Y-16167246D01*
X-2071026Y-16162876D01*
X-2068727Y-16148541D01*
X-2064986Y-16134509D01*
X-2065662Y-16129420D01*
X-2064849Y-16124349D01*
X-2068213Y-16110220D01*
X-2070125Y-16095831D01*
X-2072697Y-16091387D01*
X-2073887Y-16086392D01*
X-2082400Y-16074627D01*
X-2089675Y-16062063D01*
X-2093752Y-16058942D01*
X-2096762Y-16054783D01*
X-2109124Y-16047175D01*
X-2120658Y-16038347D01*
X-2127857Y-16035647D01*
X-2129992Y-16034334D01*
X-2132383Y-16033950D01*
X-2139013Y-16031465D01*
X-2490960Y-15937612D01*
X-2139013Y-15843759D01*
X-2132383Y-15841273D01*
X-2129992Y-15840890D01*
X-2127857Y-15839576D01*
X-2120658Y-15836877D01*
X-2109124Y-15828048D01*
X-2096762Y-15820441D01*
X-2093752Y-15816281D01*
X-2089675Y-15813161D01*
X-2082400Y-15800596D01*
X-2073887Y-15788832D01*
X-2072697Y-15783836D01*
X-2070125Y-15779393D01*
X-2068213Y-15765003D01*
X-2064849Y-15750875D01*
X-2065662Y-15745803D01*
X-2064986Y-15740715D01*
X-2068727Y-15726682D01*
X-2071026Y-15712348D01*
X-2073715Y-15707977D01*
X-2075039Y-15703014D01*
X-2083867Y-15691480D01*
X-2091475Y-15679118D01*
X-2095634Y-15676108D01*
X-2098755Y-15672031D01*
X-2111321Y-15664755D01*
X-2123084Y-15656243D01*
X-2130349Y-15653738D01*
X-2132522Y-15652481D01*
X-2134925Y-15652161D01*
X-2141618Y-15649855D01*
X-3141618Y-15411760D01*
X-3161041Y-15409110D01*
X-3199568Y-15415287D01*
X-3232798Y-15435736D01*
X-3255673Y-15467345D01*
X-3264711Y-15505302D01*
X-3375891Y-15505302D01*
X-3375891Y-14747136D01*
X-3264780Y-14747136D01*
X-3264780Y-14842374D01*
X-3263807Y-14852247D01*
X-3263995Y-14854881D01*
X-3263207Y-14858344D01*
X-3262859Y-14861883D01*
X-3261847Y-14864325D01*
X-3259648Y-14873997D01*
X-3212029Y-15016853D01*
X-3204038Y-15034754D01*
X-3201682Y-15037469D01*
X-3200308Y-15040788D01*
X-3187872Y-15055942D01*
X-3092634Y-15151180D01*
X-3084967Y-15157471D01*
X-3083235Y-15159469D01*
X-3080223Y-15161364D01*
X-3077480Y-15163616D01*
X-3075042Y-15164625D01*
X-3066644Y-15169912D01*
X-2971407Y-15217531D01*
X-2969978Y-15218077D01*
X-2969399Y-15218507D01*
X-2961222Y-15221428D01*
X-2953098Y-15224537D01*
X-2952377Y-15224588D01*
X-2950939Y-15225102D01*
X-2760463Y-15272721D01*
X-2757081Y-15273221D01*
X-2755718Y-15273786D01*
X-2748367Y-15274509D01*
X-2741070Y-15275589D01*
X-2739611Y-15275371D01*
X-2736209Y-15275707D01*
X-2593352Y-15275707D01*
X-2589949Y-15275371D01*
X-2588491Y-15275589D01*
X-2581193Y-15274509D01*
X-2573843Y-15273786D01*
X-2572479Y-15273221D01*
X-2569098Y-15272721D01*
X-2378623Y-15225102D01*
X-2377185Y-15224588D01*
X-2376463Y-15224537D01*
X-2368338Y-15221428D01*
X-2360162Y-15218507D01*
X-2359581Y-15218076D01*
X-2358155Y-15217531D01*
X-2262917Y-15169912D01*
X-2254520Y-15164626D01*
X-2252081Y-15163616D01*
X-2249334Y-15161362D01*
X-2246327Y-15159469D01*
X-2244597Y-15157474D01*
X-2236927Y-15151180D01*
X-2141689Y-15055942D01*
X-2129253Y-15040788D01*
X-2127878Y-15037469D01*
X-2125524Y-15034755D01*
X-2117532Y-15016854D01*
X-2069912Y-14873997D01*
X-2067712Y-14864324D01*
X-2066701Y-14861883D01*
X-2066352Y-14858345D01*
X-2065565Y-14854882D01*
X-2065752Y-14852247D01*
X-2064780Y-14842374D01*
X-2064780Y-14747136D01*
X-2065752Y-14737262D01*
X-2065565Y-14734628D01*
X-2066352Y-14731164D01*
X-2066701Y-14727627D01*
X-2067712Y-14725185D01*
X-2069912Y-14715513D01*
X-2117532Y-14572656D01*
X-2125524Y-14554755D01*
X-2127877Y-14552040D01*
X-2129253Y-14548721D01*
X-2141690Y-14533568D01*
X-2189308Y-14485949D01*
X-2204462Y-14473513D01*
X-2240510Y-14458581D01*
X-2279528Y-14458581D01*
X-2315576Y-14473513D01*
X-2343166Y-14501103D01*
X-2358098Y-14537151D01*
X-2358098Y-14576169D01*
X-2343166Y-14612217D01*
X-2330730Y-14627371D01*
X-2299802Y-14658297D01*
X-2264780Y-14763364D01*
X-2264780Y-14826145D01*
X-2299802Y-14931211D01*
X-2366874Y-14998283D01*
X-2437780Y-15033736D01*
X-2605662Y-15075707D01*
X-2723900Y-15075707D01*
X-2891780Y-15033736D01*
X-2962686Y-14998284D01*
X-3029758Y-14931211D01*
X-3064780Y-14826147D01*
X-3064780Y-14763363D01*
X-3029758Y-14658297D01*
X-2998832Y-14627371D01*
X-2986395Y-14612218D01*
X-2971464Y-14576169D01*
X-2971464Y-14537151D01*
X-2986395Y-14501103D01*
X-3013985Y-14473513D01*
X-3050033Y-14458582D01*
X-3089051Y-14458582D01*
X-3125100Y-14473513D01*
X-3140253Y-14485950D01*
X-3187872Y-14533568D01*
X-3200308Y-14548722D01*
X-3201682Y-14552040D01*
X-3204038Y-14554756D01*
X-3212029Y-14572657D01*
X-3259648Y-14715513D01*
X-3261847Y-14725184D01*
X-3262859Y-14727627D01*
X-3263207Y-14731165D01*
X-3263995Y-14734629D01*
X-3263807Y-14737262D01*
X-3264780Y-14747136D01*
X-3375891Y-14747136D01*
X-3375891Y-14347470D01*
X-1953669Y-14347470D01*
X-1953669Y-17482056D01*
G37*
G36*
X3283330Y-17576509D02*
G01*
X1861108Y-17576509D01*
X1861108Y-16687010D01*
X1973004Y-16687010D01*
X1975770Y-16725930D01*
X1993220Y-16760829D01*
X2022696Y-16786394D01*
X2040596Y-16794385D01*
X2755991Y-17032850D01*
X2040596Y-17271315D01*
X2022696Y-17279306D01*
X1993220Y-17304871D01*
X1975770Y-17339770D01*
X1973004Y-17378690D01*
X1985342Y-17415706D01*
X2010907Y-17445182D01*
X2045806Y-17462632D01*
X2084726Y-17465398D01*
X2103842Y-17461051D01*
X3103841Y-17127718D01*
X3121742Y-17119727D01*
X3127143Y-17115042D01*
X3133530Y-17111849D01*
X3141742Y-17102380D01*
X3151218Y-17094162D01*
X3154413Y-17087770D01*
X3159095Y-17082373D01*
X3163061Y-17070475D01*
X3168667Y-17059263D01*
X3169173Y-17052138D01*
X3171434Y-17045357D01*
X3170544Y-17032850D01*
X3171434Y-17020343D01*
X3169173Y-17013561D01*
X3168667Y-17006437D01*
X3163061Y-16995224D01*
X3159095Y-16983327D01*
X3154413Y-16977929D01*
X3151218Y-16971538D01*
X3141742Y-16963319D01*
X3133530Y-16953851D01*
X3127143Y-16950657D01*
X3121742Y-16945973D01*
X3103841Y-16937982D01*
X2103842Y-16604649D01*
X2084726Y-16600302D01*
X2045806Y-16603068D01*
X2010907Y-16620518D01*
X1985342Y-16649994D01*
X1973004Y-16687010D01*
X1861108Y-16687010D01*
X1861108Y-15985231D01*
X1972219Y-15985231D01*
X1972219Y-16080469D01*
X1973191Y-16090342D01*
X1973004Y-16092976D01*
X1973791Y-16096439D01*
X1974140Y-16099978D01*
X1975151Y-16102420D01*
X1977351Y-16112092D01*
X2024970Y-16254948D01*
X2032961Y-16272849D01*
X2035316Y-16275564D01*
X2036691Y-16278883D01*
X2049127Y-16294037D01*
X2144365Y-16389275D01*
X2152031Y-16395566D01*
X2153764Y-16397564D01*
X2156775Y-16399459D01*
X2159519Y-16401711D01*
X2161956Y-16402720D01*
X2170355Y-16408007D01*
X2265592Y-16455626D01*
X2267020Y-16456172D01*
X2267600Y-16456602D01*
X2275776Y-16459523D01*
X2283901Y-16462632D01*
X2284621Y-16462683D01*
X2286060Y-16463197D01*
X2476536Y-16510816D01*
X2479917Y-16511316D01*
X2481281Y-16511881D01*
X2488631Y-16512604D01*
X2495929Y-16513684D01*
X2497387Y-16513466D01*
X2500790Y-16513802D01*
X2643647Y-16513802D01*
X2647049Y-16513466D01*
X2648508Y-16513684D01*
X2655805Y-16512604D01*
X2663156Y-16511881D01*
X2664519Y-16511316D01*
X2667901Y-16510816D01*
X2858376Y-16463197D01*
X2859813Y-16462683D01*
X2860536Y-16462632D01*
X2868660Y-16459523D01*
X2876837Y-16456602D01*
X2877417Y-16456171D01*
X2878844Y-16455626D01*
X2974082Y-16408007D01*
X2982474Y-16402724D01*
X2984918Y-16401712D01*
X2987667Y-16399455D01*
X2990672Y-16397564D01*
X2992401Y-16395569D01*
X3000071Y-16389275D01*
X3095311Y-16294037D01*
X3107747Y-16278884D01*
X3109122Y-16275564D01*
X3111477Y-16272849D01*
X3119468Y-16254949D01*
X3167087Y-16112092D01*
X3169286Y-16102419D01*
X3170298Y-16099978D01*
X3170646Y-16096440D01*
X3171434Y-16092977D01*
X3171246Y-16090342D01*
X3172219Y-16080469D01*
X3172219Y-15985231D01*
X3171246Y-15975357D01*
X3171434Y-15972723D01*
X3170646Y-15969259D01*
X3170298Y-15965722D01*
X3169286Y-15963280D01*
X3167087Y-15953608D01*
X3119468Y-15810751D01*
X3111477Y-15792851D01*
X3109122Y-15790135D01*
X3107747Y-15786816D01*
X3095310Y-15771662D01*
X3047690Y-15724044D01*
X3032537Y-15711607D01*
X2996488Y-15696676D01*
X2957470Y-15696677D01*
X2921422Y-15711608D01*
X2893832Y-15739198D01*
X2878901Y-15775247D01*
X2878902Y-15814265D01*
X2893833Y-15850313D01*
X2906270Y-15865466D01*
X2937197Y-15896392D01*
X2972219Y-16001457D01*
X2972219Y-16064242D01*
X2937197Y-16169307D01*
X2870127Y-16236377D01*
X2799218Y-16271831D01*
X2631337Y-16313802D01*
X2513099Y-16313802D01*
X2345218Y-16271831D01*
X2274313Y-16236379D01*
X2207240Y-16169306D01*
X2172219Y-16064242D01*
X2172219Y-16001458D01*
X2207240Y-15896392D01*
X2238167Y-15865466D01*
X2250604Y-15850313D01*
X2265535Y-15814264D01*
X2265535Y-15775246D01*
X2250604Y-15739198D01*
X2223014Y-15711608D01*
X2186966Y-15696677D01*
X2147948Y-15696677D01*
X2111899Y-15711608D01*
X2096746Y-15724045D01*
X2049127Y-15771663D01*
X2036691Y-15786817D01*
X2035316Y-15790135D01*
X2032961Y-15792851D01*
X2024970Y-15810752D01*
X1977351Y-15953608D01*
X1975151Y-15963279D01*
X1974140Y-15965722D01*
X1973791Y-15969260D01*
X1973004Y-15972724D01*
X1973191Y-15975357D01*
X1972219Y-15985231D01*
X1861108Y-15985231D01*
X1861108Y-14985231D01*
X1972219Y-14985231D01*
X1972219Y-15080469D01*
X1973191Y-15090342D01*
X1973004Y-15092976D01*
X1973791Y-15096439D01*
X1974140Y-15099978D01*
X1975151Y-15102420D01*
X1977351Y-15112092D01*
X2024970Y-15254948D01*
X2032961Y-15272849D01*
X2035316Y-15275564D01*
X2036691Y-15278883D01*
X2049127Y-15294037D01*
X2144365Y-15389275D01*
X2152031Y-15395566D01*
X2153764Y-15397564D01*
X2156775Y-15399459D01*
X2159519Y-15401711D01*
X2161956Y-15402720D01*
X2170355Y-15408007D01*
X2265592Y-15455626D01*
X2267020Y-15456172D01*
X2267600Y-15456602D01*
X2275776Y-15459523D01*
X2283901Y-15462632D01*
X2284621Y-15462683D01*
X2286060Y-15463197D01*
X2476536Y-15510816D01*
X2479917Y-15511316D01*
X2481281Y-15511881D01*
X2488631Y-15512604D01*
X2495929Y-15513684D01*
X2497387Y-15513466D01*
X2500790Y-15513802D01*
X2643647Y-15513802D01*
X2647049Y-15513466D01*
X2648508Y-15513684D01*
X2655805Y-15512604D01*
X2663156Y-15511881D01*
X2664519Y-15511316D01*
X2667901Y-15510816D01*
X2858376Y-15463197D01*
X2859813Y-15462683D01*
X2860536Y-15462632D01*
X2868660Y-15459523D01*
X2876837Y-15456602D01*
X2877417Y-15456171D01*
X2878844Y-15455626D01*
X2974082Y-15408007D01*
X2982474Y-15402724D01*
X2984918Y-15401712D01*
X2987667Y-15399455D01*
X2990672Y-15397564D01*
X2992401Y-15395569D01*
X3000071Y-15389275D01*
X3095311Y-15294037D01*
X3107747Y-15278884D01*
X3109122Y-15275564D01*
X3111477Y-15272849D01*
X3119468Y-15254949D01*
X3167087Y-15112092D01*
X3169286Y-15102419D01*
X3170298Y-15099978D01*
X3170646Y-15096440D01*
X3171434Y-15092977D01*
X3171246Y-15090342D01*
X3172219Y-15080469D01*
X3172219Y-14985231D01*
X3171246Y-14975357D01*
X3171434Y-14972723D01*
X3170646Y-14969259D01*
X3170298Y-14965722D01*
X3169286Y-14963280D01*
X3167087Y-14953608D01*
X3119468Y-14810751D01*
X3111477Y-14792851D01*
X3109122Y-14790135D01*
X3107747Y-14786816D01*
X3095310Y-14771662D01*
X3047690Y-14724044D01*
X3032537Y-14711607D01*
X2996488Y-14696676D01*
X2957470Y-14696677D01*
X2921422Y-14711608D01*
X2893832Y-14739198D01*
X2878901Y-14775247D01*
X2878902Y-14814265D01*
X2893833Y-14850313D01*
X2906270Y-14865466D01*
X2937197Y-14896392D01*
X2972219Y-15001457D01*
X2972219Y-15064242D01*
X2937197Y-15169307D01*
X2870127Y-15236377D01*
X2799218Y-15271831D01*
X2631337Y-15313802D01*
X2513099Y-15313802D01*
X2345218Y-15271831D01*
X2274313Y-15236379D01*
X2207240Y-15169306D01*
X2172219Y-15064242D01*
X2172219Y-15001458D01*
X2207240Y-14896392D01*
X2238167Y-14865466D01*
X2250604Y-14850313D01*
X2265535Y-14814264D01*
X2265535Y-14775246D01*
X2250604Y-14739198D01*
X2223014Y-14711608D01*
X2186966Y-14696677D01*
X2147948Y-14696677D01*
X2111899Y-14711608D01*
X2096746Y-14724045D01*
X2049127Y-14771663D01*
X2036691Y-14786817D01*
X2035316Y-14790135D01*
X2032961Y-14792851D01*
X2024970Y-14810752D01*
X1977351Y-14953608D01*
X1975151Y-14963279D01*
X1974140Y-14965722D01*
X1973791Y-14969260D01*
X1973004Y-14972724D01*
X1973191Y-14975357D01*
X1972219Y-14985231D01*
X1861108Y-14985231D01*
X1861108Y-14585565D01*
X3283330Y-14585565D01*
X3283330Y-17576509D01*
G37*
G36*
X18539891Y489758D02*
G01*
X18606964Y422686D01*
X18642416Y351780D01*
X18684387Y183899D01*
X18684387Y65661D01*
X18642416Y-102218D01*
X18606963Y-173124D01*
X18539892Y-240197D01*
X18434827Y-275219D01*
X18312959Y-275219D01*
X18312959Y524780D01*
X18434827Y524780D01*
X18539891Y489758D01*
G37*
G36*
X18995498Y-586330D02*
G01*
X16287562Y-586330D01*
X16287562Y624780D01*
X16398673Y624780D01*
X16398673Y-375219D01*
X16400594Y-394728D01*
X16415526Y-430776D01*
X16443116Y-458366D01*
X16479164Y-473298D01*
X16498673Y-475219D01*
X16974863Y-475219D01*
X16994372Y-473298D01*
X17030420Y-458366D01*
X17058010Y-430776D01*
X17072942Y-394728D01*
X17072942Y-355710D01*
X17058010Y-319662D01*
X17030420Y-292072D01*
X16994372Y-277140D01*
X16974863Y-275219D01*
X16598673Y-275219D01*
X16598673Y624780D01*
X17208197Y624780D01*
X17208197Y-375219D01*
X17210118Y-394728D01*
X17225050Y-430776D01*
X17252640Y-458366D01*
X17288688Y-473298D01*
X17308197Y-475219D01*
X17784387Y-475219D01*
X17803896Y-473298D01*
X17839944Y-458366D01*
X17867534Y-430776D01*
X17882466Y-394728D01*
X17882466Y-355710D01*
X17867534Y-319662D01*
X17839944Y-292072D01*
X17803896Y-277140D01*
X17784387Y-275219D01*
X17408197Y-275219D01*
X17408197Y48590D01*
X17641530Y48590D01*
X17661039Y50511D01*
X17697087Y65443D01*
X17724677Y93033D01*
X17739609Y129081D01*
X17739609Y168099D01*
X17724677Y204147D01*
X17697087Y231737D01*
X17661039Y246669D01*
X17641530Y248590D01*
X17408197Y248590D01*
X17408197Y524780D01*
X17784387Y524780D01*
X17803896Y526701D01*
X17839944Y541633D01*
X17867534Y569223D01*
X17882466Y605271D01*
X17882466Y624780D01*
X18112959Y624780D01*
X18112959Y-375219D01*
X18114880Y-394728D01*
X18129812Y-430776D01*
X18157402Y-458366D01*
X18193450Y-473298D01*
X18212959Y-475219D01*
X18451054Y-475219D01*
X18460927Y-474246D01*
X18463561Y-474434D01*
X18467024Y-473646D01*
X18470563Y-473298D01*
X18473005Y-472286D01*
X18482677Y-470087D01*
X18625533Y-422468D01*
X18643434Y-414477D01*
X18646149Y-412122D01*
X18649469Y-410747D01*
X18664622Y-398310D01*
X18759860Y-303071D01*
X18766152Y-295404D01*
X18768149Y-293673D01*
X18770042Y-290665D01*
X18772297Y-287918D01*
X18773308Y-285476D01*
X18778592Y-277082D01*
X18826211Y-181845D01*
X18826757Y-180416D01*
X18827187Y-179837D01*
X18830108Y-171660D01*
X18833217Y-163536D01*
X18833268Y-162815D01*
X18833782Y-161377D01*
X18881401Y29098D01*
X18881901Y32479D01*
X18882466Y33843D01*
X18883189Y41193D01*
X18884269Y48491D01*
X18884051Y49949D01*
X18884387Y53352D01*
X18884387Y196209D01*
X18884051Y199611D01*
X18884269Y201070D01*
X18883189Y208367D01*
X18882466Y215718D01*
X18881901Y217081D01*
X18881401Y220463D01*
X18833782Y410939D01*
X18833268Y412377D01*
X18833217Y413098D01*
X18830108Y421222D01*
X18827187Y429399D01*
X18826757Y429978D01*
X18826211Y431407D01*
X18778592Y526644D01*
X18773305Y535042D01*
X18772296Y537480D01*
X18770044Y540223D01*
X18768149Y543235D01*
X18766151Y544967D01*
X18759860Y552634D01*
X18664622Y647872D01*
X18649468Y660308D01*
X18646149Y661682D01*
X18643434Y664038D01*
X18625533Y672029D01*
X18482677Y719648D01*
X18473005Y721847D01*
X18470563Y722859D01*
X18467024Y723207D01*
X18463561Y723995D01*
X18460927Y723807D01*
X18451054Y724780D01*
X18212959Y724780D01*
X18193450Y722859D01*
X18157402Y707927D01*
X18129812Y680337D01*
X18114880Y644289D01*
X18112959Y624780D01*
X17882466Y624780D01*
X17882466Y644289D01*
X17867534Y680337D01*
X17839944Y707927D01*
X17803896Y722859D01*
X17784387Y724780D01*
X17308197Y724780D01*
X17288688Y722859D01*
X17252640Y707927D01*
X17225050Y680337D01*
X17210118Y644289D01*
X17208197Y624780D01*
X16598673Y624780D01*
X16596752Y644289D01*
X16581820Y680337D01*
X16554230Y707927D01*
X16518182Y722859D01*
X16479164Y722859D01*
X16443116Y707927D01*
X16415526Y680337D01*
X16400594Y644289D01*
X16398673Y624780D01*
X16287562Y624780D01*
X16287562Y835891D01*
X18995498Y835891D01*
X18995498Y-586330D01*
G37*
G36*
X1327891Y489758D02*
G01*
X1394964Y422686D01*
X1430416Y351780D01*
X1472387Y183899D01*
X1472387Y65661D01*
X1430416Y-102218D01*
X1394963Y-173124D01*
X1327892Y-240197D01*
X1222827Y-275219D01*
X1100959Y-275219D01*
X1100959Y524780D01*
X1222827Y524780D01*
X1327891Y489758D01*
G37*
G36*
X1783498Y-586330D02*
G01*
X-924437Y-586330D01*
X-924437Y624780D01*
X-813326Y624780D01*
X-813326Y-375219D01*
X-811405Y-394728D01*
X-796473Y-430776D01*
X-768883Y-458366D01*
X-732835Y-473298D01*
X-713326Y-475219D01*
X-237136Y-475219D01*
X-217627Y-473298D01*
X-181579Y-458366D01*
X-153989Y-430776D01*
X-139057Y-394728D01*
X-139057Y-355710D01*
X-153989Y-319662D01*
X-181579Y-292072D01*
X-217627Y-277140D01*
X-237136Y-275219D01*
X-613326Y-275219D01*
X-613326Y624780D01*
X-3803Y624780D01*
X-3803Y-375219D01*
X-1882Y-394728D01*
X13050Y-430776D01*
X40640Y-458366D01*
X76688Y-473298D01*
X96197Y-475219D01*
X572387Y-475219D01*
X591896Y-473298D01*
X627944Y-458366D01*
X655534Y-430776D01*
X670466Y-394728D01*
X670466Y-355710D01*
X655534Y-319662D01*
X627944Y-292072D01*
X591896Y-277140D01*
X572387Y-275219D01*
X196197Y-275219D01*
X196197Y48590D01*
X429530Y48590D01*
X449039Y50511D01*
X485087Y65443D01*
X512677Y93033D01*
X527609Y129081D01*
X527609Y168099D01*
X512677Y204147D01*
X485087Y231737D01*
X449039Y246669D01*
X429530Y248590D01*
X196197Y248590D01*
X196197Y524780D01*
X572387Y524780D01*
X591896Y526701D01*
X627944Y541633D01*
X655534Y569223D01*
X670466Y605271D01*
X670466Y624780D01*
X900959Y624780D01*
X900959Y-375219D01*
X902880Y-394728D01*
X917812Y-430776D01*
X945402Y-458366D01*
X981450Y-473298D01*
X1000959Y-475219D01*
X1239054Y-475219D01*
X1248927Y-474246D01*
X1251561Y-474434D01*
X1255024Y-473646D01*
X1258563Y-473298D01*
X1261005Y-472286D01*
X1270677Y-470087D01*
X1413533Y-422468D01*
X1431434Y-414477D01*
X1434149Y-412122D01*
X1437469Y-410747D01*
X1452622Y-398310D01*
X1547860Y-303071D01*
X1554152Y-295404D01*
X1556149Y-293673D01*
X1558042Y-290665D01*
X1560297Y-287918D01*
X1561308Y-285476D01*
X1566592Y-277082D01*
X1614211Y-181845D01*
X1614757Y-180416D01*
X1615187Y-179837D01*
X1618108Y-171660D01*
X1621217Y-163536D01*
X1621268Y-162815D01*
X1621782Y-161377D01*
X1669401Y29098D01*
X1669901Y32479D01*
X1670466Y33843D01*
X1671189Y41193D01*
X1672269Y48491D01*
X1672051Y49949D01*
X1672387Y53352D01*
X1672387Y196209D01*
X1672051Y199611D01*
X1672269Y201070D01*
X1671189Y208367D01*
X1670466Y215718D01*
X1669901Y217081D01*
X1669401Y220463D01*
X1621782Y410939D01*
X1621268Y412377D01*
X1621217Y413098D01*
X1618108Y421222D01*
X1615187Y429399D01*
X1614757Y429978D01*
X1614211Y431407D01*
X1566592Y526644D01*
X1561305Y535042D01*
X1560296Y537480D01*
X1558044Y540223D01*
X1556149Y543235D01*
X1554151Y544967D01*
X1547860Y552634D01*
X1452622Y647872D01*
X1437468Y660308D01*
X1434149Y661682D01*
X1431434Y664038D01*
X1413533Y672029D01*
X1270677Y719648D01*
X1261005Y721847D01*
X1258563Y722859D01*
X1255024Y723207D01*
X1251561Y723995D01*
X1248927Y723807D01*
X1239054Y724780D01*
X1000959Y724780D01*
X981450Y722859D01*
X945402Y707927D01*
X917812Y680337D01*
X902880Y644289D01*
X900959Y624780D01*
X670466Y624780D01*
X670466Y644289D01*
X655534Y680337D01*
X627944Y707927D01*
X591896Y722859D01*
X572387Y724780D01*
X96197Y724780D01*
X76688Y722859D01*
X40640Y707927D01*
X13050Y680337D01*
X-1882Y644289D01*
X-3803Y624780D01*
X-613326Y624780D01*
X-615247Y644289D01*
X-630179Y680337D01*
X-657769Y707927D01*
X-693817Y722859D01*
X-732835Y722859D01*
X-768883Y707927D01*
X-796473Y680337D01*
X-811405Y644289D01*
X-813326Y624780D01*
X-924437Y624780D01*
X-924437Y835891D01*
X1783498Y835891D01*
X1783498Y-586330D01*
G37*
G36*
X19136434Y-5823330D02*
G01*
X16145490Y-5823330D01*
X16145490Y-4624726D01*
X16256601Y-4624726D01*
X16260948Y-4643842D01*
X16594281Y-5643841D01*
X16602272Y-5661742D01*
X16606955Y-5667141D01*
X16610150Y-5673531D01*
X16619621Y-5681746D01*
X16627837Y-5691218D01*
X16634225Y-5694412D01*
X16639626Y-5699096D01*
X16651527Y-5703063D01*
X16662736Y-5708667D01*
X16669860Y-5709173D01*
X16676642Y-5711434D01*
X16689151Y-5710544D01*
X16701656Y-5711434D01*
X16708434Y-5709174D01*
X16715562Y-5708668D01*
X16726778Y-5703059D01*
X16738672Y-5699095D01*
X16744069Y-5694414D01*
X16750461Y-5691218D01*
X16758679Y-5681742D01*
X16768148Y-5673530D01*
X16771341Y-5667143D01*
X16776026Y-5661742D01*
X16784017Y-5643842D01*
X16985034Y-5040790D01*
X17208197Y-5040790D01*
X17208197Y-5183647D01*
X17208532Y-5187049D01*
X17208315Y-5188508D01*
X17209394Y-5195805D01*
X17210118Y-5203156D01*
X17210682Y-5204519D01*
X17211183Y-5207901D01*
X17258802Y-5398376D01*
X17259315Y-5399813D01*
X17259367Y-5400536D01*
X17262475Y-5408660D01*
X17265397Y-5416837D01*
X17265827Y-5417417D01*
X17266373Y-5418844D01*
X17313992Y-5514082D01*
X17319274Y-5522474D01*
X17320287Y-5524918D01*
X17322543Y-5527667D01*
X17324435Y-5530672D01*
X17326429Y-5532401D01*
X17332724Y-5540071D01*
X17427962Y-5635311D01*
X17443115Y-5647747D01*
X17446434Y-5649122D01*
X17449150Y-5651477D01*
X17467050Y-5659468D01*
X17609907Y-5707087D01*
X17619579Y-5709286D01*
X17622021Y-5710298D01*
X17625558Y-5710646D01*
X17629022Y-5711434D01*
X17631656Y-5711246D01*
X17641530Y-5712219D01*
X17736768Y-5712219D01*
X17746641Y-5711246D01*
X17749275Y-5711434D01*
X17752738Y-5710646D01*
X17756277Y-5710298D01*
X17758719Y-5709286D01*
X17768391Y-5707087D01*
X17911247Y-5659468D01*
X17929148Y-5651477D01*
X17931863Y-5649122D01*
X17935183Y-5647747D01*
X17950336Y-5635310D01*
X17997955Y-5587690D01*
X18010392Y-5572537D01*
X18025323Y-5536488D01*
X18025322Y-5497470D01*
X18010391Y-5461422D01*
X17982800Y-5433832D01*
X17946752Y-5418901D01*
X17907734Y-5418902D01*
X17871686Y-5433833D01*
X17856532Y-5446270D01*
X17825605Y-5477197D01*
X17720541Y-5512219D01*
X17657756Y-5512219D01*
X17552691Y-5477197D01*
X17485621Y-5410127D01*
X17450167Y-5339218D01*
X17408197Y-5171337D01*
X17408197Y-5053100D01*
X17411274Y-5040790D01*
X18208197Y-5040790D01*
X18208197Y-5183647D01*
X18208532Y-5187049D01*
X18208315Y-5188508D01*
X18209394Y-5195805D01*
X18210118Y-5203156D01*
X18210682Y-5204519D01*
X18211183Y-5207901D01*
X18258802Y-5398376D01*
X18259315Y-5399813D01*
X18259367Y-5400536D01*
X18262475Y-5408660D01*
X18265397Y-5416837D01*
X18265827Y-5417417D01*
X18266373Y-5418844D01*
X18313992Y-5514082D01*
X18319274Y-5522474D01*
X18320287Y-5524918D01*
X18322543Y-5527667D01*
X18324435Y-5530672D01*
X18326429Y-5532401D01*
X18332724Y-5540071D01*
X18427962Y-5635311D01*
X18443115Y-5647747D01*
X18446434Y-5649122D01*
X18449150Y-5651477D01*
X18467050Y-5659468D01*
X18609907Y-5707087D01*
X18619579Y-5709286D01*
X18622021Y-5710298D01*
X18625558Y-5710646D01*
X18629022Y-5711434D01*
X18631656Y-5711246D01*
X18641530Y-5712219D01*
X18736768Y-5712219D01*
X18746641Y-5711246D01*
X18749275Y-5711434D01*
X18752738Y-5710646D01*
X18756277Y-5710298D01*
X18758719Y-5709286D01*
X18768391Y-5707087D01*
X18911247Y-5659468D01*
X18929148Y-5651477D01*
X18931863Y-5649122D01*
X18935183Y-5647747D01*
X18950336Y-5635310D01*
X18997955Y-5587690D01*
X19010392Y-5572537D01*
X19025323Y-5536488D01*
X19025322Y-5497470D01*
X19010391Y-5461422D01*
X18982800Y-5433832D01*
X18946752Y-5418901D01*
X18907734Y-5418902D01*
X18871686Y-5433833D01*
X18856532Y-5446270D01*
X18825605Y-5477197D01*
X18720541Y-5512219D01*
X18657756Y-5512219D01*
X18552691Y-5477197D01*
X18485621Y-5410127D01*
X18450167Y-5339218D01*
X18408197Y-5171337D01*
X18408197Y-5053100D01*
X18450167Y-4885218D01*
X18485620Y-4814312D01*
X18552692Y-4747240D01*
X18657756Y-4712219D01*
X18720541Y-4712219D01*
X18825606Y-4747240D01*
X18856533Y-4778167D01*
X18871686Y-4790604D01*
X18907735Y-4805535D01*
X18946753Y-4805535D01*
X18982801Y-4790604D01*
X19010391Y-4763014D01*
X19025322Y-4726966D01*
X19025322Y-4687948D01*
X19010391Y-4651899D01*
X18997954Y-4636746D01*
X18950336Y-4589127D01*
X18935182Y-4576691D01*
X18931863Y-4575316D01*
X18929148Y-4572961D01*
X18911247Y-4564970D01*
X18768391Y-4517351D01*
X18758719Y-4515151D01*
X18756277Y-4514140D01*
X18752738Y-4513791D01*
X18749275Y-4513004D01*
X18746641Y-4513191D01*
X18736768Y-4512219D01*
X18641530Y-4512219D01*
X18631656Y-4513191D01*
X18629022Y-4513004D01*
X18625558Y-4513791D01*
X18622021Y-4514140D01*
X18619579Y-4515151D01*
X18609907Y-4517351D01*
X18467050Y-4564970D01*
X18449150Y-4572961D01*
X18446434Y-4575316D01*
X18443116Y-4576691D01*
X18427962Y-4589127D01*
X18332724Y-4684365D01*
X18326429Y-4692035D01*
X18324435Y-4693765D01*
X18322541Y-4696772D01*
X18320288Y-4699519D01*
X18319277Y-4701958D01*
X18313992Y-4710355D01*
X18266373Y-4805593D01*
X18265827Y-4807019D01*
X18265397Y-4807600D01*
X18262475Y-4815776D01*
X18259367Y-4823901D01*
X18259315Y-4824623D01*
X18258802Y-4826061D01*
X18211183Y-5016536D01*
X18210682Y-5019917D01*
X18210118Y-5021281D01*
X18209394Y-5028631D01*
X18208315Y-5035929D01*
X18208532Y-5037387D01*
X18208197Y-5040790D01*
X17411274Y-5040790D01*
X17450167Y-4885218D01*
X17485620Y-4814312D01*
X17552692Y-4747240D01*
X17657756Y-4712219D01*
X17720541Y-4712219D01*
X17825606Y-4747240D01*
X17856533Y-4778167D01*
X17871686Y-4790604D01*
X17907735Y-4805535D01*
X17946753Y-4805535D01*
X17982801Y-4790604D01*
X18010391Y-4763014D01*
X18025322Y-4726966D01*
X18025322Y-4687948D01*
X18010391Y-4651899D01*
X17997954Y-4636746D01*
X17950336Y-4589127D01*
X17935182Y-4576691D01*
X17931863Y-4575316D01*
X17929148Y-4572961D01*
X17911247Y-4564970D01*
X17768391Y-4517351D01*
X17758719Y-4515151D01*
X17756277Y-4514140D01*
X17752738Y-4513791D01*
X17749275Y-4513004D01*
X17746641Y-4513191D01*
X17736768Y-4512219D01*
X17641530Y-4512219D01*
X17631656Y-4513191D01*
X17629022Y-4513004D01*
X17625558Y-4513791D01*
X17622021Y-4514140D01*
X17619579Y-4515151D01*
X17609907Y-4517351D01*
X17467050Y-4564970D01*
X17449150Y-4572961D01*
X17446434Y-4575316D01*
X17443116Y-4576691D01*
X17427962Y-4589127D01*
X17332724Y-4684365D01*
X17326429Y-4692035D01*
X17324435Y-4693765D01*
X17322541Y-4696772D01*
X17320288Y-4699519D01*
X17319277Y-4701958D01*
X17313992Y-4710355D01*
X17266373Y-4805593D01*
X17265827Y-4807019D01*
X17265397Y-4807600D01*
X17262475Y-4815776D01*
X17259367Y-4823901D01*
X17259315Y-4824623D01*
X17258802Y-4826061D01*
X17211183Y-5016536D01*
X17210682Y-5019917D01*
X17210118Y-5021281D01*
X17209394Y-5028631D01*
X17208315Y-5035929D01*
X17208532Y-5037387D01*
X17208197Y-5040790D01*
X16985034Y-5040790D01*
X17117350Y-4643842D01*
X17121697Y-4624727D01*
X17118931Y-4585807D01*
X17101481Y-4550908D01*
X17072005Y-4525343D01*
X17034989Y-4513004D01*
X16996069Y-4515771D01*
X16961170Y-4533220D01*
X16935605Y-4562696D01*
X16927614Y-4580597D01*
X16689149Y-5295991D01*
X16450684Y-4580596D01*
X16442693Y-4562696D01*
X16417128Y-4533220D01*
X16382229Y-4515770D01*
X16343309Y-4513004D01*
X16306293Y-4525342D01*
X16276817Y-4550907D01*
X16259367Y-4585806D01*
X16256601Y-4624726D01*
X16145490Y-4624726D01*
X16145490Y-4401108D01*
X19136434Y-4401108D01*
X19136434Y-5823330D01*
G37*
G36*
X18813224Y-7257240D02*
G01*
X18880297Y-7324313D01*
X18915749Y-7395218D01*
X18957720Y-7563099D01*
X18957720Y-7681337D01*
X18915749Y-7849218D01*
X18880296Y-7920124D01*
X18813225Y-7987197D01*
X18708160Y-8022219D01*
X18586292Y-8022219D01*
X18586292Y-7222219D01*
X18708160Y-7222219D01*
X18813224Y-7257240D01*
G37*
G36*
X19268831Y-8333330D02*
G01*
X16179943Y-8333330D01*
X16179943Y-7550790D01*
X16291054Y-7550790D01*
X16291054Y-7693647D01*
X16291389Y-7697049D01*
X16291172Y-7698508D01*
X16292251Y-7705805D01*
X16292975Y-7713156D01*
X16293539Y-7714519D01*
X16294040Y-7717901D01*
X16341659Y-7908376D01*
X16342172Y-7909813D01*
X16342224Y-7910536D01*
X16345332Y-7918660D01*
X16348254Y-7926837D01*
X16348684Y-7927417D01*
X16349230Y-7928844D01*
X16396849Y-8024082D01*
X16402131Y-8032474D01*
X16403144Y-8034918D01*
X16405400Y-8037667D01*
X16407292Y-8040672D01*
X16409286Y-8042401D01*
X16415581Y-8050071D01*
X16510819Y-8145311D01*
X16525972Y-8157747D01*
X16529291Y-8159122D01*
X16532007Y-8161477D01*
X16549907Y-8169468D01*
X16692764Y-8217087D01*
X16702436Y-8219286D01*
X16704878Y-8220298D01*
X16708415Y-8220646D01*
X16711879Y-8221434D01*
X16714513Y-8221246D01*
X16724387Y-8222219D01*
X16819625Y-8222219D01*
X16829498Y-8221246D01*
X16832132Y-8221434D01*
X16835595Y-8220646D01*
X16839134Y-8220298D01*
X16841576Y-8219286D01*
X16851248Y-8217087D01*
X16994104Y-8169468D01*
X17012005Y-8161477D01*
X17014720Y-8159122D01*
X17018040Y-8157747D01*
X17033193Y-8145310D01*
X17080812Y-8097690D01*
X17093249Y-8082537D01*
X17108180Y-8046488D01*
X17110101Y-8026980D01*
X17110101Y-7693647D01*
X17108180Y-7674138D01*
X17093248Y-7638090D01*
X17065658Y-7610500D01*
X17029610Y-7595568D01*
X17010101Y-7593647D01*
X16819625Y-7593647D01*
X16800116Y-7595568D01*
X16764068Y-7610500D01*
X16736478Y-7638090D01*
X16721546Y-7674138D01*
X16721546Y-7713156D01*
X16736478Y-7749204D01*
X16764068Y-7776794D01*
X16800116Y-7791726D01*
X16819625Y-7793647D01*
X16910101Y-7793647D01*
X16910101Y-7985559D01*
X16908462Y-7987197D01*
X16803398Y-8022219D01*
X16740613Y-8022219D01*
X16635548Y-7987197D01*
X16568478Y-7920127D01*
X16533024Y-7849218D01*
X16491054Y-7681337D01*
X16491054Y-7563100D01*
X16533024Y-7395218D01*
X16568477Y-7324312D01*
X16635549Y-7257240D01*
X16740613Y-7222219D01*
X16843637Y-7222219D01*
X16917760Y-7259281D01*
X16936069Y-7266287D01*
X16974989Y-7269053D01*
X17012005Y-7256714D01*
X17041482Y-7231149D01*
X17058931Y-7196251D01*
X17061696Y-7157331D01*
X17049993Y-7122219D01*
X17338673Y-7122219D01*
X17338673Y-8122219D01*
X17340594Y-8141728D01*
X17355526Y-8177776D01*
X17383116Y-8205366D01*
X17419164Y-8220298D01*
X17458182Y-8220298D01*
X17494230Y-8205366D01*
X17521820Y-8177776D01*
X17536752Y-8141728D01*
X17538673Y-8122219D01*
X17538673Y-7498775D01*
X17923277Y-8171833D01*
X17926195Y-8175943D01*
X17926954Y-8177776D01*
X17928820Y-8179642D01*
X17934624Y-8187818D01*
X17945140Y-8195962D01*
X17954544Y-8205366D01*
X17960431Y-8207804D01*
X17965473Y-8211709D01*
X17978305Y-8215208D01*
X17990592Y-8220298D01*
X17996968Y-8220298D01*
X18003117Y-8221975D01*
X18016310Y-8220298D01*
X18029610Y-8220298D01*
X18035498Y-8217858D01*
X18041823Y-8217055D01*
X18053372Y-8210454D01*
X18065658Y-8205366D01*
X18070165Y-8200858D01*
X18075700Y-8197696D01*
X18083844Y-8187179D01*
X18093248Y-8177776D01*
X18095686Y-8171888D01*
X18099591Y-8166847D01*
X18103090Y-8154014D01*
X18108180Y-8141728D01*
X18109162Y-8131750D01*
X18109857Y-8129204D01*
X18109606Y-8127236D01*
X18110101Y-8122219D01*
X18110101Y-7122219D01*
X18386292Y-7122219D01*
X18386292Y-8122219D01*
X18388213Y-8141728D01*
X18403145Y-8177776D01*
X18430735Y-8205366D01*
X18466783Y-8220298D01*
X18486292Y-8222219D01*
X18724387Y-8222219D01*
X18734260Y-8221246D01*
X18736894Y-8221434D01*
X18740357Y-8220646D01*
X18743896Y-8220298D01*
X18746338Y-8219286D01*
X18756010Y-8217087D01*
X18898866Y-8169468D01*
X18916767Y-8161477D01*
X18919482Y-8159122D01*
X18922802Y-8157747D01*
X18937955Y-8145310D01*
X19033193Y-8050071D01*
X19039485Y-8042404D01*
X19041482Y-8040673D01*
X19043375Y-8037665D01*
X19045630Y-8034918D01*
X19046641Y-8032476D01*
X19051925Y-8024082D01*
X19099544Y-7928845D01*
X19100090Y-7927416D01*
X19100520Y-7926837D01*
X19103441Y-7918660D01*
X19106550Y-7910536D01*
X19106601Y-7909815D01*
X19107115Y-7908377D01*
X19154734Y-7717901D01*
X19155234Y-7714519D01*
X19155799Y-7713156D01*
X19156522Y-7705805D01*
X19157602Y-7698508D01*
X19157384Y-7697049D01*
X19157720Y-7693647D01*
X19157720Y-7550790D01*
X19157384Y-7547387D01*
X19157602Y-7545929D01*
X19156522Y-7538631D01*
X19155799Y-7531281D01*
X19155234Y-7529917D01*
X19154734Y-7526536D01*
X19107115Y-7336060D01*
X19106601Y-7334621D01*
X19106550Y-7333901D01*
X19103441Y-7325776D01*
X19100520Y-7317600D01*
X19100090Y-7317020D01*
X19099544Y-7315592D01*
X19051925Y-7220355D01*
X19046638Y-7211956D01*
X19045629Y-7209519D01*
X19043377Y-7206775D01*
X19041482Y-7203764D01*
X19039484Y-7202031D01*
X19033193Y-7194365D01*
X18937955Y-7099127D01*
X18922801Y-7086691D01*
X18919482Y-7085316D01*
X18916767Y-7082961D01*
X18898866Y-7074970D01*
X18756010Y-7027351D01*
X18746338Y-7025151D01*
X18743896Y-7024140D01*
X18740357Y-7023791D01*
X18736894Y-7023004D01*
X18734260Y-7023191D01*
X18724387Y-7022219D01*
X18486292Y-7022219D01*
X18466783Y-7024140D01*
X18430735Y-7039072D01*
X18403145Y-7066662D01*
X18388213Y-7102710D01*
X18386292Y-7122219D01*
X18110101Y-7122219D01*
X18108180Y-7102710D01*
X18093248Y-7066662D01*
X18065658Y-7039072D01*
X18029610Y-7024140D01*
X17990592Y-7024140D01*
X17954544Y-7039072D01*
X17926954Y-7066662D01*
X17912022Y-7102710D01*
X17910101Y-7122219D01*
X17910101Y-7745662D01*
X17525497Y-7072605D01*
X17522578Y-7068494D01*
X17521820Y-7066662D01*
X17519953Y-7064795D01*
X17514150Y-7056620D01*
X17503635Y-7048477D01*
X17494230Y-7039072D01*
X17488339Y-7036632D01*
X17483301Y-7032730D01*
X17470472Y-7029231D01*
X17458182Y-7024140D01*
X17451807Y-7024140D01*
X17445658Y-7022463D01*
X17432465Y-7024140D01*
X17419164Y-7024140D01*
X17413275Y-7026579D01*
X17406951Y-7027383D01*
X17395401Y-7033983D01*
X17383116Y-7039072D01*
X17378608Y-7043579D01*
X17373074Y-7046742D01*
X17364931Y-7057256D01*
X17355526Y-7066662D01*
X17353086Y-7072552D01*
X17349184Y-7077591D01*
X17345685Y-7090419D01*
X17340594Y-7102710D01*
X17339611Y-7112687D01*
X17338917Y-7115234D01*
X17339167Y-7117201D01*
X17338673Y-7122219D01*
X17049993Y-7122219D01*
X17049358Y-7120315D01*
X17023793Y-7090838D01*
X17007203Y-7080395D01*
X16911965Y-7032776D01*
X16893657Y-7025770D01*
X16890073Y-7025515D01*
X16886753Y-7024140D01*
X16867244Y-7022219D01*
X16724387Y-7022219D01*
X16714513Y-7023191D01*
X16711879Y-7023004D01*
X16708415Y-7023791D01*
X16704878Y-7024140D01*
X16702436Y-7025151D01*
X16692764Y-7027351D01*
X16549907Y-7074970D01*
X16532007Y-7082961D01*
X16529291Y-7085316D01*
X16525973Y-7086691D01*
X16510819Y-7099127D01*
X16415581Y-7194365D01*
X16409286Y-7202035D01*
X16407292Y-7203765D01*
X16405398Y-7206772D01*
X16403145Y-7209519D01*
X16402134Y-7211958D01*
X16396849Y-7220355D01*
X16349230Y-7315593D01*
X16348684Y-7317019D01*
X16348254Y-7317600D01*
X16345332Y-7325776D01*
X16342224Y-7333901D01*
X16342172Y-7334623D01*
X16341659Y-7336061D01*
X16294040Y-7526536D01*
X16293539Y-7529917D01*
X16292975Y-7531281D01*
X16292251Y-7538631D01*
X16291172Y-7545929D01*
X16291389Y-7547387D01*
X16291054Y-7550790D01*
X16179943Y-7550790D01*
X16179943Y-6911108D01*
X19268831Y-6911108D01*
X19268831Y-8333330D01*
G37*
G36*
X1601224Y-7257240D02*
G01*
X1668297Y-7324313D01*
X1703749Y-7395218D01*
X1745720Y-7563099D01*
X1745720Y-7681337D01*
X1703749Y-7849218D01*
X1668296Y-7920124D01*
X1601225Y-7987197D01*
X1496160Y-8022219D01*
X1374292Y-8022219D01*
X1374292Y-7222219D01*
X1496160Y-7222219D01*
X1601224Y-7257240D01*
G37*
G36*
X2056831Y-8333330D02*
G01*
X-1032056Y-8333330D01*
X-1032056Y-7550790D01*
X-920945Y-7550790D01*
X-920945Y-7693647D01*
X-920609Y-7697049D01*
X-920827Y-7698508D01*
X-919747Y-7705805D01*
X-919024Y-7713156D01*
X-918459Y-7714519D01*
X-917959Y-7717901D01*
X-870340Y-7908376D01*
X-869826Y-7909813D01*
X-869775Y-7910536D01*
X-866666Y-7918660D01*
X-863745Y-7926837D01*
X-863314Y-7927417D01*
X-862769Y-7928844D01*
X-815150Y-8024082D01*
X-809867Y-8032474D01*
X-808855Y-8034918D01*
X-806598Y-8037667D01*
X-804707Y-8040672D01*
X-802712Y-8042401D01*
X-796418Y-8050071D01*
X-701180Y-8145311D01*
X-686027Y-8157747D01*
X-682707Y-8159122D01*
X-679992Y-8161477D01*
X-662092Y-8169468D01*
X-519235Y-8217087D01*
X-509562Y-8219286D01*
X-507121Y-8220298D01*
X-503583Y-8220646D01*
X-500120Y-8221434D01*
X-497485Y-8221246D01*
X-487612Y-8222219D01*
X-392374Y-8222219D01*
X-382500Y-8221246D01*
X-379867Y-8221434D01*
X-376403Y-8220646D01*
X-372865Y-8220298D01*
X-370422Y-8219286D01*
X-360751Y-8217087D01*
X-217895Y-8169468D01*
X-199994Y-8161477D01*
X-197278Y-8159122D01*
X-193959Y-8157747D01*
X-178806Y-8145310D01*
X-131187Y-8097690D01*
X-118750Y-8082537D01*
X-103819Y-8046488D01*
X-103818Y-8046488D01*
X-101898Y-8026980D01*
X-101898Y-7693647D01*
X-103819Y-7674138D01*
X-118751Y-7638090D01*
X-146341Y-7610500D01*
X-182389Y-7595568D01*
X-201898Y-7593647D01*
X-392374Y-7593647D01*
X-411883Y-7595568D01*
X-447931Y-7610500D01*
X-475521Y-7638090D01*
X-490453Y-7674138D01*
X-490453Y-7713156D01*
X-475521Y-7749204D01*
X-447931Y-7776794D01*
X-411883Y-7791726D01*
X-392374Y-7793647D01*
X-301898Y-7793647D01*
X-301898Y-7985559D01*
X-303536Y-7987197D01*
X-408601Y-8022219D01*
X-471386Y-8022219D01*
X-576450Y-7987197D01*
X-643520Y-7920127D01*
X-678974Y-7849218D01*
X-720945Y-7681337D01*
X-720945Y-7563100D01*
X-678974Y-7395218D01*
X-643521Y-7324312D01*
X-576449Y-7257240D01*
X-471386Y-7222219D01*
X-368362Y-7222219D01*
X-294239Y-7259281D01*
X-275930Y-7266287D01*
X-237010Y-7269053D01*
X-199994Y-7256714D01*
X-170517Y-7231149D01*
X-153068Y-7196251D01*
X-150303Y-7157331D01*
X-162006Y-7122219D01*
X126673Y-7122219D01*
X126673Y-8122219D01*
X128594Y-8141728D01*
X143526Y-8177776D01*
X171116Y-8205366D01*
X207164Y-8220298D01*
X246182Y-8220298D01*
X282230Y-8205366D01*
X309820Y-8177776D01*
X324752Y-8141728D01*
X326673Y-8122219D01*
X326673Y-7498775D01*
X711277Y-8171833D01*
X714195Y-8175943D01*
X714954Y-8177776D01*
X716820Y-8179642D01*
X722624Y-8187818D01*
X733140Y-8195962D01*
X742544Y-8205366D01*
X748431Y-8207804D01*
X753473Y-8211709D01*
X766305Y-8215208D01*
X778592Y-8220298D01*
X784968Y-8220298D01*
X791117Y-8221975D01*
X804310Y-8220298D01*
X817610Y-8220298D01*
X823498Y-8217858D01*
X829823Y-8217055D01*
X841372Y-8210454D01*
X853658Y-8205366D01*
X858165Y-8200858D01*
X863700Y-8197696D01*
X871844Y-8187179D01*
X881248Y-8177776D01*
X883686Y-8171888D01*
X887591Y-8166847D01*
X891090Y-8154014D01*
X896180Y-8141728D01*
X897162Y-8131750D01*
X897857Y-8129204D01*
X897606Y-8127236D01*
X898101Y-8122219D01*
X898101Y-7122219D01*
X1174292Y-7122219D01*
X1174292Y-8122219D01*
X1176213Y-8141728D01*
X1191145Y-8177776D01*
X1218735Y-8205366D01*
X1254783Y-8220298D01*
X1274292Y-8222219D01*
X1512387Y-8222219D01*
X1522260Y-8221246D01*
X1524894Y-8221434D01*
X1528357Y-8220646D01*
X1531896Y-8220298D01*
X1534338Y-8219286D01*
X1544010Y-8217087D01*
X1686866Y-8169468D01*
X1704767Y-8161477D01*
X1707482Y-8159122D01*
X1710802Y-8157747D01*
X1725955Y-8145310D01*
X1821193Y-8050071D01*
X1827485Y-8042404D01*
X1829482Y-8040673D01*
X1831375Y-8037665D01*
X1833630Y-8034918D01*
X1834641Y-8032476D01*
X1839925Y-8024082D01*
X1887544Y-7928845D01*
X1888090Y-7927416D01*
X1888520Y-7926837D01*
X1891441Y-7918660D01*
X1894550Y-7910536D01*
X1894601Y-7909815D01*
X1895115Y-7908377D01*
X1942734Y-7717901D01*
X1943234Y-7714519D01*
X1943799Y-7713156D01*
X1944522Y-7705805D01*
X1945602Y-7698508D01*
X1945384Y-7697049D01*
X1945720Y-7693647D01*
X1945720Y-7550790D01*
X1945384Y-7547387D01*
X1945602Y-7545929D01*
X1944522Y-7538631D01*
X1943799Y-7531281D01*
X1943234Y-7529917D01*
X1942734Y-7526536D01*
X1895115Y-7336060D01*
X1894601Y-7334621D01*
X1894550Y-7333901D01*
X1891441Y-7325776D01*
X1888520Y-7317600D01*
X1888090Y-7317020D01*
X1887544Y-7315592D01*
X1839925Y-7220355D01*
X1834638Y-7211956D01*
X1833629Y-7209519D01*
X1831377Y-7206775D01*
X1829482Y-7203764D01*
X1827484Y-7202031D01*
X1821193Y-7194365D01*
X1725955Y-7099127D01*
X1710801Y-7086691D01*
X1707482Y-7085316D01*
X1704767Y-7082961D01*
X1686866Y-7074970D01*
X1544010Y-7027351D01*
X1534338Y-7025151D01*
X1531896Y-7024140D01*
X1528357Y-7023791D01*
X1524894Y-7023004D01*
X1522260Y-7023191D01*
X1512387Y-7022219D01*
X1274292Y-7022219D01*
X1254783Y-7024140D01*
X1218735Y-7039072D01*
X1191145Y-7066662D01*
X1176213Y-7102710D01*
X1174292Y-7122219D01*
X898101Y-7122219D01*
X896180Y-7102710D01*
X881248Y-7066662D01*
X853658Y-7039072D01*
X817610Y-7024140D01*
X778592Y-7024140D01*
X742544Y-7039072D01*
X714954Y-7066662D01*
X700022Y-7102710D01*
X698101Y-7122219D01*
X698101Y-7745662D01*
X313497Y-7072605D01*
X310578Y-7068494D01*
X309820Y-7066662D01*
X307953Y-7064795D01*
X302150Y-7056620D01*
X291635Y-7048477D01*
X282230Y-7039072D01*
X276339Y-7036632D01*
X271301Y-7032730D01*
X258472Y-7029231D01*
X246182Y-7024140D01*
X239807Y-7024140D01*
X233658Y-7022463D01*
X220465Y-7024140D01*
X207164Y-7024140D01*
X201275Y-7026579D01*
X194951Y-7027383D01*
X183401Y-7033983D01*
X171116Y-7039072D01*
X166608Y-7043579D01*
X161074Y-7046742D01*
X152931Y-7057256D01*
X143526Y-7066662D01*
X141086Y-7072552D01*
X137184Y-7077591D01*
X133685Y-7090419D01*
X128594Y-7102710D01*
X127611Y-7112687D01*
X126917Y-7115234D01*
X127167Y-7117201D01*
X126673Y-7122219D01*
X-162006Y-7122219D01*
X-162641Y-7120315D01*
X-188206Y-7090838D01*
X-204796Y-7080395D01*
X-300034Y-7032776D01*
X-318342Y-7025770D01*
X-321925Y-7025515D01*
X-325246Y-7024140D01*
X-344755Y-7022219D01*
X-487612Y-7022219D01*
X-497485Y-7023191D01*
X-500120Y-7023004D01*
X-503583Y-7023791D01*
X-507121Y-7024140D01*
X-509562Y-7025151D01*
X-519235Y-7027351D01*
X-662092Y-7074970D01*
X-679992Y-7082961D01*
X-682707Y-7085316D01*
X-686026Y-7086691D01*
X-701180Y-7099127D01*
X-796418Y-7194365D01*
X-802712Y-7202035D01*
X-804707Y-7203765D01*
X-806600Y-7206772D01*
X-808854Y-7209519D01*
X-809864Y-7211958D01*
X-815150Y-7220355D01*
X-862769Y-7315593D01*
X-863314Y-7317019D01*
X-863745Y-7317600D01*
X-866666Y-7325776D01*
X-869775Y-7333901D01*
X-869826Y-7334623D01*
X-870340Y-7336061D01*
X-917959Y-7526536D01*
X-918459Y-7529917D01*
X-919024Y-7531281D01*
X-919747Y-7538631D01*
X-920827Y-7545929D01*
X-920609Y-7547387D01*
X-920945Y-7550790D01*
X-1032056Y-7550790D01*
X-1032056Y-6911108D01*
X2056831Y-6911108D01*
X2056831Y-8333330D01*
G37*
G36*
X5309218Y-14806249D02*
G01*
X5380127Y-14841703D01*
X5447197Y-14908773D01*
X5482219Y-15013838D01*
X5482219Y-15135707D01*
X4682219Y-15135707D01*
X4682219Y-15013839D01*
X4717240Y-14908774D01*
X4784313Y-14841702D01*
X4855218Y-14806249D01*
X5023099Y-14764279D01*
X5141337Y-14764279D01*
X5309218Y-14806249D01*
G37*
G36*
X5793330Y-17542056D02*
G01*
X4371108Y-17542056D01*
X4371108Y-16854755D01*
X4482219Y-16854755D01*
X4482219Y-16997612D01*
X4483191Y-17007485D01*
X4483004Y-17010119D01*
X4483791Y-17013582D01*
X4484140Y-17017121D01*
X4485151Y-17019563D01*
X4487351Y-17029235D01*
X4534970Y-17172091D01*
X4542961Y-17189992D01*
X4545316Y-17192707D01*
X4546691Y-17196026D01*
X4559127Y-17211180D01*
X4654365Y-17306418D01*
X4662031Y-17312709D01*
X4663764Y-17314707D01*
X4666775Y-17316602D01*
X4669519Y-17318854D01*
X4671956Y-17319863D01*
X4680355Y-17325150D01*
X4775592Y-17372769D01*
X4777020Y-17373315D01*
X4777600Y-17373745D01*
X4785776Y-17376666D01*
X4793901Y-17379775D01*
X4794621Y-17379826D01*
X4796060Y-17380340D01*
X4986536Y-17427959D01*
X4989917Y-17428459D01*
X4991281Y-17429024D01*
X4998631Y-17429747D01*
X5005929Y-17430827D01*
X5007387Y-17430609D01*
X5010790Y-17430945D01*
X5153647Y-17430945D01*
X5157049Y-17430609D01*
X5158508Y-17430827D01*
X5165805Y-17429747D01*
X5173156Y-17429024D01*
X5174519Y-17428459D01*
X5177901Y-17427959D01*
X5368376Y-17380340D01*
X5369813Y-17379826D01*
X5370536Y-17379775D01*
X5378660Y-17376666D01*
X5386837Y-17373745D01*
X5387417Y-17373314D01*
X5388844Y-17372769D01*
X5484082Y-17325150D01*
X5492474Y-17319867D01*
X5494918Y-17318855D01*
X5497667Y-17316598D01*
X5500672Y-17314707D01*
X5502401Y-17312712D01*
X5510071Y-17306418D01*
X5605311Y-17211180D01*
X5617747Y-17196027D01*
X5619122Y-17192707D01*
X5621477Y-17189992D01*
X5629468Y-17172092D01*
X5677087Y-17029235D01*
X5679286Y-17019562D01*
X5680298Y-17017121D01*
X5680646Y-17013583D01*
X5681434Y-17010120D01*
X5681246Y-17007485D01*
X5682219Y-16997612D01*
X5682219Y-16902374D01*
X5681246Y-16892500D01*
X5681434Y-16889866D01*
X5680646Y-16886402D01*
X5680298Y-16882865D01*
X5679286Y-16880423D01*
X5677087Y-16870751D01*
X5629468Y-16727894D01*
X5621477Y-16709994D01*
X5619122Y-16707278D01*
X5617747Y-16703959D01*
X5605310Y-16688805D01*
X5557690Y-16641187D01*
X5542537Y-16628750D01*
X5517046Y-16618192D01*
X5506489Y-16613819D01*
X5486980Y-16611898D01*
X5153647Y-16611898D01*
X5134138Y-16613819D01*
X5098090Y-16628751D01*
X5070500Y-16656341D01*
X5055568Y-16692389D01*
X5053647Y-16711898D01*
X5053647Y-16902374D01*
X5055568Y-16921883D01*
X5070500Y-16957931D01*
X5098090Y-16985521D01*
X5134138Y-17000453D01*
X5173156Y-17000453D01*
X5209204Y-16985521D01*
X5236794Y-16957931D01*
X5251726Y-16921883D01*
X5253647Y-16902374D01*
X5253647Y-16811898D01*
X5445560Y-16811898D01*
X5447197Y-16813535D01*
X5482219Y-16918600D01*
X5482219Y-16981385D01*
X5447197Y-17086450D01*
X5380127Y-17153520D01*
X5309218Y-17188974D01*
X5141337Y-17230945D01*
X5023099Y-17230945D01*
X4855218Y-17188974D01*
X4784313Y-17153522D01*
X4717240Y-17086449D01*
X4682219Y-16981385D01*
X4682219Y-16878362D01*
X4719281Y-16804239D01*
X4726287Y-16785930D01*
X4729053Y-16747010D01*
X4716714Y-16709994D01*
X4691149Y-16680517D01*
X4656251Y-16663068D01*
X4617331Y-16660303D01*
X4580315Y-16672641D01*
X4550838Y-16698206D01*
X4540395Y-16714796D01*
X4492776Y-16810034D01*
X4485770Y-16828342D01*
X4485515Y-16831925D01*
X4484140Y-16835246D01*
X4482219Y-16854755D01*
X4371108Y-16854755D01*
X4371108Y-16276341D01*
X4482463Y-16276341D01*
X4484140Y-16289534D01*
X4484140Y-16302835D01*
X4486579Y-16308723D01*
X4487383Y-16315048D01*
X4493983Y-16326597D01*
X4499072Y-16338883D01*
X4503579Y-16343390D01*
X4506742Y-16348925D01*
X4517256Y-16357067D01*
X4526662Y-16366473D01*
X4532552Y-16368912D01*
X4537591Y-16372815D01*
X4550419Y-16376313D01*
X4562710Y-16381405D01*
X4572687Y-16382387D01*
X4575234Y-16383082D01*
X4577201Y-16382831D01*
X4582219Y-16383326D01*
X5582219Y-16383326D01*
X5601728Y-16381405D01*
X5637776Y-16366473D01*
X5665366Y-16338883D01*
X5680298Y-16302835D01*
X5680298Y-16263817D01*
X5665366Y-16227769D01*
X5637776Y-16200179D01*
X5601728Y-16185247D01*
X5582219Y-16183326D01*
X4958775Y-16183326D01*
X5631833Y-15798722D01*
X5635943Y-15795803D01*
X5637776Y-15795045D01*
X5639642Y-15793178D01*
X5647818Y-15787375D01*
X5655962Y-15776858D01*
X5665366Y-15767455D01*
X5667804Y-15761567D01*
X5671709Y-15756526D01*
X5675208Y-15743693D01*
X5680298Y-15731407D01*
X5680298Y-15725031D01*
X5681975Y-15718882D01*
X5680298Y-15705688D01*
X5680298Y-15692389D01*
X5677858Y-15686500D01*
X5677055Y-15680176D01*
X5670454Y-15668626D01*
X5665366Y-15656341D01*
X5660858Y-15651833D01*
X5657696Y-15646299D01*
X5647179Y-15638154D01*
X5637776Y-15628751D01*
X5631888Y-15626312D01*
X5626847Y-15622408D01*
X5614014Y-15618908D01*
X5601728Y-15613819D01*
X5591750Y-15612836D01*
X5589204Y-15612142D01*
X5587236Y-15612392D01*
X5582219Y-15611898D01*
X4582219Y-15611898D01*
X4562710Y-15613819D01*
X4526662Y-15628751D01*
X4499072Y-15656341D01*
X4484140Y-15692389D01*
X4484140Y-15731407D01*
X4499072Y-15767455D01*
X4526662Y-15795045D01*
X4562710Y-15809977D01*
X4582219Y-15811898D01*
X5205663Y-15811898D01*
X4532605Y-16196502D01*
X4528494Y-16199420D01*
X4526662Y-16200179D01*
X4524795Y-16202045D01*
X4516620Y-16207849D01*
X4508477Y-16218363D01*
X4499072Y-16227769D01*
X4496632Y-16233659D01*
X4492730Y-16238698D01*
X4489231Y-16251526D01*
X4484140Y-16263817D01*
X4484140Y-16270192D01*
X4482463Y-16276341D01*
X4371108Y-16276341D01*
X4371108Y-14997612D01*
X4482219Y-14997612D01*
X4482219Y-15235707D01*
X4484140Y-15255216D01*
X4499072Y-15291264D01*
X4526662Y-15318854D01*
X4562710Y-15333786D01*
X4582219Y-15335707D01*
X5582219Y-15335707D01*
X5601728Y-15333786D01*
X5637776Y-15318854D01*
X5665366Y-15291264D01*
X5680298Y-15255216D01*
X5682219Y-15235707D01*
X5682219Y-14997612D01*
X5681246Y-14987738D01*
X5681434Y-14985104D01*
X5680646Y-14981640D01*
X5680298Y-14978103D01*
X5679286Y-14975661D01*
X5677087Y-14965989D01*
X5629468Y-14823132D01*
X5621477Y-14805232D01*
X5619122Y-14802516D01*
X5617747Y-14799197D01*
X5605311Y-14784044D01*
X5510071Y-14688806D01*
X5502401Y-14682511D01*
X5500672Y-14680517D01*
X5497667Y-14678625D01*
X5494918Y-14676369D01*
X5492474Y-14675356D01*
X5484082Y-14670074D01*
X5388844Y-14622455D01*
X5387417Y-14621909D01*
X5386837Y-14621479D01*
X5378660Y-14618557D01*
X5370536Y-14615449D01*
X5369813Y-14615397D01*
X5368376Y-14614884D01*
X5177901Y-14567265D01*
X5174519Y-14566764D01*
X5173156Y-14566200D01*
X5165805Y-14565476D01*
X5158508Y-14564397D01*
X5157049Y-14564614D01*
X5153647Y-14564279D01*
X5010790Y-14564279D01*
X5007387Y-14564614D01*
X5005929Y-14564397D01*
X4998631Y-14565476D01*
X4991281Y-14566200D01*
X4989917Y-14566764D01*
X4986536Y-14567265D01*
X4796060Y-14614884D01*
X4794621Y-14615397D01*
X4793901Y-14615449D01*
X4785776Y-14618557D01*
X4777600Y-14621479D01*
X4777020Y-14621908D01*
X4775592Y-14622455D01*
X4680355Y-14670074D01*
X4671956Y-14675360D01*
X4669519Y-14676370D01*
X4666775Y-14678621D01*
X4663764Y-14680517D01*
X4662031Y-14682514D01*
X4654365Y-14688806D01*
X4559127Y-14784044D01*
X4546691Y-14799198D01*
X4545316Y-14802516D01*
X4542961Y-14805232D01*
X4534970Y-14823133D01*
X4487351Y-14965989D01*
X4485151Y-14975660D01*
X4484140Y-14978103D01*
X4483791Y-14981641D01*
X4483004Y-14985105D01*
X4483191Y-14987738D01*
X4482219Y-14997612D01*
X4371108Y-14997612D01*
X4371108Y-14453168D01*
X5793330Y-14453168D01*
X5793330Y-17542056D01*
G37*
D11*
X17446809Y3188180D02*
X17637285Y3188180D01*
X17637285Y3188180D02*
X17732523Y3140561D01*
X17732523Y3140561D02*
X17827761Y3045323D01*
X17827761Y3045323D02*
X17875380Y2854847D01*
X17875380Y2854847D02*
X17875380Y2521514D01*
X17875380Y2521514D02*
X17827761Y2331038D01*
X17827761Y2331038D02*
X17732523Y2235800D01*
X17732523Y2235800D02*
X17637285Y2188180D01*
X17637285Y2188180D02*
X17446809Y2188180D01*
X17446809Y2188180D02*
X17351571Y2235800D01*
X17351571Y2235800D02*
X17256333Y2331038D01*
X17256333Y2331038D02*
X17208714Y2521514D01*
X17208714Y2521514D02*
X17208714Y2854847D01*
X17208714Y2854847D02*
X17256333Y3045323D01*
X17256333Y3045323D02*
X17351571Y3140561D01*
X17351571Y3140561D02*
X17446809Y3188180D01*
X18303952Y3188180D02*
X18303952Y2378657D01*
X18303952Y2378657D02*
X18351571Y2283419D01*
X18351571Y2283419D02*
X18399190Y2235800D01*
X18399190Y2235800D02*
X18494428Y2188180D01*
X18494428Y2188180D02*
X18684904Y2188180D01*
X18684904Y2188180D02*
X18780142Y2235800D01*
X18780142Y2235800D02*
X18827761Y2283419D01*
X18827761Y2283419D02*
X18875380Y2378657D01*
X18875380Y2378657D02*
X18875380Y3188180D01*
X19208714Y3188180D02*
X19780142Y3188180D01*
X19494428Y2188180D02*
X19494428Y3188180D01*
X20637285Y2188180D02*
X20065857Y2188180D01*
X20351571Y2188180D02*
X20351571Y3188180D01*
X20351571Y3188180D02*
X20256333Y3045323D01*
X20256333Y3045323D02*
X20161095Y2950085D01*
X20161095Y2950085D02*
X20065857Y2902466D01*
X-3285999Y2315180D02*
X-3285999Y3315180D01*
X-2809809Y2315180D02*
X-2809809Y3315180D01*
X-2809809Y3315180D02*
X-2238381Y2315180D01*
X-2238381Y2315180D02*
X-2238381Y3315180D01*
X-1238381Y2315180D02*
X-1809809Y2315180D01*
X-1524095Y2315180D02*
X-1524095Y3315180D01*
X-1524095Y3315180D02*
X-1619333Y3172323D01*
X-1619333Y3172323D02*
X-1714571Y3077085D01*
X-1714571Y3077085D02*
X-1809809Y3029466D01*
X18880933Y-13220580D02*
X18833314Y-13268200D01*
X18833314Y-13268200D02*
X18690457Y-13315819D01*
X18690457Y-13315819D02*
X18595219Y-13315819D01*
X18595219Y-13315819D02*
X18452362Y-13268200D01*
X18452362Y-13268200D02*
X18357124Y-13172961D01*
X18357124Y-13172961D02*
X18309505Y-13077723D01*
X18309505Y-13077723D02*
X18261886Y-12887247D01*
X18261886Y-12887247D02*
X18261886Y-12744390D01*
X18261886Y-12744390D02*
X18309505Y-12553914D01*
X18309505Y-12553914D02*
X18357124Y-12458676D01*
X18357124Y-12458676D02*
X18452362Y-12363438D01*
X18452362Y-12363438D02*
X18595219Y-12315819D01*
X18595219Y-12315819D02*
X18690457Y-12315819D01*
X18690457Y-12315819D02*
X18833314Y-12363438D01*
X18833314Y-12363438D02*
X18880933Y-12411057D01*
X19833314Y-13315819D02*
X19261886Y-13315819D01*
X19547600Y-13315819D02*
X19547600Y-12315819D01*
X19547600Y-12315819D02*
X19452362Y-12458676D01*
X19452362Y-12458676D02*
X19357124Y-12553914D01*
X19357124Y-12553914D02*
X19261886Y-12601533D01*
D12*
X5390000Y-1653800D02*
X4910000Y-1173800D01*
X5390000Y-1173800D01*
X5390000Y-1653800D01*
G36*
X5390000Y-1653800D02*
G01*
X4910000Y-1173800D01*
X5390000Y-1173800D01*
X5390000Y-1653800D01*
G37*
X16221800Y-14119800D02*
X14271800Y-14119800D01*
X16221800Y-14119800D02*
X18171800Y-14119800D01*
X16221800Y-19239800D02*
X14271800Y-19239800D01*
X16221800Y-19239800D02*
X18171800Y-19239800D01*
X13521800Y-14214800D02*
X13281800Y-13884800D01*
X13761800Y-13884800D01*
X13521800Y-14214800D01*
G36*
X13521800Y-14214800D02*
G01*
X13281800Y-13884800D01*
X13761800Y-13884800D01*
X13521800Y-14214800D01*
G37*
D11*
X3793491Y-8608462D02*
X3793491Y-9330000D01*
X3793491Y-12851538D02*
X3793491Y-12330000D01*
X4018462Y-8383491D02*
X10050763Y-8383491D01*
X8193475Y-13077359D02*
X4018453Y-13076509D01*
X8418483Y-12746366D02*
X8418483Y-12852359D01*
X9693483Y-12671366D02*
X8493483Y-12671366D01*
X9768483Y-12851509D02*
X9768483Y-12746366D01*
X10021159Y-13076509D02*
X9993483Y-13076509D01*
X10513227Y-8259574D02*
X11521420Y-7677493D01*
X11913183Y-12150426D02*
X10558580Y-12932507D01*
X12058841Y-7533491D02*
X15561525Y-7533491D01*
X15561538Y-12026509D02*
X12375647Y-12026509D01*
X15786509Y-7758462D02*
X15786509Y-8280000D01*
X15786509Y-11801538D02*
X15786509Y-11280000D01*
X3793491Y-8608462D02*
G75*
G02*
X4018462Y-8383491I225000J-29D01*
G01*
X4018453Y-13076509D02*
G75*
G02*
X3793491Y-12851538I38J225000D01*
G01*
X8418483Y-12746366D02*
G75*
G02*
X8493483Y-12671366I75000J0D01*
G01*
X8418483Y-12852359D02*
G75*
G02*
X8193475Y-13077359I-225000J0D01*
G01*
X9693483Y-12671366D02*
G75*
G02*
X9768484Y-12746366I57J-74944D01*
G01*
X9993483Y-13076509D02*
G75*
G02*
X9768481Y-12851509I-3J224999D01*
G01*
X10513227Y-8259574D02*
G75*
G02*
X10050763Y-8383491I-462487J801094D01*
G01*
X10558580Y-12932507D02*
G75*
G02*
X10021159Y-13076509I-537440J930907D01*
G01*
X11521420Y-7677493D02*
G75*
G02*
X12058841Y-7533493I537320J-930477D01*
G01*
X11913183Y-12150426D02*
G75*
G02*
X12375647Y-12026518I462517J-801274D01*
G01*
X15561525Y-7533491D02*
G75*
G02*
X15786509Y-7758462I-25J-225009D01*
G01*
X15786509Y-11801538D02*
G75*
G02*
X15561538Y-12026509I-225009J38D01*
G01*
D12*
X16107333Y-12511000D02*
X16399867Y-12511000D01*
X16107333Y-13531000D02*
X16399867Y-13531000D01*
%LPC*%
D13*
X11615000Y826200D03*
X11615000Y-673800D03*
X6165000Y826200D03*
D14*
X6165000Y-673800D03*
D15*
X13596800Y-14774800D03*
X13596800Y-16044800D03*
X13596800Y-17314800D03*
X13596800Y-18584800D03*
X18846800Y-18584800D03*
X18846800Y-17314800D03*
X18846800Y-16044800D03*
X18846800Y-14774800D03*
D16*
X20320000Y0D03*
D17*
X20320000Y-2540000D03*
X20320000Y-5080000D03*
X20320000Y-7620000D03*
D18*
X8890000Y-5080000D03*
D19*
X13290000Y-9780000D03*
D20*
X16535000Y-9780000D03*
X3045000Y-10830000D03*
D19*
X6290000Y-10830000D03*
D16*
X-2540000Y0D03*
D17*
X-2540000Y-2540000D03*
X-2540000Y-5080000D03*
X-2540000Y-7620000D03*
D21*
X15391100Y-13021000D03*
X17116100Y-13021000D03*
D16*
X-2540000Y-19050000D03*
D17*
X0Y-19050000D03*
X2540000Y-19050000D03*
X5080000Y-19050000D03*
%LPD*%
M02*
